<svg width="170" height="170" viewBox="0 0 170 170" fill="none" xmlns="http://www.w3.org/2000/svg">
<path d="M84.1094 124.219C115.65 124.219 141.219 98.65 141.219 67.1094C141.219 35.5687 115.65 10 84.1094 10C52.5687 10 27 35.5687 27 67.1094C27 98.65 52.5687 124.219 84.1094 124.219Z" fill="#BFE7F4"/>
<path d="M10.625 37.1875L17.6481 33.482C20.146 32.164 22.9233 31.4636 25.7475 31.4396C28.5717 31.4155 31.3605 32.0685 33.8805 33.3439V33.3439C36.2512 34.5427 38.8614 35.1922 41.5175 35.2441C44.1735 35.2961 46.8072 34.7492 49.223 33.6441L51.2497 32.717C53.6366 31.6243 56.2369 31.0768 58.8618 31.1145C61.4867 31.1522 64.0703 31.774 66.4248 32.9348L67.4263 33.4289C69.8063 34.6014 72.4195 35.2236 75.0726 35.2493C77.7256 35.2751 80.3505 34.7038 82.7528 33.5777L84.2483 32.8764C86.6783 31.7372 89.3357 31.1659 92.0192 31.206C94.7027 31.246 97.3419 31.8963 99.7369 33.1075L100.111 33.2988C102.506 34.51 105.146 35.1602 107.829 35.2003C110.513 35.2403 113.17 34.6691 115.6 33.5298L117.374 32.6958C119.7 31.6047 122.236 31.0335 124.805 31.0221C127.373 31.0106 129.914 31.5591 132.249 32.6294L134.13 33.49C136.637 34.6373 139.377 35.1826 142.133 35.0825C144.888 34.9825 147.581 34.2397 149.998 32.9136L156.719 29.2188" stroke="#4C241D" stroke-linecap="round" stroke-linejoin="round"/>
<path d="M105.57 124.621C102.392 128.856 98.7444 132.718 94.698 136.133C94.698 136.133 74.027 119.603 74.027 99.2109C74.027 78.8189 94.698 62.2891 94.698 62.2891C94.698 62.2891 115.372 78.8162 115.372 99.2109C115.249 105.159 113.709 110.993 110.88 116.227" fill="#FFCE56"/>
<path d="M105.57 124.621C102.392 128.856 98.7444 132.718 94.698 136.133C94.698 136.133 74.027 119.603 74.027 99.2109C74.027 78.8189 94.698 62.2891 94.698 62.2891C94.698 62.2891 115.372 78.8162 115.372 99.2109C115.249 105.159 113.709 110.993 110.88 116.227" stroke="#4C241D" stroke-linecap="round" stroke-linejoin="round"/>
<path d="M110.256 141.249C115.446 146.439 114.434 155.858 114.434 155.858C114.434 155.858 105.004 156.87 99.8245 151.683C94.6448 146.495 95.6489 137.073 95.6489 137.073C95.6489 137.073 105.065 136.058 110.256 141.249ZM79.1562 141.249C73.9659 146.439 74.978 155.858 74.978 155.858C74.978 155.858 84.4077 156.87 89.5873 151.683C94.767 146.495 93.7656 137.063 93.7656 137.063C93.7656 137.063 84.3306 136.058 79.1562 141.249Z" fill="#FC8C29" stroke="#4C241D" stroke-linecap="round" stroke-linejoin="round"/>
<path d="M94.698 82.9733C96.3293 82.9733 97.6517 81.6509 97.6517 80.0195C97.6517 78.3882 96.3293 77.0658 94.698 77.0658C93.0667 77.0658 91.7442 78.3882 91.7442 80.0195C91.7442 81.6509 93.0667 82.9733 94.698 82.9733Z" fill="#4C241D"/>
<path d="M36.2073 2.70667L43.7697 10.1681" stroke="#4C241D" stroke-linecap="round" stroke-linejoin="round"/>
<path d="M43.7192 2.65625L36.2552 10.2186" stroke="#4C241D" stroke-linecap="round" stroke-linejoin="round"/>
<path d="M56.2753 48.5536C59.2093 48.5536 61.5878 46.1751 61.5878 43.2411C61.5878 40.3071 59.2093 37.9286 56.2753 37.9286C53.3413 37.9286 50.9628 40.3071 50.9628 43.2411C50.9628 46.1751 53.3413 48.5536 56.2753 48.5536Z" stroke="#4C241D" stroke-linecap="round" stroke-linejoin="round"/>
<path d="M130.156 18.5938C133.09 18.5938 135.469 16.2153 135.469 13.2812C135.469 10.3472 133.09 7.96875 130.156 7.96875C127.222 7.96875 124.844 10.3472 124.844 13.2812C124.844 16.2153 127.222 18.5938 130.156 18.5938Z" stroke="#4C241D" stroke-linecap="round" stroke-linejoin="round"/>
<path d="M18.7877 45.8257C20.3618 45.8257 21.6378 44.5496 21.6378 42.9755C21.6378 41.4014 20.3618 40.1254 18.7877 40.1254C17.2136 40.1254 15.9375 41.4014 15.9375 42.9755C15.9375 44.5496 17.2136 45.8257 18.7877 45.8257Z" fill="#4C241D"/>
<path d="M55.7255 90.5542C55.7255 108.29 42.2025 122.671 42.2025 122.671C42.2025 122.671 28.6796 108.29 28.6796 90.5542C28.6796 72.8184 42.2025 58.4375 42.2025 58.4375C42.2025 58.4375 55.7255 72.8158 55.7255 90.5542ZM54.2407 125.845C56.7246 128.865 58.0021 132.697 57.8266 136.603C53.9207 136.779 50.0882 135.501 47.0688 133.017C44.5848 129.998 43.3073 126.165 43.4828 122.259C47.3887 122.084 51.2213 123.361 54.2407 125.845V125.845ZM30.1644 125.845C27.6804 128.865 26.4029 132.697 26.5785 136.603C30.4844 136.779 34.3169 135.501 37.3363 133.017C39.8203 129.998 41.0978 126.165 40.9222 122.259C37.0163 122.084 33.1838 123.361 30.1644 125.845V125.845Z" fill="#9DC1E4" stroke="#4C241D" stroke-linecap="round" stroke-linejoin="round"/>
<path d="M42.2025 77.9423C43.6402 77.9423 44.8056 76.7769 44.8056 75.3392C44.8056 73.9015 43.6402 72.7361 42.2025 72.7361C40.7649 72.7361 39.5994 73.9015 39.5994 75.3392C39.5994 76.7769 40.7649 77.9423 42.2025 77.9423Z" fill="#4C241D"/>
<path d="M147.756 67.7344C147.756 81.6717 137.131 92.9688 137.131 92.9688C137.131 92.9688 126.506 81.6717 126.506 67.7344C126.506 53.797 137.131 42.5 137.131 42.5C137.131 42.5 147.756 53.797 147.756 67.7344ZM146.59 95.463C148.541 97.8356 149.544 100.847 149.405 103.915C146.337 104.053 143.326 103.05 140.953 101.1C139.002 98.7269 137.999 95.7159 138.138 92.6473C141.206 92.5092 144.217 93.5122 146.59 95.463ZM127.672 95.463C125.721 97.8356 124.718 100.847 124.856 103.915C127.925 104.053 130.936 103.05 133.309 101.1C135.259 98.7269 136.262 95.7159 136.124 92.6473C133.056 92.5092 130.045 93.5122 127.672 95.463Z" fill="#C1DBDC" stroke="#4C241D" stroke-linecap="round" stroke-linejoin="round"/>
<path d="M137.131 57.8265C138.26 57.8265 139.176 56.9108 139.176 55.7812C139.176 54.6516 138.26 53.7359 137.131 53.7359C136.001 53.7359 135.086 54.6516 135.086 55.7812C135.086 56.9108 136.001 57.8265 137.131 57.8265Z" fill="#4C241D"/>
</svg>
