<svg width="22" height="22" viewBox="0 0 22 22" fill="none" xmlns="http://www.w3.org/2000/svg">
<g clip-path="url(#clip0_601_388)">
<path d="M11 11.9167C14.0376 11.9167 16.5 9.45422 16.5 6.41666C16.5 3.37909 14.0376 0.916656 11 0.916656C7.96243 0.916656 5.5 3.37909 5.5 6.41666C5.5 9.45422 7.96243 11.9167 11 11.9167Z" fill="white"/>
<path d="M2.46016 21.9113C2.57106 21.9778 2.68196 22 2.79287 22C3.01467 22 3.25865 21.8891 3.36956 21.6673C4.92219 18.9169 7.85001 17.209 10.9996 17.209C14.1493 17.209 17.0771 18.9169 18.6519 21.6673C18.8293 21.9778 19.2508 22.0887 19.5613 21.9113C19.8718 21.7338 19.9827 21.3124 19.8053 21.0019C18.0087 17.8523 14.6372 15.8782 10.9996 15.8782C7.36204 15.8782 3.99061 17.8523 2.19399 21.0019C2.01655 21.3124 2.12745 21.7338 2.46016 21.9113Z" fill="white" stroke="white" stroke-width="0.7"/>
</g>
<defs>
<clipPath id="clip0_601_388">
<rect width="22" height="22" fill="white"/>
</clipPath>
</defs>
</svg>
