<svg width="20" height="20" viewBox="0 0 20 20" fill="none" xmlns="http://www.w3.org/2000/svg">
<path d="M10.6908 8.67726L11.8983 10.2586C12.021 10.4073 12.1892 10.4958 12.3675 10.5054C12.5458 10.515 12.7205 10.4451 12.8548 10.3102C12.9892 10.1754 13.0728 9.98615 13.0882 9.78216C13.1035 9.57816 13.0494 9.37527 12.9372 9.21601L10.5195 6.0469C10.4546 5.96207 10.3748 5.8941 10.2852 5.84753C10.1956 5.80096 10.0984 5.77687 10 5.77687C9.90164 5.77687 9.80442 5.80096 9.71483 5.84753C9.62524 5.8941 9.54536 5.96207 9.48053 6.0469L7.06276 9.21601C6.95055 9.37527 6.89645 9.57816 6.91181 9.78216C6.92717 9.98615 7.0108 10.1754 7.14515 10.3102C7.27951 10.4451 7.45416 10.515 7.63249 10.5054C7.81082 10.4958 7.97898 10.4073 8.10171 10.2586L9.30921 8.67726V14.462C9.30921 14.6721 9.38199 14.8736 9.51154 15.0222C9.64109 15.1708 9.81679 15.2543 10 15.2543C10.1832 15.2543 10.3589 15.1708 10.4885 15.0222C10.618 14.8736 10.6908 14.6721 10.6908 14.462V8.67568V8.67726ZM2.76316 20C2.03032 20 1.3275 19.6661 0.80931 19.0718C0.291117 18.4775 0 17.6714 0 16.8309V3.16911C0 2.32861 0.291117 1.52253 0.80931 0.92821C1.3275 0.333887 2.03032 0 2.76316 0H17.2368C17.9697 0 18.6725 0.333887 19.1907 0.92821C19.7089 1.52253 20 2.32861 20 3.16911V16.8309C20 17.6714 19.7089 18.4775 19.1907 19.0718C18.6725 19.6661 17.9697 20 17.2368 20H2.76316ZM1.38158 16.8309C1.38158 17.2511 1.52714 17.6542 1.78623 17.9513C2.04533 18.2485 2.39674 18.4154 2.76316 18.4154H17.2368C17.6033 18.4154 17.9547 18.2485 18.2138 17.9513C18.4729 17.6542 18.6184 17.2511 18.6184 16.8309V8.95298H14.3741C14.2869 8.66581 14.1522 8.40058 13.9776 8.17179L11.5598 5.00268C11.3653 4.74765 11.1255 4.54327 10.8565 4.40324C10.5874 4.26321 10.2954 4.19076 10 4.19076C9.70457 4.19076 9.41255 4.26321 9.14353 4.40324C8.87451 4.54327 8.63471 4.74765 8.4402 5.00268L6.02243 8.17179C5.84283 8.40947 5.7102 8.6741 5.62592 8.95298H1.38158V16.8309Z" fill="white"/>
</svg>
