<svg width="170" height="170" viewBox="0 0 170 170" fill="none" xmlns="http://www.w3.org/2000/svg">
<path d="M69.1094 130.219C100.65 130.219 126.219 104.65 126.219 73.1094C126.219 41.5687 100.65 16 69.1094 16C37.5687 16 12 41.5687 12 73.1094C12 104.65 37.5687 130.219 69.1094 130.219Z" fill="#BFE7F4"/>
<path d="M119.531 167.344V162.031C119.531 159.213 118.412 156.511 116.419 154.518C114.427 152.526 111.724 151.406 108.906 151.406H55.7812C52.9633 151.406 50.2608 152.526 48.2682 154.518C46.2757 156.511 45.1562 159.213 45.1562 162.031V167.344" fill="#BF7E68"/>
<path d="M119.531 167.344V162.031C119.531 159.213 118.412 156.511 116.419 154.518C114.427 152.526 111.724 151.406 108.906 151.406H55.7812C52.9633 151.406 50.2608 152.526 48.2682 154.518C46.2757 156.511 45.1562 159.213 45.1562 162.031V167.344" stroke="#4C241D" stroke-linecap="round" stroke-linejoin="round"/>
<path d="M148.75 13.2812V18.5938" stroke="#4C241D" stroke-linecap="round" stroke-linejoin="round"/>
<path d="M148.75 29.2188V34.5312" stroke="#4C241D" stroke-linecap="round" stroke-linejoin="round"/>
<path d="M138.125 23.9062H143.438" stroke="#4C241D" stroke-linecap="round" stroke-linejoin="round"/>
<path d="M154.062 23.9062H159.375" stroke="#4C241D" stroke-linecap="round" stroke-linejoin="round"/>
<path d="M149.927 126.366C151.495 126.366 152.766 125.095 152.766 123.526C152.766 121.958 151.495 120.687 149.927 120.687C148.358 120.687 147.087 121.958 147.087 123.526C147.087 125.095 148.358 126.366 149.927 126.366Z" fill="#4C241D"/>
<path d="M19.7705 28.0846C21.3387 28.0846 22.61 26.8133 22.61 25.245C22.61 23.6768 21.3387 22.4055 19.7705 22.4055C18.2022 22.4055 16.9309 23.6768 16.9309 25.245C16.9309 26.8133 18.2022 28.0846 19.7705 28.0846Z" fill="#4C241D"/>
<path d="M19.9219 124.844C23.5894 124.844 26.5625 121.871 26.5625 118.203C26.5625 114.536 23.5894 111.562 19.9219 111.562C16.2544 111.562 13.2812 114.536 13.2812 118.203C13.2812 121.871 16.2544 124.844 19.9219 124.844Z" stroke="#4C241D" stroke-linecap="round" stroke-linejoin="round"/>
<path d="M77.0312 18.5938V148.75" stroke="#4C241D" stroke-linecap="round" stroke-linejoin="round"/>
<path d="M87.6562 61.0938C97.8712 61.0938 107.668 65.1516 114.891 72.3747C122.114 79.5978 126.172 89.3944 126.172 99.6094C126.172 109.824 122.114 119.621 114.891 126.844C107.668 134.067 97.8712 138.125 87.6562 138.125V61.0938Z" fill="#A9BA5A" stroke="#4C241D" stroke-linecap="round" stroke-linejoin="round"/>
<path d="M87.6562 79.6875C95.4055 79.6875 102.837 82.7659 108.317 88.2455C113.797 93.7251 116.875 101.157 116.875 108.906C116.875 116.656 113.797 124.087 108.317 129.567C102.837 135.047 95.4055 138.125 87.6562 138.125V79.6875Z" fill="#77A052" stroke="#4C241D" stroke-linecap="round" stroke-linejoin="round"/>
<path d="M77.0312 31.875C69.9864 31.875 63.2302 34.6735 58.2487 39.655C53.2673 44.6364 50.4688 51.3927 50.4688 58.4375C50.4688 65.4823 53.2673 72.2386 58.2487 77.22C63.2302 82.2015 69.9864 85 77.0312 85V31.875Z" fill="#A9BA5A" stroke="#4C241D" stroke-linecap="round" stroke-linejoin="round"/>
<path d="M77.0312 50.4688C73.5088 50.4688 70.1307 51.868 67.64 54.3587C65.1493 56.8495 63.75 60.2276 63.75 63.75C63.75 67.2724 65.1493 70.6505 67.64 73.1413C70.1307 75.632 73.5088 77.0313 77.0312 77.0312V50.4688Z" fill="#77A052" stroke="#4C241D" stroke-linecap="round" stroke-linejoin="round"/>
<path d="M87.6562 15.9375C91.1787 15.9375 94.5568 17.3368 97.0475 19.8275C99.5382 22.3182 100.938 25.6963 100.938 29.2188C100.938 32.7412 99.5382 36.1193 97.0475 38.61C94.5568 41.1007 91.1787 42.5 87.6562 42.5V15.9375Z" fill="#A9BA5A" stroke="#4C241D" stroke-linecap="round" stroke-linejoin="round"/>
<path d="M87.6562 5.3125V151.406" stroke="#4C241D" stroke-linecap="round" stroke-linejoin="round"/>
</svg>
