<svg width="170" height="170" viewBox="0 0 170 170" fill="none" xmlns="http://www.w3.org/2000/svg">
<path d="M57.1094 121.219C88.65 121.219 114.219 95.65 114.219 64.1094C114.219 32.5687 88.65 7 57.1094 7C25.5687 7 0 32.5687 0 64.1094C0 95.65 25.5687 121.219 57.1094 121.219Z" fill="#BFE7F4"/>
<path d="M148.75 15.9375V21.25" stroke="#4C241D" stroke-linecap="round" stroke-linejoin="round"/>
<path d="M148.75 31.875V37.1875" stroke="#4C241D" stroke-linecap="round" stroke-linejoin="round"/>
<path d="M138.125 26.5625H143.438" stroke="#4C241D" stroke-linecap="round" stroke-linejoin="round"/>
<path d="M154.062 26.5625H159.375" stroke="#4C241D" stroke-linecap="round" stroke-linejoin="round"/>
<path d="M87.6562 26.5625V151.406" stroke="#4C241D" stroke-linecap="round" stroke-linejoin="round"/>
<path d="M87.2126 59.5159L109.719 37.0122L119.531 42.5L124.844 31.875" stroke="#4C241D" stroke-linecap="round" stroke-linejoin="round"/>
<path d="M87.2127 59.5159L64.7089 37.0122L50.4688 37.1875L61.0938 26.5625" stroke="#4C241D" stroke-linecap="round" stroke-linejoin="round"/>
<path d="M87.2126 38.2182L98.9958 26.4351" stroke="#4C241D" stroke-linecap="round" stroke-linejoin="round"/>
<path d="M87.2127 38.2182L75.4322 26.4351" stroke="#4C241D" stroke-linecap="round" stroke-linejoin="round"/>
<path d="M87.2126 86.2273L99.6094 73.8306" stroke="#4C241D" stroke-linecap="round" stroke-linejoin="round"/>
<path d="M87.2127 86.2272L74.8186 73.8305L61.0938 71.7188L66.4062 61.0938L47.8125 50.4688" stroke="#4C241D" stroke-linecap="round" stroke-linejoin="round"/>
<path d="M87.2126 116.516L109.719 94.01" stroke="#4C241D" stroke-linecap="round" stroke-linejoin="round"/>
<path d="M87.2127 116.516L70.3189 99.62L64.7089 94.01L50.4688 92.9688L55.7812 79.6875L45.1562 71.7188L50.4688 63.75" stroke="#4C241D" stroke-linecap="round" stroke-linejoin="round"/>
<path d="M144.614 102.46C146.182 102.46 147.454 101.188 147.454 99.62C147.454 98.0518 146.182 96.7805 144.614 96.7805C143.046 96.7805 141.775 98.0518 141.775 99.62C141.775 101.188 143.046 102.46 144.614 102.46Z" fill="#4C241D"/>
<path d="M30.3955 28.0846C31.9637 28.0846 33.235 26.8133 33.235 25.245C33.235 23.6768 31.9637 22.4055 30.3955 22.4055C28.8272 22.4055 27.5559 23.6768 27.5559 25.245C27.5559 26.8133 28.8272 28.0846 30.3955 28.0846Z" fill="#4C241D"/>
<path d="M19.9219 114.219C23.5894 114.219 26.5625 111.246 26.5625 107.578C26.5625 103.911 23.5894 100.938 19.9219 100.938C16.2544 100.938 13.2812 103.911 13.2812 107.578C13.2812 111.246 16.2544 114.219 19.9219 114.219Z" stroke="#4C241D" stroke-linecap="round" stroke-linejoin="round"/>
<path d="M74.375 90.3125L69.5327 98.8364" stroke="#4C241D" stroke-linecap="round" stroke-linejoin="round"/>
<path d="M95.625 95.625L114.219 106.25L124.844 92.9688L119.531 79.6875H135.469L140.781 69.0625" stroke="#4C241D" stroke-linecap="round" stroke-linejoin="round"/>
<path d="M98.2812 63.75L100.938 79.6875L114.219 58.4375H127.5" stroke="#4C241D" stroke-linecap="round" stroke-linejoin="round"/>
<path d="M124.844 164.688V159.375C124.844 156.557 123.724 153.855 121.732 151.862C119.739 149.869 117.037 148.75 114.219 148.75H61.0938C58.2758 148.75 55.5733 149.869 53.5807 151.862C51.5882 153.855 50.4688 156.557 50.4688 159.375V164.688" fill="#BF7E68"/>
<path d="M124.844 164.688V159.375C124.844 156.557 123.724 153.855 121.732 151.862C119.739 149.869 117.037 148.75 114.219 148.75H61.0938C58.2758 148.75 55.5733 149.869 53.5807 151.862C51.5882 153.855 50.4688 156.557 50.4688 159.375V164.688" stroke="#4C241D" stroke-linecap="round" stroke-linejoin="round"/>
</svg>
