<svg width="156" height="172" viewBox="0 0 156 172" fill="none" xmlns="http://www.w3.org/2000/svg">
<path d="M68.3036 149.75C106.027 149.75 136.607 119.169 136.607 81.4465C136.607 43.7234 106.027 13.1429 68.3036 13.1429C30.5806 13.1429 0 43.7234 0 81.4465C0 119.169 30.5806 149.75 68.3036 149.75Z" fill="#BFE7F4"/>
<path d="M91.0714 61.7143V147.47" stroke="#4C241D" stroke-linecap="round" stroke-linejoin="round"/>
<path d="M53.0527 67.7857V171" stroke="#4C241D" stroke-width="2" stroke-linecap="round" stroke-linejoin="round"/>
<path d="M53.0528 112.02L33.5453 81.2675" stroke="#4C241D" stroke-width="2" stroke-linecap="round" stroke-linejoin="round"/>
<path d="M53.785 110.438L71.184 93.2502" stroke="#4C241D" stroke-width="2" stroke-linecap="round" stroke-linejoin="round"/>
<path d="M53.0527 161.17L33.3929 121.85" stroke="#4C241D" stroke-width="2" stroke-linecap="round" stroke-linejoin="round"/>
<path d="M121.544 42.2198C113.15 53.7525 100.254 66.5723 90.728 59.6388C81.2019 52.7052 84.6566 27.7213 93.0685 16.1886C101.481 4.65591 115.909 -4.56659 122.26 4.95644C126.753 11.6988 129.937 30.6902 121.544 42.2198Z" fill="#A9BA5A" stroke="#4C241D" stroke-linecap="round" stroke-linejoin="round"/>
<path d="M55.398 28.0023C55.398 28.0023 48.6587 16.7702 53.1516 12.2803C57.6444 7.79052 75.6158 7.79052 91.3287 36.985C107.042 66.1794 88.9001 64.1546 77.8532 54.9503C69.0093 47.193 61.4327 38.1005 55.398 28.0023V28.0023Z" fill="#A9BA5A" stroke="#4C241D" stroke-linecap="round" stroke-linejoin="round"/>
<path d="M152.715 51.2141C142.056 59.3558 117.804 73.7694 91.0714 62.0728C91.0714 62.0728 113.284 23.7075 151.965 42.7141C152.726 43.1002 153.377 43.6739 153.855 44.381C154.334 45.0882 154.624 45.9055 154.699 46.7559C154.774 47.6064 154.631 48.4619 154.284 49.2419C153.937 50.0219 153.397 50.7006 152.715 51.2141Z" fill="#A9BA5A" stroke="#4C241D" stroke-linecap="round" stroke-linejoin="round"/>
</svg>
