<svg width="64" height="64" viewBox="0 0 64 64" fill="none" xmlns="http://www.w3.org/2000/svg">
<path d="M54 14C54.5523 14 55 13.5523 55 13C55 12.4477 54.5523 12 54 12C53.4477 12 53 12.4477 53 13C53 13.5523 53.4477 14 54 14Z" fill="#4C241D"/>
<path d="M59 32C59.5523 32 60 31.5523 60 31C60 30.4477 59.5523 30 59 30C58.4477 30 58 30.4477 58 31C58 31.5523 58.4477 32 59 32Z" fill="#4C241D"/>
<path d="M7 56C7.55228 56 8 55.5523 8 55C8 54.4477 7.55228 54 7 54C6.44772 54 6 54.4477 6 55C6 55.5523 6.44772 56 7 56Z" fill="#4C241D"/>
<path d="M12.919 4.586L9.22299 8.281" stroke="#4C241D" stroke-linecap="round" stroke-linejoin="round"/>
<path d="M9.22299 4.586L12.919 8.281" stroke="#4C241D" stroke-linecap="round" stroke-linejoin="round"/>
<path d="M7.91901 42.586L4.22301 46.281" stroke="#4C241D" stroke-linecap="round" stroke-linejoin="round"/>
<path d="M4.22301 42.586L7.91901 46.281" stroke="#4C241D" stroke-linecap="round" stroke-linejoin="round"/>
<path d="M56.5 46C57.8807 46 59 44.8807 59 43.5C59 42.1193 57.8807 41 56.5 41C55.1193 41 54 42.1193 54 43.5C54 44.8807 55.1193 46 56.5 46Z" stroke="#4C241D" stroke-linecap="round" stroke-linejoin="round"/>
<path d="M52 49L32.5 42L13 49V52.5C13 57.747 21.73 62 32.5 62C43.27 62 52 57.747 52 52.5V49Z" fill="#FFCE56" stroke="#4C241D" stroke-linecap="round" stroke-linejoin="round"/>
<path d="M54 26C54.0003 22.7658 53.2876 19.5714 51.9126 16.6441C50.5375 13.7168 48.534 11.1287 46.0446 9.06402C43.5552 6.99936 40.6413 5.50895 37.5102 4.69891C34.3791 3.88887 31.108 3.77913 27.9297 4.3775C24.7513 4.97587 21.744 6.26763 19.1219 8.16081C16.4997 10.054 14.3272 12.502 12.7591 15.3306C11.191 18.1591 10.2657 21.2986 10.0493 24.5255C9.8329 27.7524 10.3306 30.9874 11.507 34L27.959 43H36.041L52.493 34C53.4901 31.4507 54.0013 28.7373 54 26V26Z" fill="#FFCE56" stroke="#4C241D" stroke-linecap="round" stroke-linejoin="round"/>
<path d="M32.5 44C30.2927 43.9969 28.0871 44.1208 25.894 44.371L15.248 48.193C15.0965 48.4358 15.011 48.714 15 49C15 51.761 22.835 54 32.5 54C42.165 54 50 51.761 50 49C49.989 48.714 49.9035 48.4358 49.752 48.193L39.106 44.371C36.9129 44.1208 34.7073 43.9969 32.5 44V44Z" fill="#6B4F5B" stroke="#4C241D" stroke-linecap="round" stroke-linejoin="round"/>
<path d="M41.246 6.04299C41.504 6.16299 41.7597 6.28766 42.013 6.41699C41.7603 6.28833 41.5047 6.16366 41.246 6.04299ZM26.9 28.278L22.708 6.05799C22.955 5.94299 23.208 5.83799 23.459 5.73199C19.6004 7.36231 16.2851 10.0565 13.9 13.5L25.717 41.773L27.959 43H29.672M35.328 43H36.041L39.58 41.064L50.713 14.433C48.6337 11.0833 45.6961 8.35087 42.205 6.51899L38.082 28.392" fill="#FC8C29"/>
<path d="M26.9 28.278L22.708 6.05799C22.955 5.94299 23.208 5.83799 23.459 5.73199C19.6004 7.36231 16.2851 10.0565 13.9 13.5L25.717 41.773L27.959 43H29.672M35.328 43H36.041L39.58 41.064L50.713 14.433C48.6337 11.0833 45.6961 8.35087 42.205 6.51899L38.082 28.392M41.246 6.04299C41.504 6.16299 41.7597 6.28766 42.013 6.41699C41.7603 6.28833 41.5047 6.16366 41.246 6.04299Z" stroke="#4C241D" stroke-linecap="round" stroke-linejoin="round"/>
<circle cx="32.5" cy="40.5" r="10" fill="#D9D9D9" stroke="#4C241D"/>
</svg>
