<svg width="64" height="64" viewBox="0 0 64 64" fill="none" xmlns="http://www.w3.org/2000/svg">
<path d="M13 19C13.5523 19 14 18.5523 14 18C14 17.4477 13.5523 17 13 17C12.4477 17 12 17.4477 12 18C12 18.5523 12.4477 19 13 19Z" fill="#4C241D"/>
<path d="M20 10C20.5523 10 21 9.55228 21 9C21 8.44772 20.5523 8 20 8C19.4477 8 19 8.44772 19 9C19 9.55228 19.4477 10 20 10Z" fill="#4C241D"/>
<path d="M20 4C20.5523 4 21 3.55228 21 3C21 2.44772 20.5523 2 20 2C19.4477 2 19 2.44772 19 3C19 3.55228 19.4477 4 20 4Z" fill="#4C241D"/>
<path d="M16 14C16.5523 14 17 13.5523 17 13C17 12.4477 16.5523 12 16 12C15.4477 12 15 12.4477 15 13C15 13.5523 15.4477 14 16 14Z" fill="#4C241D"/>
<path d="M43 11C43.5523 11 44 10.5523 44 10C44 9.44772 43.5523 9 43 9C42.4477 9 42 9.44772 42 10C42 10.5523 42.4477 11 43 11Z" fill="#4C241D"/>
<path d="M12 7C12.5523 7 13 6.55228 13 6C13 5.44772 12.5523 5 12 5C11.4477 5 11 5.44772 11 6C11 6.55228 11.4477 7 12 7Z" fill="#4C241D"/>
<path d="M50 10C50.5523 10 51 9.55228 51 9C51 8.44772 50.5523 8 50 8C49.4477 8 49 8.44772 49 9C49 9.55228 49.4477 10 50 10Z" fill="#4C241D"/>
<path d="M51 22C51.5523 22 52 21.5523 52 21C52 20.4477 51.5523 20 51 20C50.4477 20 50 20.4477 50 21C50 21.5523 50.4477 22 51 22Z" fill="#4C241D"/>
<path d="M10 29C10.5523 29 11 28.5523 11 28C11 27.4477 10.5523 27 10 27C9.44772 27 9 27.4477 9 28C9 28.5523 9.44772 29 10 29Z" fill="#4C241D"/>
<path d="M45 6C45.5523 6 46 5.55228 46 5C46 4.44772 45.5523 4 45 4C44.4477 4 44 4.44772 44 5C44 5.55228 44.4477 6 45 6Z" fill="#4C241D"/>
<path d="M48.512 28C47.012 24.437 45.445 19.442 46 15C46 15 43 17 43 25C43 33 42 21 38 14C34 7 33 4 34 1C34 1 26.428 2.81 27.874 15.077C27.9094 15.345 27.8611 15.6173 27.7358 15.8568C27.6105 16.0963 27.4143 16.2912 27.174 16.415C27.0106 16.4957 26.8322 16.5413 26.6502 16.5489C26.4681 16.5565 26.2865 16.526 26.117 16.4592C25.9474 16.3924 25.7937 16.2909 25.6658 16.1612C25.5378 16.0315 25.4384 15.8764 25.374 15.706C24.6628 13.8883 24.5321 11.895 25 10C23.6208 15.56 22.9488 21.2718 23 27C23 37 17 38 17 38C17 38 16.463 29.659 19.232 25.33C16.0771 27.7475 13.673 31.0107 12.2992 34.7404C10.9254 38.47 10.6383 42.513 11.4711 46.3994C12.304 50.2858 14.2227 53.856 17.0042 56.6952C19.7858 59.5343 23.3159 61.5258 27.1844 62.4382C31.0529 63.3505 35.1009 63.1463 38.858 61.8493C42.615 60.5522 45.9268 58.2155 48.4085 55.1109C50.8902 52.0062 52.4398 48.261 52.8773 44.3105C53.3148 40.36 52.6222 36.3665 50.88 32.794" fill="#FFCE56"/>
<path d="M48.512 28C47.012 24.437 45.445 19.442 46 15C46 15 43 17 43 25C43 33 42 21 38 14C34 7 33 4 34 1C34 1 26.428 2.81 27.874 15.077C27.9094 15.345 27.8611 15.6173 27.7358 15.8568C27.6105 16.0963 27.4143 16.2912 27.174 16.415C27.0106 16.4957 26.8322 16.5413 26.6502 16.5489C26.4681 16.5565 26.2865 16.526 26.117 16.4592C25.9474 16.3924 25.7937 16.2909 25.6658 16.1612C25.5378 16.0315 25.4384 15.8764 25.374 15.706C24.6628 13.8883 24.5321 11.895 25 10C23.6208 15.56 22.9488 21.2718 23 27C23 37 17 38 17 38C17 38 16.463 29.659 19.232 25.33C16.0771 27.7475 13.673 31.0107 12.2992 34.7404C10.9254 38.47 10.6383 42.513 11.4711 46.3994C12.304 50.2858 14.2227 53.856 17.0042 56.6952C19.7858 59.5343 23.3159 61.5258 27.1844 62.4382C31.0529 63.3505 35.1009 63.1463 38.858 61.8493C42.615 60.5522 45.9268 58.2155 48.4085 55.1109C50.8902 52.0062 52.4398 48.261 52.8773 44.3105C53.3148 40.36 52.6222 36.3665 50.88 32.794" stroke="#4C241D" stroke-linecap="round" stroke-linejoin="round"/>
<path d="M41.588 39.678C40.4853 37.3209 39.984 34.7272 40.129 32.129C40.129 32.129 38.387 33.29 38.387 37.935C38.387 42.58 35.516 39.452 34 34C32.746 29.49 32.581 25.742 33.161 24C33.161 24 26.774 33.29 26.774 39.1C26.774 44.91 23.29 45.487 23.29 45.487C23.29 45.487 22.979 40.644 24.59 38.13C22.7592 39.5339 21.3644 41.4284 20.5676 43.5935C19.7707 45.7586 19.6046 48.1054 20.0885 50.3611C20.5724 52.6169 21.6864 54.689 23.3012 56.3368C24.9159 57.9846 26.9651 59.1403 29.2106 59.6698C31.4561 60.1992 33.8057 60.0806 35.9865 59.3278C38.1673 58.5749 40.0897 57.2187 41.5303 55.4168C42.971 53.6148 43.8707 51.441 44.125 49.148C44.3793 46.855 43.9778 44.5369 42.967 42.463" fill="#E66353"/>
<path d="M41.588 39.678C40.4853 37.3209 39.984 34.7272 40.129 32.129C40.129 32.129 38.387 33.29 38.387 37.935C38.387 42.58 35.516 39.452 34 34C32.746 29.49 32.581 25.742 33.161 24C33.161 24 26.774 33.29 26.774 39.1C26.774 44.91 23.29 45.487 23.29 45.487C23.29 45.487 22.979 40.644 24.59 38.13C22.7592 39.5339 21.3644 41.4284 20.5676 43.5935C19.7707 45.7586 19.6046 48.1054 20.0885 50.3611C20.5724 52.6169 21.6864 54.689 23.3012 56.3368C24.9159 57.9846 26.9651 59.1403 29.2106 59.6698C31.4561 60.1992 33.8057 60.0806 35.9865 59.3278C38.1673 58.5749 40.0897 57.2187 41.5303 55.4168C42.971 53.6148 43.8707 51.441 44.125 49.148C44.3793 46.855 43.9778 44.5369 42.967 42.463" stroke="#4C241D" stroke-linecap="round" stroke-linejoin="round"/>
<path d="M49 37C50.1319 40.989 49.7765 45.2534 48 49" stroke="white" stroke-linecap="round" stroke-linejoin="round"/>
</svg>
