<svg width="171" height="165" viewBox="0 0 171 165" fill="none" xmlns="http://www.w3.org/2000/svg">
<path d="M69.8214 139.643C108.383 139.643 139.643 108.383 139.643 69.8214C139.643 31.2601 108.383 0 69.8214 0C31.2601 0 0 31.2601 0 69.8214C0 108.383 31.2601 139.643 69.8214 139.643Z" fill="#BFE7F4"/>
<path d="M57.6786 30.3571C59.3551 30.3571 60.7143 28.998 60.7143 27.3214C60.7143 25.6448 59.3551 24.2857 57.6786 24.2857C56.002 24.2857 54.6429 25.6448 54.6429 27.3214C54.6429 28.998 56.002 30.3571 57.6786 30.3571Z" fill="#4C241D"/>
<path d="M94.1071 15.1786C97.4603 15.1786 100.179 12.4603 100.179 9.10713C100.179 5.75398 97.4603 3.03571 94.1071 3.03571C90.754 3.03571 88.0357 5.75398 88.0357 9.10713C88.0357 12.4603 90.754 15.1786 94.1071 15.1786Z" stroke="#4C241D" stroke-linecap="round" stroke-linejoin="round"/>
<path d="M42.5 148.75H9.10714V163.929H42.5V148.75Z" fill="#B5A19C" stroke="#4C241D" stroke-linecap="round" stroke-linejoin="round"/>
<path d="M39.4643 148.75H12.1429L14.6261 133.571H36.9811L39.4643 148.75Z" fill="#9DC1E4" stroke="#4C241D" stroke-linecap="round" stroke-linejoin="round"/>
<path d="M39.4643 66.7857H12.1429L14.6261 81.9643H36.9811L39.4643 66.7857Z" fill="#9DC1E4" stroke="#4C241D" stroke-linecap="round" stroke-linejoin="round"/>
<path d="M33.3929 81.9643H18.2143V133.571H33.3929V81.9643Z" fill="#6B4F5B" stroke="#4C241D" stroke-linecap="round" stroke-linejoin="round"/>
<path d="M25.8036 65.2679C31.6716 65.2679 36.4286 60.5109 36.4286 54.6429C36.4286 48.7749 31.6716 44.0179 25.8036 44.0179C19.9355 44.0179 15.1786 48.7749 15.1786 54.6429C15.1786 60.5109 19.9355 65.2679 25.8036 65.2679Z" fill="#B5A19C" stroke="#4C241D" stroke-linecap="round" stroke-linejoin="round"/>
<path d="M25.8036 42.5C29.1567 42.5 31.875 39.7817 31.875 36.4285C31.875 33.0754 29.1567 30.3571 25.8036 30.3571C22.4504 30.3571 19.7321 33.0754 19.7321 36.4285C19.7321 39.7817 22.4504 42.5 25.8036 42.5Z" fill="#B5A19C" stroke="#4C241D" stroke-linecap="round" stroke-linejoin="round"/>
<path d="M170 148.75H136.607V163.929H170V148.75Z" fill="#B5A19C" stroke="#4C241D" stroke-linecap="round" stroke-linejoin="round"/>
<path d="M166.964 148.75H139.643L142.126 133.571H164.481L166.964 148.75Z" fill="#9DC1E4" stroke="#4C241D" stroke-linecap="round" stroke-linejoin="round"/>
<path d="M166.964 66.7857H139.643L142.126 81.9643H164.481L166.964 66.7857Z" fill="#9DC1E4" stroke="#4C241D" stroke-linecap="round" stroke-linejoin="round"/>
<path d="M160.893 81.9643H145.714V133.571H160.893V81.9643Z" fill="#6B4F5B" stroke="#4C241D" stroke-linecap="round" stroke-linejoin="round"/>
<path d="M153.304 65.2679C159.172 65.2679 163.929 60.5109 163.929 54.6429C163.929 48.7749 159.172 44.0179 153.304 44.0179C147.436 44.0179 142.679 48.7749 142.679 54.6429C142.679 60.5109 147.436 65.2679 153.304 65.2679Z" fill="#B5A19C" stroke="#4C241D" stroke-linecap="round" stroke-linejoin="round"/>
<path d="M153.304 42.5C156.657 42.5 159.375 39.7817 159.375 36.4285C159.375 33.0754 156.657 30.3571 153.304 30.3571C149.95 30.3571 147.232 33.0754 147.232 36.4285C147.232 39.7817 149.95 42.5 153.304 42.5Z" fill="#B5A19C" stroke="#4C241D" stroke-linecap="round" stroke-linejoin="round"/>
<path d="M39.4643 139.643H139.643" stroke="#4C241D" stroke-linecap="round" stroke-linejoin="round"/>
<path d="M141.161 75.8624C124.126 69.7302 106.141 66.6573 88.0357 66.7857C71.1591 66.6892 54.3795 69.3427 38.3562 74.6421" stroke="#4C241D" stroke-linecap="round" stroke-linejoin="round"/>
<path d="M51.6071 139.643V60.7143" stroke="#4C241D" stroke-linecap="round" stroke-linejoin="round"/>
<path d="M69.8214 139.643V57.6786" stroke="#4C241D" stroke-linecap="round" stroke-linejoin="round"/>
<path d="M88.0357 139.643V54.6429" stroke="#4C241D" stroke-linecap="round" stroke-linejoin="round"/>
<path d="M106.25 139.643V57.6786" stroke="#4C241D" stroke-linecap="round" stroke-linejoin="round"/>
<path d="M124.464 139.643V60.7143" stroke="#4C241D" stroke-linecap="round" stroke-linejoin="round"/>
<path d="M109.286 24.2857L121.429 36.4286" stroke="#4C241D" stroke-linecap="round" stroke-linejoin="round"/>
<path d="M121.429 24.2857L109.286 36.4286" stroke="#4C241D" stroke-linecap="round" stroke-linejoin="round"/>
</svg>
