<svg width="170" height="170" viewBox="0 0 170 170" fill="none" xmlns="http://www.w3.org/2000/svg">
<path d="M57.1094 130.219C88.65 130.219 114.219 104.65 114.219 73.1094C114.219 41.5687 88.65 16 57.1094 16C25.5687 16 0 41.5687 0 73.1094C0 104.65 25.5687 130.219 57.1094 130.219Z" fill="#BFE7F4"/>
<path d="M34.5312 50.4688C35.9983 50.4688 37.1875 49.2795 37.1875 47.8125C37.1875 46.3455 35.9983 45.1562 34.5312 45.1562C33.0642 45.1562 31.875 46.3455 31.875 47.8125C31.875 49.2795 33.0642 50.4688 34.5312 50.4688Z" fill="#4C241D"/>
<path d="M53.125 26.5625C54.592 26.5625 55.7812 25.3733 55.7812 23.9062C55.7812 22.4392 54.592 21.25 53.125 21.25C51.658 21.25 50.4688 22.4392 50.4688 23.9062C50.4688 25.3733 51.658 26.5625 53.125 26.5625Z" fill="#4C241D"/>
<path d="M53.125 10.625C54.592 10.625 55.7812 9.43576 55.7812 7.96875C55.7812 6.50174 54.592 5.3125 53.125 5.3125C51.658 5.3125 50.4688 6.50174 50.4688 7.96875C50.4688 9.43576 51.658 10.625 53.125 10.625Z" fill="#4C241D"/>
<path d="M42.5 37.1875C43.967 37.1875 45.1562 35.9983 45.1562 34.5312C45.1562 33.0642 43.967 31.875 42.5 31.875C41.033 31.875 39.8438 33.0642 39.8438 34.5312C39.8438 35.9983 41.033 37.1875 42.5 37.1875Z" fill="#4C241D"/>
<path d="M114.219 29.2188C115.686 29.2188 116.875 28.0295 116.875 26.5625C116.875 25.0955 115.686 23.9062 114.219 23.9062C112.752 23.9062 111.562 25.0955 111.562 26.5625C111.562 28.0295 112.752 29.2188 114.219 29.2188Z" fill="#4C241D"/>
<path d="M31.875 18.5938C33.342 18.5938 34.5312 17.4045 34.5312 15.9375C34.5312 14.4705 33.342 13.2812 31.875 13.2812C30.408 13.2812 29.2188 14.4705 29.2188 15.9375C29.2188 17.4045 30.408 18.5938 31.875 18.5938Z" fill="#4C241D"/>
<path d="M146.812 26.5625C148.28 26.5625 149.469 25.3733 149.469 23.9062C149.469 22.4392 148.28 21.25 146.812 21.25C145.345 21.25 144.156 22.4392 144.156 23.9062C144.156 25.3733 145.345 26.5625 146.812 26.5625Z" fill="#4C241D"/>
<path d="M135.469 58.4375C136.936 58.4375 138.125 57.2483 138.125 55.7812C138.125 54.3142 136.936 53.125 135.469 53.125C134.002 53.125 132.812 54.3142 132.812 55.7812C132.812 57.2483 134.002 58.4375 135.469 58.4375Z" fill="#4C241D"/>
<path d="M26.5625 77.0312C28.0295 77.0312 29.2188 75.842 29.2188 74.375C29.2188 72.908 28.0295 71.7188 26.5625 71.7188C25.0955 71.7188 23.9062 72.908 23.9062 74.375C23.9062 75.842 25.0955 77.0312 26.5625 77.0312Z" fill="#4C241D"/>
<path d="M119.531 15.9375C120.998 15.9375 122.188 14.7483 122.188 13.2812C122.188 11.8142 120.998 10.625 119.531 10.625C118.064 10.625 116.875 11.8142 116.875 13.2812C116.875 14.7483 118.064 15.9375 119.531 15.9375Z" fill="#4C241D"/>
<path d="M128.86 74.375C124.876 64.9108 120.713 51.6428 122.188 39.8438C122.188 39.8438 114.219 45.1562 114.219 66.4062C114.219 87.6562 111.563 55.7812 100.938 37.1875C90.3125 18.5938 87.6563 10.625 90.3125 2.65625C90.3125 2.65625 70.1994 7.46406 74.0403 40.0483C74.1342 40.7601 74.006 41.4835 73.6732 42.1196C73.3404 42.7558 72.8192 43.2736 72.1809 43.6023C71.747 43.8167 71.273 43.9379 70.7895 43.9581C70.3059 43.9783 69.8235 43.8971 69.3732 43.7198C68.9228 43.5424 68.5146 43.2728 68.1748 42.9282C67.8349 42.5836 67.5709 42.1718 67.3997 41.7191C65.5106 36.8909 65.1635 31.596 66.4063 26.5625C62.7427 41.3311 60.9578 56.5031 61.0938 71.7188C61.0938 98.2812 45.1563 100.938 45.1563 100.938C45.1563 100.938 43.7298 78.7817 51.085 67.2828C42.7048 73.7043 36.319 82.3722 32.6698 92.2791C29.0206 102.186 28.2579 112.925 30.4702 123.248C32.6825 133.572 37.779 143.055 45.1675 150.597C52.5559 158.138 61.9329 163.428 72.2086 165.851C82.4843 168.275 93.2368 167.732 103.216 164.287C113.196 160.842 121.993 154.635 128.585 146.388C135.177 138.141 139.293 128.193 140.455 117.7C141.617 107.206 139.778 96.5984 135.15 87.1091" fill="#FFCE56"/>
<path d="M128.86 74.375C124.876 64.9108 120.713 51.6428 122.188 39.8438C122.188 39.8438 114.219 45.1562 114.219 66.4062C114.219 87.6562 111.563 55.7812 100.938 37.1875C90.3125 18.5938 87.6563 10.625 90.3125 2.65625C90.3125 2.65625 70.1994 7.46406 74.0403 40.0483C74.1342 40.7601 74.006 41.4835 73.6732 42.1196C73.3404 42.7558 72.8192 43.2736 72.1809 43.6023C71.747 43.8167 71.273 43.9379 70.7895 43.9581C70.3059 43.9783 69.8235 43.8971 69.3732 43.7198C68.9228 43.5424 68.5146 43.2728 68.1748 42.9282C67.8349 42.5836 67.5709 42.1718 67.3997 41.7191C65.5106 36.8909 65.1635 31.596 66.4063 26.5625C62.7427 41.3311 60.9578 56.5031 61.0938 71.7188C61.0938 98.2812 45.1563 100.938 45.1563 100.938C45.1563 100.938 43.7298 78.7817 51.085 67.2828C42.7048 73.7043 36.319 82.3722 32.6698 92.2791C29.0206 102.186 28.2579 112.925 30.4702 123.248C32.6825 133.572 37.779 143.055 45.1675 150.597C52.5559 158.138 61.9329 163.428 72.2086 165.851C82.4843 168.275 93.2368 167.732 103.216 164.287C113.196 160.842 121.993 154.635 128.585 146.388C135.177 138.141 139.293 128.193 140.455 117.7C141.617 107.206 139.778 96.5984 135.15 87.1091" stroke="#4C241D" stroke-linecap="round" stroke-linejoin="round"/>
<path d="M110.468 105.395C107.539 99.1336 106.208 92.2442 106.593 85.3427C106.593 85.3427 101.965 88.4266 101.965 100.765C101.965 113.103 94.3394 104.794 90.3125 90.3125C86.9816 78.3328 86.5433 68.3772 88.0839 63.75C88.0839 63.75 71.1184 88.4266 71.1184 103.859C71.1184 119.292 61.8641 120.825 61.8641 120.825C61.8641 120.825 61.038 107.961 65.3172 101.283C60.4542 105.012 56.7492 110.044 54.6326 115.795C52.516 121.546 52.0747 127.78 53.3601 133.772C54.6454 139.764 57.6046 145.268 61.8937 149.645C66.1829 154.022 71.626 157.091 77.5906 158.498C83.5552 159.904 89.7965 159.589 95.5892 157.589C101.382 155.59 106.488 151.987 110.315 147.201C114.142 142.414 116.532 136.64 117.207 130.549C117.883 124.459 116.816 118.301 114.131 112.792" fill="#E66353"/>
<path d="M110.468 105.395C107.539 99.1336 106.208 92.2442 106.593 85.3427C106.593 85.3427 101.965 88.4266 101.965 100.765C101.965 113.103 94.3394 104.794 90.3125 90.3125C86.9816 78.3328 86.5433 68.3772 88.0839 63.75C88.0839 63.75 71.1184 88.4266 71.1184 103.859C71.1184 119.292 61.8641 120.825 61.8641 120.825C61.8641 120.825 61.038 107.961 65.3172 101.283C60.4542 105.012 56.7492 110.044 54.6326 115.795C52.516 121.546 52.0747 127.78 53.3601 133.772C54.6454 139.764 57.6046 145.268 61.8937 149.645C66.1829 154.022 71.626 157.091 77.5906 158.498C83.5552 159.904 89.7965 159.589 95.5892 157.589C101.382 155.59 106.488 151.987 110.315 147.201C114.142 142.414 116.532 136.64 117.207 130.549C117.883 124.459 116.816 118.301 114.131 112.792" stroke="#4C241D" stroke-linecap="round" stroke-linejoin="round"/>
<path d="M130.156 98.2812C133.163 108.877 132.219 120.204 127.5 130.156" stroke="white" stroke-linecap="round" stroke-linejoin="round"/>
</svg>
