<svg width="64" height="64" viewBox="0 0 64 64" fill="none" xmlns="http://www.w3.org/2000/svg">
<path d="M30 54H47.5C48.163 54 48.7989 53.7366 49.2678 53.2678C49.7366 52.7989 50 52.163 50 51.5C50 50.837 49.7366 50.2011 49.2678 49.7322C48.7989 49.2634 48.163 49 47.5 49H46" stroke="#4C241D" stroke-linecap="round" stroke-linejoin="round"/>
<path d="M32 7C32 6.46957 31.7893 5.96086 31.4142 5.58579C31.0391 5.21071 30.5304 5 30 5C29.4696 5 28.9609 5.21071 28.5858 5.58579C28.2107 5.96086 28 6.46957 28 7V35H32V7Z" fill="#BF7E68" stroke="#4C241D" stroke-linecap="round" stroke-linejoin="round"/>
<path d="M32 35H28V43H32V35Z" fill="#EFEFD2" stroke="#4C241D" stroke-linecap="round" stroke-linejoin="round"/>
<path d="M23 46.5C22.9996 45.6293 23.1741 44.7674 23.5132 43.9655C23.8523 43.1635 24.349 42.4379 24.974 41.8316C25.5989 41.2254 26.3392 40.7508 27.1511 40.4362C27.9629 40.1215 28.8297 39.9732 29.7 40C31.4205 40.0981 33.0366 40.8572 34.2106 42.1188C35.3847 43.3804 36.0258 45.0469 36 46.77V50.562C36.0005 51.67 35.7827 52.7672 35.3591 53.791C34.9354 54.8148 34.3141 55.7451 33.5308 56.5287C32.7475 57.3123 31.8174 57.9339 30.7938 58.3579C29.7701 58.7819 28.673 59.0001 27.565 59H16C16 59 23 57 23 46.5Z" fill="#FFCE56" stroke="#4C241D" stroke-linecap="round" stroke-linejoin="round"/>
<path d="M46.501 11.499L45.501 12.499" stroke="#4C241D" stroke-linecap="round" stroke-linejoin="round"/>
<path d="M42.499 15.501L41.499 16.501" stroke="#4C241D" stroke-linecap="round" stroke-linejoin="round"/>
<path d="M41.499 11.499L42.499 12.499" stroke="#4C241D" stroke-linecap="round" stroke-linejoin="round"/>
<path d="M45.501 15.501L46.501 16.501" stroke="#4C241D" stroke-linecap="round" stroke-linejoin="round"/>
<path d="M58.5 19.569C59.0904 19.569 59.569 19.0904 59.569 18.5C59.569 17.9096 59.0904 17.431 58.5 17.431C57.9096 17.431 57.431 17.9096 57.431 18.5C57.431 19.0904 57.9096 19.569 58.5 19.569Z" fill="#4C241D"/>
<path d="M15.5 31.569C16.0904 31.569 16.569 31.0904 16.569 30.5C16.569 29.9096 16.0904 29.431 15.5 29.431C14.9096 29.431 14.431 29.9096 14.431 30.5C14.431 31.0904 14.9096 31.569 15.5 31.569Z" fill="#4C241D"/>
<path d="M47.954 35.764C49.961 33.147 54.905 33.564 54.905 33.564C54.905 33.564 56.595 38.229 54.588 40.846C52.581 43.463 47.637 43.046 47.637 43.046C47.637 43.046 45.947 38.381 47.954 35.764Z" fill="#A9BA5A" stroke="#4C241D" stroke-linecap="round" stroke-linejoin="round"/>
<path d="M14.362 12.688C17.217 14.338 17.442 19.294 17.442 19.294C17.442 19.294 13.036 21.577 10.18 19.928C7.324 18.279 7.1 13.321 7.1 13.321C7.1 13.321 11.506 11.039 14.362 12.688Z" fill="#FC8C29" stroke="#4C241D" stroke-linecap="round" stroke-linejoin="round"/>
<path d="M10.5 45C11.8807 45 13 43.8807 13 42.5C13 41.1193 11.8807 40 10.5 40C9.11929 40 8 41.1193 8 42.5C8 43.8807 9.11929 45 10.5 45Z" stroke="#4C241D" stroke-linecap="round" stroke-linejoin="round"/>
<path d="M39 59H56.5C57.163 59 57.7989 58.7366 58.2678 58.2678C58.7366 57.7989 59 57.163 59 56.5C59 55.837 58.7366 55.2011 58.2678 54.7322C57.7989 54.2634 57.163 54 56.5 54H55" stroke="#4C241D" stroke-linecap="round" stroke-linejoin="round"/>
</svg>
