<svg width="170" height="170" viewBox="0 0 170 170" fill="none" xmlns="http://www.w3.org/2000/svg">
<path d="M89.1094 122.219C120.65 122.219 146.219 96.65 146.219 65.1094C146.219 33.5687 120.65 8 89.1094 8C57.5687 8 32 33.5687 32 65.1094C32 96.65 57.5687 122.219 89.1094 122.219Z" fill="#BFE7F4"/>
<path d="M52.7345 30.5442C55.7933 30.5442 58.2728 28.0646 58.2728 25.0059C58.2728 21.9472 55.7933 19.4677 52.7345 19.4677C49.6758 19.4677 47.1963 21.9472 47.1963 25.0059C47.1963 28.0646 49.6758 30.5442 52.7345 30.5442Z" stroke="#4C241D" stroke-linecap="round" stroke-linejoin="round"/>
<path d="M30.5575 39.2859L22.7402 47.1298" stroke="#4C241D" stroke-linecap="round" stroke-linejoin="round"/>
<path d="M22.7269 39.2992L30.5708 47.1165" stroke="#4C241D" stroke-linecap="round" stroke-linejoin="round"/>
<path d="M92.9688 42.5C94.4358 42.5 95.625 41.3108 95.625 39.8438C95.625 38.3767 94.4358 37.1875 92.9688 37.1875C91.5017 37.1875 90.3125 38.3767 90.3125 39.8438C90.3125 41.3108 91.5017 42.5 92.9688 42.5Z" fill="#4C241D"/>
<path d="M63.75 164.688C93.0901 164.688 116.875 140.903 116.875 111.562C116.875 82.2224 93.0901 58.4375 63.75 58.4375C34.4099 58.4375 10.625 82.2224 10.625 111.562C10.625 140.903 34.4099 164.688 63.75 164.688Z" fill="#FFCE56" stroke="#4C241D" stroke-linecap="round" stroke-linejoin="round"/>
<path d="M63.75 122.188C69.618 122.188 74.375 117.431 74.375 111.562C74.375 105.694 69.618 100.938 63.75 100.938C57.882 100.938 53.125 105.694 53.125 111.562C53.125 117.431 57.882 122.188 63.75 122.188Z" stroke="#4C241D" stroke-linecap="round" stroke-linejoin="round"/>
<path d="M77.0312 134.568C81.0705 132.238 84.4246 128.885 86.7561 124.846C89.0876 120.807 90.3142 116.226 90.3125 111.562" fill="#FFCE56"/>
<path d="M77.0312 134.568C81.0705 132.238 84.4246 128.885 86.7561 124.846C89.0876 120.807 90.3142 116.226 90.3125 111.562" stroke="#4C241D" stroke-linecap="round" stroke-linejoin="round"/>
<path d="M85 95.625C82.8629 92.7802 80.1761 90.3938 77.099 88.6074C74.0219 86.821 70.6173 85.671 67.0872 85.2256C63.5571 84.7803 59.9736 85.0487 56.5492 86.015C53.1249 86.9812 49.9296 88.6255 47.1529 90.8504C44.3763 93.0753 42.075 95.8353 40.3855 98.9667C38.696 102.098 37.6529 105.537 37.318 109.079C36.9831 112.621 37.3633 116.195 38.436 119.587C39.5087 122.98 41.252 126.122 43.5625 128.828M28.5069 130.156C31.3897 135.62 35.5036 140.339 40.5237 143.94C45.5438 147.541 51.3324 149.925 57.4324 150.904C63.5323 151.884 69.7763 151.431 75.6712 149.582C81.566 147.733 86.9502 144.539 91.3982 140.251C95.8463 135.964 99.2364 130.7 101.301 124.878C103.365 119.055 104.047 112.831 103.293 106.7C102.538 100.568 100.368 94.6955 96.9545 89.5465C93.5405 84.3975 88.9759 80.1129 83.6214 77.0312M71.6391 72.4997C65.1902 71.2047 58.5211 71.5249 52.226 73.4317C45.9308 75.3386 40.205 78.7729 35.5587 83.4287C30.9124 88.0845 27.4897 93.8172 25.5957 100.116C23.7017 106.415 23.395 113.085 24.7031 119.531" stroke="#4C241D" stroke-linecap="round" stroke-linejoin="round"/>
<path d="M156.719 18.5938L151.406 87.6562H127.5L122.188 18.5938" fill="#FFCE56"/>
<path d="M156.719 18.5938L151.406 87.6562H127.5L122.188 18.5938" stroke="#4C241D" stroke-linecap="round" stroke-linejoin="round"/>
<path d="M152.734 79.6875H126.172C123.971 79.6875 122.188 81.4714 122.188 83.6719C122.188 85.8724 123.971 87.6562 126.172 87.6562H152.734C154.935 87.6562 156.719 85.8724 156.719 83.6719C156.719 81.4714 154.935 79.6875 152.734 79.6875Z" fill="#A9BA5A" stroke="#4C241D" stroke-linecap="round" stroke-linejoin="round"/>
<path d="M152.734 87.6562H126.172C123.971 87.6562 122.188 89.4401 122.188 91.6406C122.188 93.8411 123.971 95.625 126.172 95.625H152.734C154.935 95.625 156.719 93.8411 156.719 91.6406C156.719 89.4401 154.935 87.6562 152.734 87.6562Z" fill="#A9BA5A" stroke="#4C241D" stroke-linecap="round" stroke-linejoin="round"/>
<path d="M132.812 13.2812L135.469 79.6875" stroke="#4C241D" stroke-linecap="round" stroke-linejoin="round"/>
<path d="M146.094 13.2812L143.438 79.6875" stroke="#4C241D" stroke-linecap="round" stroke-linejoin="round"/>
<path d="M156.719 164.688L151.406 95.625H127.5L122.188 164.688H156.719Z" fill="#FFCE56" stroke="#4C241D" stroke-linecap="round" stroke-linejoin="round"/>
<path d="M132.812 164.688L135.469 98.2812" stroke="#4C241D" stroke-linecap="round" stroke-linejoin="round"/>
<path d="M146.094 164.688L143.438 98.2812" stroke="#4C241D" stroke-linecap="round" stroke-linejoin="round"/>
<path d="M164.688 164.688H10.625" stroke="#4C241D" stroke-linecap="round" stroke-linejoin="round"/>
</svg>
