<svg width="170" height="170" viewBox="0 0 170 170" fill="none" xmlns="http://www.w3.org/2000/svg">
<path d="M101.109 128.219C132.65 128.219 158.219 102.65 158.219 71.1094C158.219 39.5687 132.65 14 101.109 14C69.5687 14 44 39.5687 44 71.1094C44 102.65 69.5687 128.219 101.109 128.219Z" fill="#BFE7F4"/>
<path d="M138.125 37.1875C139.592 37.1875 140.781 35.9983 140.781 34.5312C140.781 33.0642 139.592 31.875 138.125 31.875C136.658 31.875 135.469 33.0642 135.469 34.5312C135.469 35.9983 136.658 37.1875 138.125 37.1875Z" fill="#4C241D"/>
<path d="M127.55 164.688H23.9062V89.4094L77.0312 45.1562L127.55 89.4094V164.688Z" fill="white" stroke="#4C241D" stroke-linecap="round" stroke-linejoin="round"/>
<path d="M55.7812 95.625H39.8438V122.188H55.7812V95.625Z" fill="#9DC1E4" stroke="#4C241D" stroke-linecap="round" stroke-linejoin="round"/>
<path d="M85 95.625H69.0625V122.188H85V95.625Z" fill="#9DC1E4" stroke="#4C241D" stroke-linecap="round" stroke-linejoin="round"/>
<path d="M87.6562 132.812H66.4062V164.688H87.6562V132.812Z" fill="#BF7E68" stroke="#4C241D" stroke-linecap="round" stroke-linejoin="round"/>
<path d="M111.562 95.625H95.625V122.188H111.562V95.625Z" fill="#9DC1E4" stroke="#4C241D" stroke-linecap="round" stroke-linejoin="round"/>
<path d="M156.118 164.688H123.996" stroke="#4C241D" stroke-linecap="round" stroke-linejoin="round"/>
<path d="M77.0312 47.8125L26.358 92.1055C25.2158 93.1009 23.8112 93.7465 22.312 93.9652C20.8128 94.1839 19.2823 93.9664 17.9034 93.3387C16.5245 92.711 15.3554 91.6996 14.5357 90.4254C13.7161 89.1511 13.2806 87.6679 13.2813 86.1528V86.1528L77.0312 31.875L140.781 86.1528V86.6442C140.78 88.1439 140.351 89.6121 139.546 90.8771C138.74 92.1422 137.591 93.1515 136.233 93.7872C134.875 94.4229 133.364 94.6585 131.876 94.4665C130.389 94.2745 128.987 93.6629 127.835 92.7031L77.0312 47.8125Z" fill="#E66353" stroke="#4C241D" stroke-linecap="round" stroke-linejoin="round"/>
<path d="M23.9062 26.5625V34.5312" stroke="#4C241D" stroke-linecap="round" stroke-linejoin="round"/>
<path d="M23.9062 45.1562V53.125" stroke="#4C241D" stroke-linecap="round" stroke-linejoin="round"/>
<path d="M18.5938 39.8438H10.625" stroke="#4C241D" stroke-linecap="round" stroke-linejoin="round"/>
<path d="M37.1875 39.8438H29.2188" stroke="#4C241D" stroke-linecap="round" stroke-linejoin="round"/>
<path d="M143.438 146.094H135.469V164.688H143.438V146.094Z" fill="#BF7E68" stroke="#4C241D" stroke-linecap="round" stroke-linejoin="round"/>
<path d="M79.6875 143.438V154.062" stroke="#4C241D" stroke-linecap="round" stroke-linejoin="round"/>
<path d="M103.594 26.5625C106.528 26.5625 108.906 24.184 108.906 21.25C108.906 18.316 106.528 15.9375 103.594 15.9375C100.66 15.9375 98.2812 18.316 98.2812 21.25C98.2812 24.184 100.66 26.5625 103.594 26.5625Z" stroke="#4C241D" stroke-linecap="round" stroke-linejoin="round"/>
<path d="M49.4514 146.718C47.6306 146.719 45.8533 147.275 44.3567 148.312C44.0167 147.068 43.2072 146.005 42.0988 145.346C40.9903 144.688 39.6695 144.485 38.4147 144.782C38.7271 143.461 38.7069 142.084 38.3558 140.774C38.0047 139.463 37.3338 138.261 36.4032 137.273C35.4726 136.286 34.3115 135.546 33.024 135.118C31.7366 134.69 30.363 134.589 29.0267 134.823C27.6904 135.057 26.4331 135.619 25.3676 136.459C24.3022 137.299 23.4619 138.39 22.9222 139.635C22.3825 140.879 22.1603 142.239 22.2755 143.59C22.3907 144.942 22.8397 146.244 23.5822 147.379C22.3535 146.883 21.0302 146.665 19.7072 146.741C18.3842 146.816 17.0943 147.184 15.9301 147.816C14.7658 148.449 13.7561 149.332 12.9732 150.401C12.1904 151.47 11.6538 152.699 11.402 154C11.1503 155.301 11.1895 156.642 11.517 157.926C11.8444 159.21 12.452 160.406 13.2961 161.427C14.1401 162.449 15.1998 163.271 16.3991 163.835C17.5984 164.398 18.9075 164.69 20.2327 164.688H49.4514C50.6443 164.708 51.8293 164.491 52.9374 164.049C54.0454 163.606 55.0543 162.948 55.9052 162.111C56.756 161.275 57.4318 160.278 57.8931 159.177C58.3544 158.077 58.592 156.896 58.592 155.703C58.592 154.51 58.3544 153.329 57.8931 152.228C57.4318 151.128 56.756 150.131 55.9052 149.294C55.0543 148.458 54.0454 147.799 52.9374 147.357C51.8293 146.915 50.6443 146.698 49.4514 146.718V146.718ZM155.701 128.124C153.881 128.125 152.103 128.681 150.607 129.718C150.267 128.474 149.457 127.411 148.349 126.753C147.24 126.094 145.92 125.892 144.665 126.188C144.977 124.868 144.957 123.491 144.606 122.18C144.255 120.87 143.584 119.667 142.653 118.68C141.723 117.693 140.561 116.952 139.274 116.524C137.987 116.096 136.613 115.995 135.277 116.229C133.94 116.463 132.683 117.025 131.618 117.865C130.552 118.705 129.712 119.796 129.172 121.041C128.633 122.286 128.41 123.645 128.525 124.997C128.641 126.348 129.09 127.65 129.832 128.786C128.603 128.289 127.28 128.071 125.957 128.147C124.634 128.222 123.344 128.59 122.18 129.223C121.016 129.856 120.006 130.738 119.223 131.807C118.44 132.877 117.904 134.106 117.652 135.407C117.4 136.708 117.44 138.048 117.767 139.332C118.094 140.616 118.702 141.812 119.546 142.834C120.39 143.855 121.45 144.677 122.649 145.241C123.848 145.805 125.158 146.096 126.483 146.094H155.701C156.894 146.114 158.079 145.897 159.187 145.455C160.295 145.012 161.304 144.354 162.155 143.518C163.006 142.681 163.682 141.684 164.143 140.584C164.604 139.483 164.842 138.302 164.842 137.109C164.842 135.916 164.604 134.735 164.143 133.635C163.682 132.534 163.006 131.537 162.155 130.701C161.304 129.864 160.295 129.206 159.187 128.763C158.079 128.321 156.894 128.104 155.701 128.124V128.124Z" fill="#A9BA5A" stroke="#4C241D" stroke-linecap="round" stroke-linejoin="round"/>
</svg>
