<svg width="58" height="58" viewBox="0 0 58 58" fill="none" xmlns="http://www.w3.org/2000/svg">
<path d="M34 21V49.249" stroke="#4C241D" stroke-linecap="round" stroke-linejoin="round"/>
<path d="M21.4762 23V57" stroke="#4C241D" stroke-width="2" stroke-linecap="round" stroke-linejoin="round"/>
<path d="M21.4762 37.5714L15.0502 27.441" stroke="#4C241D" stroke-width="2" stroke-linecap="round" stroke-linejoin="round"/>
<path d="M21.7174 37.0501L27.4488 31.3883" stroke="#4C241D" stroke-width="2" stroke-linecap="round" stroke-linejoin="round"/>
<path d="M21.4762 53.7619L15 40.8095" stroke="#4C241D" stroke-width="2" stroke-linecap="round" stroke-linejoin="round"/>
<path d="M44.0379 14.5783C41.2729 18.3773 37.0249 22.6003 33.8869 20.3163C30.7489 18.0323 31.8869 9.8023 34.6579 6.0033C37.4289 2.2043 42.1819 -0.833701 44.2739 2.3033C45.7539 4.5243 46.8029 10.7803 44.0379 14.5783Z" fill="#A9BA5A" stroke="#4C241D" stroke-linecap="round" stroke-linejoin="round"/>
<path d="M22.2488 9.89489C22.2488 9.89489 20.0287 6.19489 21.5087 4.71589C22.9887 3.23689 28.9087 3.23689 34.0847 12.8539C39.2607 22.4709 33.2847 21.8039 29.6458 18.7719C26.7325 16.2165 24.2367 13.2213 22.2488 9.89489V9.89489Z" fill="#A9BA5A" stroke="#4C241D" stroke-linecap="round" stroke-linejoin="round"/>
<path d="M54.306 17.5411C50.795 20.2231 42.806 24.9711 34 21.1181C34 21.1181 41.317 8.4801 54.059 14.7411C54.3098 14.8683 54.5241 15.0573 54.6817 15.2902C54.8393 15.5232 54.9349 15.7924 54.9596 16.0725C54.9844 16.3527 54.9373 16.6345 54.823 16.8914C54.7086 17.1484 54.5307 17.372 54.306 17.5411Z" fill="#A9BA5A" stroke="#4C241D" stroke-linecap="round" stroke-linejoin="round"/>
<path d="M19.069 14.0383C19.6594 14.0383 20.138 13.569 20.138 12.9901C20.138 12.4111 19.6594 11.9418 19.069 11.9418C18.4786 11.9418 18 12.4111 18 12.9901C18 13.569 18.4786 14.0383 19.069 14.0383Z" fill="#4C241D"/>
<path d="M1.069 20.0383C1.65939 20.0383 2.138 19.569 2.138 18.9901C2.138 18.4111 1.65939 17.9418 1.069 17.9418C0.478608 17.9418 0 18.4111 0 18.9901C0 19.569 0.478608 20.0383 1.069 20.0383Z" fill="#4C241D"/>
<path d="M10.069 32.6699C10.6594 32.6699 11.138 32.2006 11.138 31.6216C11.138 31.0427 10.6594 30.5734 10.069 30.5734C9.47861 30.5734 9 31.0427 9 31.6216C9 32.2006 9.47861 32.6699 10.069 32.6699Z" fill="#4C241D"/>
<path d="M11.5 13.903C12.8807 13.903 14 12.8054 14 11.4515C14 10.0976 12.8807 9 11.5 9C10.1193 9 9 10.0976 9 11.4515C9 12.8054 10.1193 13.903 11.5 13.903Z" stroke="#4C241D" stroke-linecap="round" stroke-linejoin="round"/>
<path d="M53 34.4958V36.457" stroke="#4C241D" stroke-linecap="round" stroke-linejoin="round"/>
<path d="M53 40.3795V42.3406" stroke="#4C241D" stroke-linecap="round" stroke-linejoin="round"/>
<path d="M49 38.4182H51" stroke="#4C241D" stroke-linecap="round" stroke-linejoin="round"/>
<path d="M55 38.4182H57" stroke="#4C241D" stroke-linecap="round" stroke-linejoin="round"/>
</svg>
