<svg width="170" height="170" viewBox="0 0 170 170" fill="none" xmlns="http://www.w3.org/2000/svg">
<path d="M62.4219 143.438C93.9625 143.438 119.531 117.869 119.531 86.3281C119.531 54.7875 93.9625 29.2188 62.4219 29.2188C30.8812 29.2188 5.3125 54.7875 5.3125 86.3281C5.3125 117.869 30.8812 143.438 62.4219 143.438Z" fill="#BFE7F4"/>
<path d="M108.906 164.688H13.2812V143.323C13.2816 138.613 14.6478 134.004 17.2144 130.055C19.781 126.105 23.4378 122.985 27.7419 121.072L61.0938 106.25L94.4456 121.072C98.7497 122.985 102.407 126.105 104.973 130.055C107.54 134.004 108.906 138.613 108.906 143.323V164.688Z" fill="#BF7E68" stroke="#4C241D" stroke-linecap="round" stroke-linejoin="round"/>
<path d="M50.4688 104.922H71.7188V110.234C71.7188 113.052 70.5993 115.755 68.6068 117.747C66.6142 119.74 63.9117 120.859 61.0938 120.859C58.2758 120.859 55.5733 119.74 53.5807 117.747C51.5882 115.755 50.4688 113.052 50.4688 110.234V104.922Z" fill="#E7D1C4" stroke="#4C241D" stroke-width="2" stroke-linecap="round" stroke-linejoin="round"/>
<path d="M71.7188 114.219H47.8125V164.688H71.7188V114.219Z" fill="white" stroke="#4C241D" stroke-linecap="round" stroke-linejoin="round"/>
<path d="M50.4688 100.938H69.0625V112.891C69.0625 115.356 68.083 117.721 66.3395 119.465C64.596 121.208 62.2313 122.188 59.7656 122.188V122.188C57.2999 122.188 54.9352 121.208 53.1917 119.465C51.4482 117.721 50.4688 115.356 50.4688 112.891V100.938Z" fill="#FFE8DC" stroke="#4C241D" stroke-linecap="round" stroke-linejoin="round"/>
<path d="M9.11625 115.058V109.945C9.07927 107.946 9.83744 106.014 11.2241 104.574C12.6108 103.134 14.5125 102.304 16.5113 102.266V102.266C18.51 102.304 20.4117 103.134 21.7984 104.574C23.1851 106.014 23.9432 107.946 23.9063 109.945V164.688" stroke="#4C241D" stroke-linecap="round" stroke-linejoin="round"/>
<path d="M95.625 137.96H127.5C134.545 137.96 141.301 140.759 146.283 145.74C151.264 150.722 154.062 157.478 154.062 164.523V164.687H95.625V137.96Z" fill="white" stroke="#4C241D" stroke-linecap="round" stroke-linejoin="round"/>
<path d="M95.625 116.875H122.188V138.125C122.188 141.647 120.788 145.026 118.298 147.516C115.807 150.007 112.429 151.406 108.906 151.406V151.406C105.384 151.406 102.006 150.007 99.515 147.516C97.0243 145.026 95.625 141.647 95.625 138.125V116.875Z" fill="#FFE8DC" stroke="#4C241D" stroke-linecap="round" stroke-linejoin="round"/>
<path d="M122.188 119.531H135.469V120.076C135.469 122.045 134.687 123.933 133.294 125.325C131.902 126.718 130.014 127.5 128.045 127.5H122.188V119.531Z" fill="#FFDED5" stroke="#4C241D" stroke-linecap="round" stroke-linejoin="round"/>
<path d="M95.625 127.5H89.768C87.7989 127.5 85.9106 126.718 84.5183 125.325C83.1259 123.933 82.3438 122.045 82.3438 120.076V119.531H95.625V127.5Z" fill="#FFDED5" stroke="#4C241D" stroke-linecap="round" stroke-linejoin="round"/>
<path d="M121.895 108.269C121.848 105.019 120.523 101.919 118.208 99.6373C115.893 97.356 112.774 96.0772 109.524 96.0772C106.274 96.0772 103.154 97.356 100.839 99.6373C98.5243 101.919 97.2 105.019 97.1524 108.269C97.1524 108.431 97.1948 108.58 97.2002 108.739C96.394 108.436 95.5407 108.276 94.6794 108.269C93.3017 108.262 91.9494 108.639 90.7737 109.357C89.598 110.075 88.6452 111.106 88.0221 112.335C87.3989 113.563 87.1299 114.941 87.2452 116.314C87.3604 117.687 87.8554 119 88.6747 120.108C89.494 121.216 90.6053 122.073 91.8843 122.585C93.1632 123.097 94.5595 123.243 95.9167 123.007C97.2739 122.771 98.5387 122.162 99.5694 121.247C100.6 120.333 101.356 119.151 101.753 117.831C103.621 119.399 105.922 120.363 108.35 120.595C110.778 120.827 113.219 120.316 115.35 119.13C115.962 120.292 116.872 121.27 117.986 121.964C119.101 122.659 120.379 123.045 121.692 123.082C123.004 123.12 124.303 122.808 125.456 122.179C126.608 121.549 127.572 120.625 128.25 119.501C128.928 118.376 129.294 117.092 129.312 115.779C129.33 114.466 128.999 113.172 128.352 112.029C127.706 110.886 126.767 109.936 125.633 109.275C124.498 108.614 123.208 108.267 121.895 108.269V108.269Z" fill="white" stroke="#4C241D" stroke-linecap="round" stroke-linejoin="round"/>
<path d="M106.25 135.469L111.998 135.487" stroke="#4C241D" stroke-width="2" stroke-linecap="round" stroke-linejoin="round"/>
<path d="M108.906 135.469V140.781" stroke="#4C241D" stroke-width="2" stroke-linecap="round" stroke-linejoin="round"/>
<path d="M34.5312 163.359V144.766" stroke="#4C241D" stroke-linecap="round" stroke-linejoin="round"/>
<path d="M91.9726 71.137C91.7257 69.824 91.6649 68.4827 91.792 67.1527C91.8246 65.3668 91.2524 63.6223 90.1684 62.2026C89.0844 60.783 87.5522 59.7716 85.8208 59.3327C68.2659 55.1325 49.905 55.727 32.6586 61.0539C31.576 61.4005 30.6363 62.0911 29.9823 63.0208C29.3283 63.9505 28.9958 65.0684 29.0355 66.2044C29.199 67.8446 29.149 69.4991 28.8867 71.1264C28.0375 71.1258 27.1969 71.2966 26.4154 71.6287C25.6338 71.9607 24.9273 72.4471 24.3382 73.0588C23.7491 73.6704 23.2896 74.3947 22.9871 75.1882C22.6847 75.9817 22.5456 76.8281 22.5781 77.6767C22.6544 78.6804 22.964 79.6524 23.4824 80.5152C24.0007 81.3781 24.7134 82.1079 25.5637 82.6466C26.3163 83.205 27.1964 83.5665 28.1242 83.6983C29.052 83.83 29.998 83.7278 30.8762 83.4009C32.1228 89.4936 34.966 95.1456 39.1148 99.7784C43.2636 104.411 48.5689 107.858 54.4876 109.767C58.0154 110.862 61.798 110.821 65.3012 109.65L66.4222 109.289C72.2551 107.395 77.4897 104.005 81.6045 99.4579C85.7194 94.9105 88.5706 89.3643 89.8742 83.3717C90.7376 83.704 91.6684 83.8232 92.5877 83.7191C93.5069 83.6151 94.3875 83.2909 95.1548 82.7741C95.9666 82.2934 96.6623 81.6394 97.1921 80.8588C97.722 80.0782 98.073 79.1903 98.2201 78.2584C98.3356 77.3695 98.2604 76.4662 97.9994 75.6087C97.7384 74.7511 97.2976 73.9591 96.7065 73.2852C96.1153 72.6114 95.3874 72.0713 94.5711 71.7009C93.7548 71.3305 92.869 71.1382 91.9726 71.137Z" fill="#FFE8DC" stroke="#4C241D" stroke-linecap="round" stroke-linejoin="round"/>
<path d="M91.9727 49.6878C91.9727 21.93 28.8867 16.8831 29.0195 54.3177C29.0328 57.9541 29.1125 61.9013 29.0753 64.6292C32.284 64.8291 35.4998 64.3715 38.5254 63.2844C41.5509 62.1974 44.3226 60.5037 46.6703 58.3073C54.0122 72.5661 74.4786 78.4125 91.9673 64.7514L91.9727 49.6878Z" fill="#FFCE56" stroke="#4C241D" stroke-linecap="round" stroke-linejoin="round"/>
<path d="M131.957 26.2969L151.234 31.875L131.957 37.4531L124.844 58.2648L117.73 37.4531L98.4539 31.875L117.73 26.2969L124.844 5.48516L131.957 26.2969Z" fill="#FFCE56" stroke="#4C241D" stroke-linecap="round" stroke-linejoin="round"/>
<path d="M153.077 70.983L164.799 74.375L153.077 77.767L148.75 90.4241L144.423 77.767L132.701 74.375L144.423 70.983L148.75 58.3259L153.077 70.983Z" fill="#FFCE56" stroke="#4C241D" stroke-linecap="round" stroke-linejoin="round"/>
<path d="M62.1934 97.0036C61.1839 97.9863 59.8253 98.5277 58.4166 98.5087C57.0079 98.4898 55.6644 97.9121 54.6816 96.9026" stroke="#4C241D" stroke-linecap="round" stroke-linejoin="round"/>
</svg>
