<svg width="170" height="170" viewBox="0 0 170 170" fill="none" xmlns="http://www.w3.org/2000/svg">
<g clip-path="url(#clip0_683_963)">
<path d="M62.1094 119.219C93.65 119.219 119.219 93.65 119.219 62.1094C119.219 30.5687 93.65 5 62.1094 5C30.5687 5 5 30.5687 5 62.1094C5 93.65 30.5687 119.219 62.1094 119.219Z" fill="#BFE7F4"/>
<path d="M119.619 40.9301L102.531 68.5312C106.493 71.4211 109.736 75.1858 112.007 79.5325C114.277 83.8793 115.515 88.6911 115.624 93.594C115.732 98.497 114.709 103.359 112.633 107.802C110.557 112.245 107.485 116.15 103.655 119.212L120.764 146.837C129.279 140.83 136.208 132.844 140.954 123.566C145.7 114.288 148.121 103.997 148.008 93.5759C147.896 83.1553 145.254 72.9179 140.309 63.7446C135.364 54.5712 128.265 46.7364 119.622 40.9142L119.619 40.9301Z" fill="#FC8C29" stroke="#4C241D" stroke-linecap="round" stroke-linejoin="round"/>
<path d="M120.761 146.853L103.652 119.228C97.9894 123.784 90.9398 126.268 83.6719 126.268C76.404 126.268 69.3544 123.784 63.6916 119.228L46.5827 146.853C57.4317 154.518 70.3887 158.633 83.6719 158.633C96.955 158.633 109.912 154.518 120.761 146.853V146.853Z" fill="#F53E28" stroke="#4C241D" stroke-linecap="round" stroke-linejoin="round"/>
<path d="M19.3348 94.2969C19.3289 104.6 21.8014 114.754 26.5437 123.901C31.286 133.048 38.159 140.92 46.5827 146.853L63.6916 119.228C59.8582 116.166 56.783 112.261 54.705 107.816C52.6271 103.372 51.6025 98.5077 51.711 93.6026C51.8194 88.6974 53.058 83.8835 55.3304 79.5351C57.6027 75.1867 60.8475 71.4211 64.8125 68.5313L47.7248 40.9302C38.9797 46.8159 31.8162 54.7619 26.8655 64.0682C21.9147 73.3746 19.3285 83.7556 19.3348 94.2969V94.2969Z" fill="#FFCE56" stroke="#4C241D" stroke-linecap="round" stroke-linejoin="round"/>
<path d="M94.4217 30.8524C90.8695 30.2561 87.2738 29.9567 83.6719 29.9572C70.8617 29.9372 58.34 33.7595 47.7248 40.9302L64.8125 68.5313C70.1309 64.6115 76.5388 62.4468 83.1448 62.3383C89.7507 62.2297 96.2263 64.1827 101.671 67.9257C101.781 68.0031 101.905 68.0572 102.037 68.0847C102.169 68.1122 102.305 68.1125 102.436 68.0856C102.568 68.0588 102.693 68.0053 102.804 67.9285C102.914 67.8516 103.007 67.7531 103.078 67.6388L119.616 40.9249C116.586 38.8794 113.387 37.0959 110.054 35.5938" fill="#A9BA5A"/>
<path d="M94.4217 30.8524C90.8695 30.2561 87.2738 29.9567 83.6719 29.9572C70.8617 29.9372 58.34 33.7595 47.7248 40.9302L64.8125 68.5313C70.1309 64.6115 76.5388 62.4468 83.1448 62.3383C89.7507 62.2297 96.2263 64.1827 101.671 67.9257C101.781 68.0031 101.905 68.0572 102.037 68.0847C102.169 68.1122 102.305 68.1125 102.436 68.0856C102.568 68.0588 102.693 68.0053 102.804 67.9285C102.914 67.8516 103.007 67.7531 103.078 67.6388L119.616 40.9249C116.586 38.8794 113.387 37.0959 110.054 35.5938" stroke="#4C241D" stroke-linecap="round" stroke-linejoin="round"/>
<path d="M134.143 15.9375L131.487 18.5938" stroke="#4C241D" stroke-linecap="round" stroke-linejoin="round"/>
<path d="M123.513 26.5676L120.857 29.2239" stroke="#4C241D" stroke-linecap="round" stroke-linejoin="round"/>
<path d="M120.857 15.9375L123.513 18.5938" stroke="#4C241D" stroke-linecap="round" stroke-linejoin="round"/>
<path d="M131.487 26.5676L134.143 29.2239" stroke="#4C241D" stroke-linecap="round" stroke-linejoin="round"/>
<path d="M166.016 37.3734C167.584 37.3734 168.855 36.1021 168.855 34.5339C168.855 32.9656 167.584 31.6943 166.016 31.6943C164.447 31.6943 163.176 32.9656 163.176 34.5339C163.176 36.1021 164.447 37.3734 166.016 37.3734Z" fill="#4C241D"/>
<path d="M66.5895 170.367C68.1578 170.367 69.4291 169.095 69.4291 167.527C69.4291 165.959 68.1578 164.688 66.5895 164.688C65.0213 164.688 63.75 165.959 63.75 167.527C63.75 169.095 65.0213 170.367 66.5895 170.367Z" fill="#4C241D"/>
<path d="M11.9531 143.438C15.6206 143.438 18.5938 140.464 18.5938 136.797C18.5938 133.129 15.6206 130.156 11.9531 130.156C8.28561 130.156 5.3125 133.129 5.3125 136.797C5.3125 140.464 8.28561 143.438 11.9531 143.438Z" stroke="#4C241D" stroke-linecap="round" stroke-linejoin="round"/>
</g>
<defs>
<clipPath id="clip0_683_963">
<rect width="170" height="170" fill="white"/>
</clipPath>
</defs>
</svg>
