<svg width="170" height="170" viewBox="0 0 170 170" fill="none" xmlns="http://www.w3.org/2000/svg">
<path d="M107.578 159.375C139.119 159.375 164.688 133.806 164.688 102.266C164.688 70.725 139.119 45.1562 107.578 45.1562C76.0375 45.1562 50.4688 70.725 50.4688 102.266C50.4688 133.806 76.0375 159.375 107.578 159.375Z" fill="#BFE7F4"/>
<path d="M39.8438 110.136V113.895" stroke="#604225" stroke-width="2" stroke-linecap="round" stroke-linejoin="round"/>
<path d="M39.8438 125.168V128.926" stroke="#604225" stroke-width="2" stroke-linecap="round" stroke-linejoin="round"/>
<path d="M30.4486 119.531H34.2072" stroke="#604225" stroke-width="2" stroke-linecap="round" stroke-linejoin="round"/>
<path d="M45.4803 119.531H49.2389" stroke="#604225" stroke-width="2" stroke-linecap="round" stroke-linejoin="round"/>
<path d="M58.828 31.0011C61.8867 31.0011 64.3663 28.5215 64.3663 25.4628C64.3663 22.4041 61.8867 19.9245 58.828 19.9245C55.7693 19.9245 53.2897 22.4041 53.2897 25.4628C53.2897 28.5215 55.7693 31.0011 58.828 31.0011Z" stroke="#604225" stroke-linecap="round" stroke-linejoin="round"/>
<path d="M132.812 132.812C134.28 132.812 135.469 131.623 135.469 130.156C135.469 128.689 134.28 127.5 132.812 127.5C131.345 127.5 130.156 128.689 130.156 130.156C130.156 131.623 131.345 132.812 132.812 132.812Z" fill="#604225"/>
<path d="M23.9062 92.9688H56.2089L84.3652 96.4723C88.1739 96.9865 92.0128 97.2438 95.8561 97.2427L142.109 98.2812C143.871 98.2812 145.56 97.5816 146.805 96.3363C148.05 95.0909 148.75 93.4018 148.75 91.6406C148.75 89.8794 148.05 88.1903 146.805 86.945C145.56 85.6996 143.871 85 142.109 85H143.438C145.551 85 147.578 84.1604 149.072 82.666C150.567 81.1716 151.406 79.1447 151.406 77.0312C151.406 74.9178 150.567 72.8909 149.072 71.3965C147.578 69.9021 145.551 69.0625 143.438 69.0625H148.75C150.863 69.0625 152.89 68.2229 154.385 66.7285C155.879 65.2341 156.719 63.2072 156.719 61.0938C156.719 58.9803 155.879 56.9534 154.385 55.459C152.89 53.9646 150.863 53.125 148.75 53.125H146.094C148.207 53.125 150.234 52.2854 151.729 50.791C153.223 49.2966 154.062 47.2697 154.062 45.1562C154.062 43.0428 153.223 41.0159 151.729 39.5215C150.234 38.0271 148.207 37.1875 146.094 37.1875H141.073L134.42 27.8322C134.42 27.8322 114.219 18.5938 108.906 18.5938C105.101 18.7788 101.416 19.9884 98.2414 22.0947L75.3073 44.1177L56.2089 47.8125H23.9062" fill="#FFE8DC"/>
<path d="M23.9062 92.9688H56.2089L84.3652 96.4723C88.1739 96.9865 92.0128 97.2438 95.8561 97.2427L142.109 98.2812C143.871 98.2812 145.56 97.5816 146.805 96.3363C148.05 95.0909 148.75 93.4018 148.75 91.6406C148.75 89.8794 148.05 88.1903 146.805 86.945C145.56 85.6996 143.871 85 142.109 85H143.438C145.551 85 147.578 84.1604 149.072 82.666C150.567 81.1716 151.406 79.1447 151.406 77.0312C151.406 74.9178 150.567 72.8909 149.072 71.3965C147.578 69.9021 145.551 69.0625 143.438 69.0625H148.75C150.863 69.0625 152.89 68.2229 154.385 66.7285C155.879 65.2341 156.719 63.2072 156.719 61.0938C156.719 58.9803 155.879 56.9534 154.385 55.459C152.89 53.9646 150.863 53.125 148.75 53.125H146.094C148.207 53.125 150.234 52.2854 151.729 50.791C153.223 49.2966 154.062 47.2697 154.062 45.1562C154.062 43.0428 153.223 41.0159 151.729 39.5215C150.234 38.0271 148.207 37.1875 146.094 37.1875H141.073L134.42 27.8322C134.42 27.8322 114.219 18.5938 108.906 18.5938C105.101 18.7788 101.416 19.9884 98.2414 22.0947L75.3073 44.1177L56.2089 47.8125H23.9062" stroke="#604225" stroke-linecap="round" stroke-linejoin="round"/>
<path d="M140.781 37.1875H119.531" stroke="#604225" stroke-linecap="round" stroke-linejoin="round"/>
<path d="M146.094 53.125H140.781" stroke="#604225" stroke-linecap="round" stroke-linejoin="round"/>
<path d="M140.781 85H135.469" stroke="#604225" stroke-linecap="round" stroke-linejoin="round"/>
<path d="M143.438 69.0625H138.125" stroke="#604225" stroke-linecap="round" stroke-linejoin="round"/>
<path d="M132.812 116.875C135.747 116.875 138.125 114.497 138.125 111.562C138.125 108.628 135.747 106.25 132.812 106.25C129.878 106.25 127.5 108.628 127.5 111.562C127.5 114.497 129.878 116.875 132.812 116.875Z" fill="#604225"/>
<path d="M100.938 135.469C103.872 135.469 106.25 133.09 106.25 130.156C106.25 127.222 103.872 124.844 100.938 124.844C98.0035 124.844 95.625 127.222 95.625 130.156C95.625 133.09 98.0035 135.469 100.938 135.469Z" fill="#604225"/>
<path d="M96.9531 116.875C99.1536 116.875 100.938 115.091 100.938 112.891C100.938 110.69 99.1536 108.906 96.9531 108.906C94.7526 108.906 92.9688 110.69 92.9688 112.891C92.9688 115.091 94.7526 116.875 96.9531 116.875Z" fill="#604225"/>
<path d="M126.172 148.75C128.372 148.75 130.156 146.966 130.156 144.766C130.156 142.565 128.372 140.781 126.172 140.781C123.971 140.781 122.188 142.565 122.188 144.766C122.188 146.966 123.971 148.75 126.172 148.75Z" fill="#604225"/>
<path d="M118.203 127.5C120.404 127.5 122.188 125.716 122.188 123.516C122.188 121.315 120.404 119.531 118.203 119.531C116.003 119.531 114.219 121.315 114.219 123.516C114.219 125.716 116.003 127.5 118.203 127.5Z" fill="#604225"/>
<path d="M114.219 143.438C115.686 143.438 116.875 142.248 116.875 140.781C116.875 139.314 115.686 138.125 114.219 138.125C112.752 138.125 111.562 139.314 111.562 140.781C111.562 142.248 112.752 143.438 114.219 143.438Z" fill="#604225"/>
<path d="M106.25 119.531C107.717 119.531 108.906 118.342 108.906 116.875C108.906 115.408 107.717 114.219 106.25 114.219C104.783 114.219 103.594 115.408 103.594 116.875C103.594 118.342 104.783 119.531 106.25 119.531Z" fill="#604225"/>
<path d="M114.219 159.375C115.686 159.375 116.875 158.186 116.875 156.719C116.875 155.252 115.686 154.062 114.219 154.062C112.752 154.062 111.562 155.252 111.562 156.719C111.562 158.186 112.752 159.375 114.219 159.375Z" fill="#604225"/>
<path d="M114.219 108.906C115.686 108.906 116.875 107.717 116.875 106.25C116.875 104.783 115.686 103.594 114.219 103.594C112.752 103.594 111.562 104.783 111.562 106.25C111.562 107.717 112.752 108.906 114.219 108.906Z" fill="#604225"/>
<path d="M103.594 151.406C105.061 151.406 106.25 150.217 106.25 148.75C106.25 147.283 105.061 146.094 103.594 146.094C102.127 146.094 100.938 147.283 100.938 148.75C100.938 150.217 102.127 151.406 103.594 151.406Z" fill="#604225"/>
</svg>
