<svg width="64" height="64" viewBox="0 0 64 64" fill="none" xmlns="http://www.w3.org/2000/svg">
<path d="M52 14C52.5523 14 53 13.5523 53 13C53 12.4477 52.5523 12 52 12C51.4477 12 51 12.4477 51 13C51 13.5523 51.4477 14 52 14Z" fill="#4C241D"/>
<path d="M48.019 62H9V33.66L29 17L48.019 33.66V62Z" fill="white" stroke="#4C241D" stroke-linecap="round" stroke-linejoin="round"/>
<path d="M21 36H15V46H21V36Z" fill="#9DC1E4" stroke="#4C241D" stroke-linecap="round" stroke-linejoin="round"/>
<path d="M32 36H26V46H32V36Z" fill="#9DC1E4" stroke="#4C241D" stroke-linecap="round" stroke-linejoin="round"/>
<path d="M33 50H25V62H33V50Z" fill="#BF7E68" stroke="#4C241D" stroke-linecap="round" stroke-linejoin="round"/>
<path d="M42 36H36V46H42V36Z" fill="#9DC1E4" stroke="#4C241D" stroke-linecap="round" stroke-linejoin="round"/>
<path d="M58.774 62H46.681" stroke="#4C241D" stroke-linecap="round" stroke-linejoin="round"/>
<path d="M29 18L9.923 34.675C9.493 35.0497 8.96422 35.2928 8.39981 35.3751C7.83541 35.4575 7.25923 35.3756 6.7401 35.1393C6.22098 34.9029 5.78085 34.5222 5.47228 34.0425C5.16372 33.5628 4.99976 33.0044 5 32.434V32.434L29 12L53 32.434V32.619C52.9995 33.1836 52.8382 33.7363 52.5349 34.2126C52.2317 34.6888 51.7991 35.0688 51.2878 35.3081C50.7764 35.5474 50.2075 35.6361 49.6475 35.5639C49.0876 35.4916 48.5598 35.2613 48.126 34.9L29 18Z" fill="#E66353" stroke="#4C241D" stroke-linecap="round" stroke-linejoin="round"/>
<path d="M9 10V13" stroke="#4C241D" stroke-linecap="round" stroke-linejoin="round"/>
<path d="M9 17V20" stroke="#4C241D" stroke-linecap="round" stroke-linejoin="round"/>
<path d="M7 15H4" stroke="#4C241D" stroke-linecap="round" stroke-linejoin="round"/>
<path d="M14 15H11" stroke="#4C241D" stroke-linecap="round" stroke-linejoin="round"/>
<path d="M54 55H51V62H54V55Z" fill="#BF7E68" stroke="#4C241D" stroke-linecap="round" stroke-linejoin="round"/>
<path d="M30 54V58" stroke="#4C241D" stroke-linecap="round" stroke-linejoin="round"/>
<path d="M39 10C40.1046 10 41 9.10457 41 8C41 6.89543 40.1046 6 39 6C37.8954 6 37 6.89543 37 8C37 9.10457 37.8954 10 39 10Z" stroke="#4C241D" stroke-linecap="round" stroke-linejoin="round"/>
<path d="M18.617 55.2349C17.9315 55.2351 17.2624 55.4444 16.699 55.8349C16.571 55.3667 16.2662 54.9665 15.8489 54.7186C15.4316 54.4706 14.9344 54.3944 14.462 54.5059C14.5796 54.0089 14.572 53.4905 14.4398 52.9971C14.3077 52.5038 14.0551 52.051 13.7047 51.6793C13.3544 51.3077 12.9173 51.0288 12.4326 50.8678C11.9479 50.7068 11.4308 50.6686 10.9277 50.7567C10.4246 50.8448 9.95127 51.0565 9.55016 51.3726C9.14905 51.6888 8.8327 52.0996 8.62953 52.5682C8.42635 53.0368 8.34269 53.5485 8.38605 54.0574C8.42942 54.5663 8.59845 55.0565 8.87799 55.4839C8.41541 55.2971 7.91722 55.215 7.41916 55.2434C6.9211 55.2719 6.4355 55.4102 5.9972 55.6484C5.55889 55.8867 5.17875 56.219 4.88402 56.6215C4.5893 57.024 4.3873 57.4867 4.29251 57.9765C4.19773 58.4663 4.21251 58.971 4.33579 59.4544C4.45907 59.9378 4.68779 60.3879 5.00556 60.7725C5.32333 61.1571 5.72227 61.4666 6.17376 61.6788C6.62526 61.891 7.11811 62.0007 7.61699 61.9999H18.617C19.0661 62.0076 19.5122 61.9258 19.9294 61.7593C20.3465 61.5928 20.7263 61.3449 21.0466 61.03C21.367 60.7152 21.6214 60.3397 21.795 59.9255C21.9687 59.5112 22.0581 59.0666 22.0581 58.6174C22.0581 58.1683 21.9687 57.7236 21.795 57.3094C21.6214 56.8951 21.367 56.5197 21.0466 56.2048C20.7263 55.8899 20.3465 55.642 19.9294 55.4755C19.5122 55.309 19.0661 55.2272 18.617 55.2349V55.2349ZM58.617 48.2349C57.9315 48.2351 57.2624 48.4444 56.699 48.8349C56.571 48.3667 56.2662 47.9665 55.8489 47.7186C55.4316 47.4706 54.9344 47.3944 54.462 47.5059C54.5796 47.0089 54.572 46.4905 54.4398 45.9971C54.3077 45.5038 54.0551 45.051 53.7047 44.6793C53.3544 44.3077 52.9173 44.0288 52.4326 43.8678C51.9479 43.7068 51.4308 43.6686 50.9277 43.7567C50.4246 43.8448 49.9513 44.0565 49.5502 44.3726C49.149 44.6888 48.8327 45.0996 48.6295 45.5682C48.4263 46.0368 48.3427 46.5485 48.3861 47.0574C48.4294 47.5663 48.5985 48.0565 48.878 48.4839C48.4154 48.2971 47.9172 48.215 47.4192 48.2434C46.9211 48.2719 46.4355 48.4102 45.9972 48.6484C45.5589 48.8867 45.1787 49.219 44.884 49.6215C44.5893 50.024 44.3873 50.4867 44.2925 50.9765C44.1977 51.4663 44.2125 51.971 44.3358 52.4544C44.4591 52.9378 44.6878 53.3879 45.0056 53.7725C45.3233 54.1571 45.7223 54.4666 46.1738 54.6788C46.6253 54.891 47.1181 55.0007 47.617 54.9999H58.617C59.0661 55.0076 59.5122 54.9258 59.9294 54.7593C60.3465 54.5928 60.7263 54.3449 61.0466 54.03C61.367 53.7152 61.6214 53.3397 61.795 52.9255C61.9687 52.5112 62.0582 52.0666 62.0582 51.6174C62.0582 51.1683 61.9687 50.7236 61.795 50.3094C61.6214 49.8951 61.367 49.5197 61.0466 49.2048C60.7263 48.8899 60.3465 48.642 59.9294 48.4755C59.5122 48.309 59.0661 48.2272 58.617 48.2349V48.2349Z" fill="#A9BA5A" stroke="#4C241D" stroke-linecap="round" stroke-linejoin="round"/>
</svg>
