<svg width="170" height="170" viewBox="0 0 170 170" fill="none" xmlns="http://www.w3.org/2000/svg">
<path d="M105.109 128.219C136.65 128.219 162.219 102.65 162.219 71.1094C162.219 39.5687 136.65 14 105.109 14C73.5687 14 48 39.5687 48 71.1094C48 102.65 73.5687 128.219 105.109 128.219Z" fill="#BFE7F4"/>
<path d="M111.068 124.711C106.644 122.057 101.582 120.654 96.4219 120.652H78.8906C73.7283 120.652 68.663 122.055 64.2361 124.711L61.4975 126.355L85.5684 146.662L111.068 124.711Z" fill="white" stroke="#4C241D" stroke-linecap="round" stroke-linejoin="round"/>
<path d="M124.235 132.613L85.5764 165.391L48.9255 134.571L34.5312 151.866V159.375H140.781V151.866L124.235 132.613Z" fill="white" stroke="#4C241D" stroke-linecap="round" stroke-linejoin="round"/>
<path d="M77.0312 111.562H95.625V118.203C95.625 120.669 94.6455 123.034 92.902 124.777C91.1585 126.521 88.7938 127.5 86.3281 127.5C83.8624 127.5 81.4977 126.521 79.7542 124.777C78.0107 123.034 77.0312 120.669 77.0312 118.203V111.562Z" fill="#FFE8DC" stroke="#4C241D" stroke-linecap="round" stroke-linejoin="round"/>
<path d="M124.235 132.613L111.068 124.711L85.5764 146.662L61.5055 126.355L48.9255 134.571L85.5764 165.391L124.235 132.613Z" fill="#FFCE56" stroke="#4C241D" stroke-linecap="round" stroke-linejoin="round"/>
<path d="M112.625 82.1553C112.421 81.0751 112.371 79.9718 112.474 78.8775C112.501 77.4047 112.029 75.9661 111.135 74.7955C110.241 73.625 108.977 72.7915 107.549 72.4307C93.0762 68.9688 77.9393 69.4587 63.7208 73.8492C62.8278 74.1355 62.0528 74.7056 61.5134 75.4727C60.974 76.2398 60.6998 77.162 60.7325 78.0992C60.867 79.4508 60.826 80.8142 60.6103 82.1553C59.9112 82.1555 59.2194 82.2966 58.5761 82.5702C57.9327 82.8437 57.3511 83.2441 56.866 83.7473C56.3808 84.2506 56.002 84.8465 55.7522 85.4994C55.5024 86.1523 55.3867 86.8489 55.412 87.5475C55.475 88.3755 55.7304 89.1775 56.1579 89.8895C56.5854 90.6014 57.1731 91.2038 57.8744 91.6487C58.4954 92.1101 59.2222 92.4085 59.9883 92.5166C60.7544 92.6247 61.5353 92.5391 62.2598 92.2676C63.2871 97.292 65.6314 101.953 69.0527 105.773C72.4739 109.594 76.8491 112.436 81.7301 114.009C84.6387 114.914 87.7581 114.881 90.6472 113.916L91.5715 113.616C96.381 112.054 100.697 109.259 104.09 105.51C107.483 101.761 109.834 97.1875 110.909 92.2464C111.621 92.5194 112.388 92.617 113.146 92.531C113.904 92.445 114.63 92.1779 115.263 91.7523C115.934 91.3554 116.509 90.815 116.946 90.1698C117.384 89.5246 117.673 88.7905 117.794 88.0203C117.888 87.2865 117.824 86.5412 117.607 85.8341C117.39 85.1269 117.025 84.4741 116.535 83.9192C116.046 83.3642 115.445 82.9199 114.77 82.6157C114.096 82.3116 113.365 82.1546 112.625 82.1553V82.1553Z" fill="#FFE8DC" stroke="#4C241D" stroke-linecap="round" stroke-linejoin="round"/>
<path d="M111.562 72.5156C111.562 39.4878 60.9822 41.5703 61.0938 68.2656C61.0938 71.2645 61.1681 74.5184 61.1389 76.7656C63.7233 76.9251 66.3125 76.5437 68.7411 75.6459C71.1698 74.7481 73.3844 73.3536 75.2436 71.5514C81.1325 83.3106 97.5402 88.1317 111.562 76.8639V72.5156Z" fill="#6B4F5B" stroke="#4C241D" stroke-linecap="round" stroke-linejoin="round"/>
<path d="M88.5169 101.963C88.1256 102.344 87.6629 102.645 87.1554 102.847C86.6479 103.05 86.1055 103.15 85.5591 103.143C85.0127 103.136 84.4731 103.021 83.9711 102.806C83.4691 102.59 83.0145 102.277 82.6333 101.886" stroke="#4C241D" stroke-linecap="round" stroke-linejoin="round"/>
<path d="M112.298 52.862L118.95 24.6234L92.9688 5.3125L93.8984 43.6608L112.298 52.862Z" fill="white" stroke="#4C241D" stroke-linecap="round" stroke-linejoin="round"/>
<path d="M79.6875 5.3125L54.4744 21.6723L59.8373 53.2073L79.1987 44.702L79.6875 5.3125Z" fill="white" stroke="#4C241D" stroke-linecap="round" stroke-linejoin="round"/>
<path d="M92.9687 42.5V5.3125H79.6875V42.5L59.8373 53.2073L61.0937 61.0938H111.562L112.298 52.862L92.9687 42.5Z" fill="#FFCE56" stroke="#4C241D" stroke-linecap="round" stroke-linejoin="round"/>
<path d="M162.215 29.4752C163.783 29.4752 165.054 28.2286 165.054 26.6907C165.054 25.1529 163.783 23.9062 162.215 23.9062C160.646 23.9062 159.375 25.1529 159.375 26.6907C159.375 28.2286 160.646 29.4752 162.215 29.4752Z" fill="#4C241D"/>
<path d="M2.83953 50.5704C4.40776 50.5704 5.67906 49.3238 5.67906 47.786C5.67906 46.2481 4.40776 45.0015 2.83953 45.0015C1.2713 45.0015 0 46.2481 0 47.786C0 49.3238 1.2713 50.5704 2.83953 50.5704Z" fill="#4C241D"/>
<path d="M26.7458 84.1231C28.314 84.1231 29.5853 82.8765 29.5853 81.3388C29.5853 79.801 28.314 78.5544 26.7458 78.5544C25.1776 78.5544 23.9062 79.801 23.9062 81.3388C23.9062 82.8765 25.1776 84.1231 26.7458 84.1231Z" fill="#4C241D"/>
<path d="M30.5469 34.2736C34.2144 34.2736 37.1875 31.3582 37.1875 27.7618C37.1875 24.1654 34.2144 21.25 30.5469 21.25C26.8794 21.25 23.9062 24.1654 23.9062 27.7618C23.9062 31.3582 26.8794 34.2736 30.5469 34.2736Z" stroke="#4C241D" stroke-linecap="round" stroke-linejoin="round"/>
<path d="M140.781 88.9731V94.1827" stroke="#4C241D" stroke-linecap="round" stroke-linejoin="round"/>
<path d="M140.781 104.602V109.811" stroke="#4C241D" stroke-linecap="round" stroke-linejoin="round"/>
<path d="M130.156 99.3921H135.469" stroke="#4C241D" stroke-linecap="round" stroke-linejoin="round"/>
<path d="M146.094 99.3921H151.406" stroke="#4C241D" stroke-linecap="round" stroke-linejoin="round"/>
</svg>
