<svg width="170" height="170" viewBox="0 0 170 170" fill="none" xmlns="http://www.w3.org/2000/svg">
<path d="M57.1094 127.219C88.65 127.219 114.219 101.65 114.219 70.1094C114.219 38.5687 88.65 13 57.1094 13C25.5687 13 0 38.5687 0 70.1094C0 101.65 25.5687 127.219 57.1094 127.219Z" fill="#BFE7F4"/>
<path d="M31.875 164.688V154.591C31.875 147.406 34.6613 140.515 39.6209 135.435C44.5805 130.354 51.3071 127.5 58.3211 127.5H114.335C121.349 127.5 128.076 130.354 133.035 135.435C137.995 140.515 140.781 147.406 140.781 154.591V164.688" fill="#816982"/>
<path d="M31.875 164.688V154.591C31.875 147.406 34.6613 140.515 39.6209 135.435C44.5805 130.354 51.3071 127.5 58.3211 127.5H114.335C121.349 127.5 128.076 130.354 133.035 135.435C137.995 140.515 140.781 147.406 140.781 154.591V164.688" stroke="#4C241D" stroke-linecap="round" stroke-linejoin="round"/>
<path d="M99.7188 128.479V119.531H72.1565V128.479H63.75L86.3281 162.031L108.906 128.479H99.7188Z" fill="white" stroke="#4C241D" stroke-linecap="round" stroke-linejoin="round"/>
<path d="M53.125 61.0938H116.875V100.305C116.875 106.813 114.29 113.054 109.688 117.656C105.086 122.258 98.844 124.844 92.3358 124.844H77.6642C71.156 124.844 64.9144 122.258 60.3124 117.656C55.7104 113.054 53.125 106.813 53.125 100.305V61.0938Z" fill="#FFDE9D" stroke="#4C241D" stroke-linecap="round" stroke-linejoin="round"/>
<path d="M50.4688 111.562C57.8038 111.562 63.75 105.022 63.75 96.9531C63.75 88.8846 57.8038 82.3438 50.4688 82.3438C43.1337 82.3438 37.1875 88.8846 37.1875 96.9531C37.1875 105.022 43.1337 111.562 50.4688 111.562Z" fill="white" stroke="#4C241D" stroke-linecap="round" stroke-linejoin="round"/>
<path d="M122.188 111.562C129.523 111.562 135.469 105.022 135.469 96.9531C135.469 88.8846 129.523 82.3438 122.188 82.3438C114.852 82.3438 108.906 88.8846 108.906 96.9531C108.906 105.022 114.852 111.562 122.188 111.562Z" fill="white" stroke="#4C241D" stroke-linecap="round" stroke-linejoin="round"/>
<path d="M50.4688 87.6562C57.8038 87.6562 63.75 81.71 63.75 74.375C63.75 67.04 57.8038 61.0938 50.4688 61.0938C43.1337 61.0938 37.1875 67.04 37.1875 74.375C37.1875 81.71 43.1337 87.6562 50.4688 87.6562Z" fill="white" stroke="#4C241D" stroke-linecap="round" stroke-linejoin="round"/>
<path d="M122.188 87.6562C129.523 87.6562 135.469 81.71 135.469 74.375C135.469 67.04 129.523 61.0938 122.188 61.0938C114.852 61.0938 108.906 67.04 108.906 74.375C108.906 81.71 114.852 87.6562 122.188 87.6562Z" fill="white" stroke="#4C241D" stroke-linecap="round" stroke-linejoin="round"/>
<path d="M122.023 38.5107C119.58 38.5217 117.188 39.2338 115.108 40.5689C110.365 33.8973 99.2697 29.2188 86.3313 29.2188C73.393 29.2188 62.2972 33.8973 57.5546 40.5689C55.2878 39.1254 52.6597 38.4172 50.005 38.5344C47.3503 38.6516 44.7892 39.589 42.6479 41.2271C40.5065 42.8652 38.8818 45.13 37.9807 47.7329C37.0796 50.3359 36.9429 53.1592 37.5879 55.8434C38.2329 58.5275 39.6305 60.951 41.6027 62.8052C43.5749 64.6594 46.0324 65.8604 48.6623 66.2551C51.2922 66.6499 53.9754 66.2207 56.3702 65.022C58.765 63.8234 60.763 61.9096 62.1098 59.5245C69.3519 64.2615 77.7828 66.65 86.3313 66.3866C94.8799 66.65 103.311 64.2615 110.553 59.5245C111.744 61.6301 113.447 63.3725 115.489 64.5768C117.531 65.7812 119.842 66.4051 122.189 66.386C124.536 66.3669 126.836 65.7056 128.86 64.4682C130.884 63.2308 132.56 61.461 133.72 59.3362C134.88 57.2115 135.483 54.8064 135.468 52.3624C135.454 49.9184 134.823 47.5214 133.638 45.4117C132.453 43.302 130.756 41.5538 128.717 40.3426C126.679 39.1313 124.37 38.4996 122.023 38.5107V38.5107Z" fill="white" stroke="#4C241D" stroke-linecap="round" stroke-linejoin="round"/>
<path d="M15.9375 13.2812V18.8248" stroke="#4C241D" stroke-linecap="round" stroke-linejoin="round"/>
<path d="M15.9375 29.9116V35.4551" stroke="#4C241D" stroke-linecap="round" stroke-linejoin="round"/>
<path d="M5.3125 24.3682H10.625" stroke="#4C241D" stroke-linecap="round" stroke-linejoin="round"/>
<path d="M21.25 24.3682H26.5625" stroke="#4C241D" stroke-linecap="round" stroke-linejoin="round"/>
<path d="M160.703 132.812C164.371 132.812 167.344 129.839 167.344 126.172C167.344 122.504 164.371 119.531 160.703 119.531C157.036 119.531 154.062 122.504 154.062 126.172C154.062 129.839 157.036 132.812 160.703 132.812Z" stroke="#4C241D" stroke-linecap="round" stroke-linejoin="round"/>
<path d="M60.9556 10.625L53.125 18.7961" stroke="#4C241D" stroke-linecap="round" stroke-linejoin="round"/>
<path d="M53.125 10.625L60.9556 18.7961" stroke="#4C241D" stroke-linecap="round" stroke-linejoin="round"/>
</svg>
