<svg width="54" height="54" viewBox="0 0 54 54" fill="none" xmlns="http://www.w3.org/2000/svg">
<path d="M5.48438 6.75C6.64935 6.75 7.59375 5.8056 7.59375 4.64062C7.59375 3.47565 6.64935 2.53125 5.48438 2.53125C4.3194 2.53125 3.375 3.47565 3.375 4.64062C3.375 5.8056 4.3194 6.75 5.48438 6.75Z" stroke="#4C241D" stroke-linecap="round" stroke-linejoin="round"/>
<path d="M45.9844 29.5312C47.1494 29.5312 48.0938 28.5869 48.0938 27.4219C48.0938 26.2569 47.1494 25.3125 45.9844 25.3125C44.8194 25.3125 43.875 26.2569 43.875 27.4219C43.875 28.5869 44.8194 29.5312 45.9844 29.5312Z" stroke="#4C241D" stroke-linecap="round" stroke-linejoin="round"/>
<path d="M8.01563 19.0957C8.54313 19.0957 8.97075 18.6681 8.97075 18.1406C8.97075 17.6131 8.54313 17.1855 8.01563 17.1855C7.48812 17.1855 7.0605 17.6131 7.0605 18.1406C7.0605 18.6681 7.48812 19.0957 8.01563 19.0957Z" fill="#4C241D"/>
<path d="M49.3594 17.4082C49.8869 17.4082 50.3145 16.9806 50.3145 16.4531C50.3145 15.9256 49.8869 15.498 49.3594 15.498C48.8319 15.498 48.4043 15.9256 48.4043 16.4531C48.4043 16.9806 48.8319 17.4082 49.3594 17.4082Z" fill="#4C241D"/>
<path d="M47.9562 4.77817L44.8563 7.87811" stroke="#4C241D" stroke-linecap="round" stroke-linejoin="round"/>
<path d="M44.8563 4.77817L47.9562 7.87811" stroke="#4C241D" stroke-linecap="round" stroke-linejoin="round"/>
<path d="M7.45622 31.7782L4.35628 34.8781" stroke="#4C241D" stroke-linecap="round" stroke-linejoin="round"/>
<path d="M4.35628 31.7782L7.45622 34.8781" stroke="#4C241D" stroke-linecap="round" stroke-linejoin="round"/>
<path d="M44.82 38.7804C44.3847 38.3891 43.9229 38.0282 43.4379 37.7004L42.3622 36.9782C40.0483 35.4238 37.3239 34.5937 34.5364 34.5938H20.3344C17.5327 34.5938 14.7952 35.4322 12.474 37.001L11.4438 37.6979C10.9505 38.0315 10.4816 38.3997 10.0406 38.7998C12.8067 41.9071 14.3377 45.9207 14.3437 50.0808V51.4688H40.5V50.0808C40.5059 45.9118 42.0433 41.8902 44.82 38.7804Z" fill="#6B4F5B" stroke="#4C241D" stroke-linecap="round" stroke-linejoin="round"/>
<path d="M31.9958 26.1562H22.7812V37.9688H31.9958V26.1562Z" fill="#E7D1C4" stroke="#4C241D" stroke-linecap="round" stroke-linejoin="round"/>
<path d="M37.152 34.5938H32.9063L32.3435 37.125H22.5003L21.9375 34.5938H17.6918C17.5703 34.5938 17.4514 34.6284 17.349 34.6936C17.2466 34.7588 17.1648 34.8519 17.1134 34.9618C17.0619 35.0718 17.0429 35.1942 17.0585 35.3146C17.0741 35.435 17.1237 35.5485 17.2015 35.6417L22.0109 40.5439C22.156 42.5881 22.6625 44.5904 23.5069 46.4577L24.9581 49.5281C26.1605 52.0746 28.4276 52.1252 29.6688 49.6328L31.2188 46.5227C32.1102 44.6493 32.6517 42.6288 32.8168 40.5608L37.6439 35.6417C37.7218 35.5484 37.7714 35.4347 37.787 35.3142C37.8025 35.1936 37.7833 35.0711 37.7317 34.9611C37.68 34.851 37.598 34.758 37.4954 34.6929C37.3927 34.6279 37.2736 34.5935 37.152 34.5938ZM49.0261 48.1874C49.0256 46.4119 48.6507 44.6564 47.926 43.0355C47.2012 41.4146 46.1429 39.9647 44.82 38.7804C42.0433 41.8902 40.5059 45.9118 40.5 50.0808V51.4688H49.0219L49.0261 48.1874ZM10.0406 38.7998C8.73137 39.9836 7.68476 41.4287 6.96829 43.0419C6.25183 44.655 5.88141 46.4004 5.88094 48.1655V51.4688H14.3438V50.0808C14.3377 45.9207 12.8067 41.9071 10.0406 38.7998Z" fill="white" stroke="#4C241D" stroke-linecap="round" stroke-linejoin="round"/>
<path d="M37.152 34.5938H32.9062L32.3435 37.125H22.5003L21.9375 34.5938H17.6917C17.5703 34.5938 17.4514 34.6284 17.349 34.6936C17.2466 34.7588 17.1648 34.8519 17.1134 34.9618C17.0619 35.0718 17.0429 35.1942 17.0585 35.3146C17.0741 35.435 17.1237 35.5485 17.2015 35.6417L22.0109 40.5439C22.156 42.5881 22.6625 44.5904 23.5069 46.4577L24.9581 49.5281C26.1605 52.0746 28.4276 52.1252 29.6688 49.6328L31.2188 46.5227C32.1102 44.6493 32.6517 42.6288 32.8168 40.5608L37.6439 35.6417C37.7218 35.5484 37.7714 35.4347 37.787 35.3142C37.8025 35.1936 37.7833 35.0711 37.7317 34.9611C37.68 34.851 37.598 34.758 37.4954 34.6929C37.3927 34.6279 37.2736 34.5935 37.152 34.5938Z" fill="white" stroke="#4C241D" stroke-linecap="round" stroke-linejoin="round"/>
<path d="M27 39.6562V50.625" stroke="#4C241D" stroke-linecap="round" stroke-linejoin="round"/>
<path d="M28.5896 37.0761C28.5896 36.1711 27.856 35.4375 26.9511 35.4375C26.0461 35.4375 25.3125 36.1711 25.3125 37.0761V38.0177C25.3125 38.9226 26.0461 39.6562 26.9511 39.6562C27.856 39.6562 28.5896 38.9226 28.5896 38.0177V37.0761Z" fill="#F53E28" stroke="#4C241D" stroke-linecap="round" stroke-linejoin="round"/>
<path d="M28.5896 35.5784V39.5153L32.9062 40.5V34.5938L28.5896 35.5784Z" fill="#F53E28" stroke="#4C241D" stroke-linecap="round" stroke-linejoin="round"/>
<path d="M19.0274 17.7711H20.3504V21.9375H19.0274C18.4749 21.9375 17.945 21.718 17.5543 21.3273C17.1637 20.9367 16.9442 20.4068 16.9442 19.8543C16.9442 19.3018 17.1637 18.7719 17.5543 18.3812C17.945 17.9905 18.4749 17.7711 19.0274 17.7711Z" fill="#E7D1C4" stroke="#4C241D" stroke-linecap="round" stroke-linejoin="round"/>
<path d="M35.8855 21.9375H34.5938V17.7711H35.8855C36.438 17.7711 36.9679 17.9905 37.3586 18.3812C37.7493 18.7719 37.9687 19.3018 37.9688 19.8543C37.9688 20.4068 37.7493 20.9367 37.3586 21.3273C36.9679 21.718 36.438 21.9375 35.8855 21.9375Z" fill="#E7D1C4" stroke="#4C241D" stroke-linecap="round" stroke-linejoin="round"/>
<path d="M25.4104 35.5784V39.5153L21.0938 40.5V34.5938L25.4104 35.5784Z" fill="#F53E28" stroke="#4C241D" stroke-linecap="round" stroke-linejoin="round"/>
<path d="M31.4331 28.6512L30.8922 29.0503C29.829 29.8364 28.5416 30.2605 27.2194 30.2602C25.7805 30.2602 24.3868 29.7583 23.2782 28.8411L23.0504 28.6521C21.9417 27.7345 21.0491 26.5835 20.4366 25.2812C19.824 23.9789 19.5065 22.5574 19.5067 21.1182V9.82294H35.4021V20.7849C35.4019 22.3152 35.0427 23.8241 34.3534 25.1903C33.6641 26.5565 32.6638 27.7419 31.4331 28.6512Z" fill="#E7D1C4" stroke="#4C241D" stroke-linecap="round" stroke-linejoin="round"/>
<path d="M28.7719 5.29199C23.4048 4.68449 18.3094 8.68977 16.9298 14.7555C16.9121 14.8323 16.8953 14.9107 16.8784 14.9892C16.8784 14.9892 22.6623 17.3795 30.9808 12.868C31.6317 13.6424 32.4404 14.2688 33.3529 14.7053C34.2654 15.1419 35.2606 15.3785 36.272 15.3993C36.2813 15.3976 36.2813 14.4475 36.2813 13.1625C36.3039 11.3206 35.6677 9.53118 34.4872 8.11709C33.3067 6.703 31.6598 5.75731 29.8434 5.45061L28.7719 5.29199Z" fill="#BF7E68" stroke="#4C241D" stroke-linecap="round" stroke-linejoin="round"/>
<path d="M24.0469 20.9377C24.6597 20.9377 25.1564 20.4409 25.1564 19.8281C25.1564 19.2154 24.6597 18.7186 24.0469 18.7186C23.4341 18.7186 22.9373 19.2154 22.9373 19.8281C22.9373 20.4409 23.4341 20.9377 24.0469 20.9377Z" fill="#4C241D"/>
<path d="M30.7969 20.9377C31.4097 20.9377 31.9064 20.4409 31.9064 19.8281C31.9064 19.2154 31.4097 18.7186 30.7969 18.7186C30.1841 18.7186 29.6873 19.2154 29.6873 19.8281C29.6873 20.4409 30.1841 20.9377 30.7969 20.9377Z" fill="#4C241D"/>
</svg>
