<svg width="170" height="170" viewBox="0 0 170 170" fill="none" xmlns="http://www.w3.org/2000/svg">
<path d="M95.1094 127.219C126.65 127.219 152.219 101.65 152.219 70.1094C152.219 38.5687 126.65 13 95.1094 13C63.5687 13 38 38.5687 38 70.1094C38 101.65 63.5687 127.219 95.1094 127.219Z" fill="#BFE7F4"/>
<path d="M23.9062 79.6875C25.3733 79.6875 26.5625 78.4983 26.5625 77.0312C26.5625 75.5642 25.3733 74.375 23.9062 74.375C22.4392 74.375 21.25 75.5642 21.25 77.0312C21.25 78.4983 22.4392 79.6875 23.9062 79.6875Z" fill="#4C241D"/>
<path d="M82.9273 96.4874L69.9248 93.7805L87.5196 9.26445C87.8785 7.54021 88.9077 6.02919 90.3808 5.06379C91.8538 4.09839 93.65 3.7577 95.3742 4.11665C97.0985 4.47561 98.6095 5.50481 99.5749 6.97785C100.54 8.45089 100.881 10.2471 100.522 11.9713L82.9273 96.4874Z" fill="#BF7E68" stroke="#4C241D" stroke-linecap="round" stroke-linejoin="round"/>
<path d="M66.5956 141.945C60.7346 140.718 55.6008 137.214 52.3238 132.202C49.0468 127.19 47.8949 121.082 49.1216 115.22L54.291 90.5213L98.4896 99.7717L93.3202 124.471C92.0935 130.332 88.5887 135.466 83.5769 138.743C78.5651 142.02 72.4567 143.172 66.5956 141.945V141.945Z" fill="#816982" stroke="#4C241D" stroke-linecap="round" stroke-linejoin="round"/>
<path d="M82.8909 96.5069L79.0819 114.705" stroke="#4C241D" stroke-linecap="round" stroke-linejoin="round"/>
<path d="M69.8912 93.7869L66.0822 111.985" stroke="#4C241D" stroke-linecap="round" stroke-linejoin="round"/>
<path d="M45.1562 130.156H114.219V162.031H13.2812C13.2813 153.577 16.6395 145.47 22.6172 139.492C28.5949 133.514 36.7025 130.156 45.1562 130.156V130.156ZM162.031 115.68V115.414C162.031 113.688 161.346 112.033 160.125 110.812C158.905 109.592 157.249 108.906 155.523 108.906H110.102C109.247 108.906 108.401 109.075 107.611 109.402C106.822 109.729 106.104 110.208 105.5 110.812C104.896 111.417 104.416 112.134 104.089 112.924C103.762 113.713 103.594 114.559 103.594 115.414V115.68C103.594 117.406 104.279 119.061 105.5 120.281C106.72 121.502 108.376 122.188 110.102 122.188C108.376 122.187 106.72 122.873 105.5 124.094C104.279 125.314 103.594 126.969 103.594 128.695V128.961C103.594 130.687 104.279 132.342 105.5 133.563C106.72 134.783 108.376 135.469 110.102 135.469H99.4766C97.7506 135.469 96.0953 136.154 94.8748 137.375C93.6544 138.595 92.9687 140.251 92.9688 141.977V142.242C92.9688 143.968 93.6544 145.623 94.8748 146.844C96.0953 148.064 97.7506 148.75 99.4766 148.75H107.445C105.719 148.75 104.064 149.436 102.844 150.656C101.623 151.877 100.937 153.532 100.938 155.258V155.523C100.937 157.249 101.623 158.905 102.844 160.125C104.064 161.346 105.719 162.031 107.445 162.031H152.867C154.593 162.031 156.248 161.346 157.469 160.125C158.689 158.905 159.375 157.249 159.375 155.523V155.258C159.375 153.532 158.689 151.877 157.469 150.656C156.248 149.436 154.593 148.75 152.867 148.75H144.898C146.624 148.75 148.28 148.064 149.5 146.844C150.721 145.623 151.406 143.968 151.406 142.242V141.977C151.406 140.251 150.721 138.595 149.5 137.375C148.28 136.154 146.624 135.469 144.898 135.469H155.523C156.378 135.469 157.224 135.3 158.014 134.973C158.803 134.646 159.521 134.167 160.125 133.563C160.729 132.958 161.209 132.241 161.536 131.451C161.863 130.662 162.031 129.816 162.031 128.961V128.695C162.031 126.969 161.346 125.314 160.125 124.094C158.905 122.873 157.249 122.187 155.523 122.188C157.249 122.188 158.905 121.502 160.125 120.281C161.346 119.061 162.031 117.406 162.031 115.68V115.68Z" fill="#FFCE56" stroke="#4C241D" stroke-linecap="round" stroke-linejoin="round"/>
<path d="M108.906 122.188H130.156" stroke="#4C241D" stroke-linecap="round" stroke-linejoin="round"/>
<path d="M146.094 135.469H124.844" stroke="#4C241D" stroke-linecap="round" stroke-linejoin="round"/>
<path d="M122.188 148.75H132.812" stroke="#4C241D" stroke-linecap="round" stroke-linejoin="round"/>
<path d="M114.219 78.2611V82.0197" stroke="#4C241D" stroke-linecap="round" stroke-linejoin="round"/>
<path d="M114.219 93.2928V97.0514" stroke="#4C241D" stroke-linecap="round" stroke-linejoin="round"/>
<path d="M104.824 87.6562H108.582" stroke="#4C241D" stroke-linecap="round" stroke-linejoin="round"/>
<path d="M119.855 87.6562H123.614" stroke="#4C241D" stroke-linecap="round" stroke-linejoin="round"/>
<path d="M23.9062 96.8549V100.613" stroke="#4C241D" stroke-linecap="round" stroke-linejoin="round"/>
<path d="M23.9062 111.887V115.645" stroke="#4C241D" stroke-linecap="round" stroke-linejoin="round"/>
<path d="M14.5111 106.25H18.2697" stroke="#4C241D" stroke-linecap="round" stroke-linejoin="round"/>
<path d="M29.5428 106.25H33.3014" stroke="#4C241D" stroke-linecap="round" stroke-linejoin="round"/>
<path d="M45.1562 51.6986V55.4572" stroke="#4C241D" stroke-linecap="round" stroke-linejoin="round"/>
<path d="M45.1562 66.7303V70.4889" stroke="#4C241D" stroke-linecap="round" stroke-linejoin="round"/>
<path d="M35.7611 61.0938H39.5197" stroke="#4C241D" stroke-linecap="round" stroke-linejoin="round"/>
<path d="M50.7928 61.0938H54.5514" stroke="#4C241D" stroke-linecap="round" stroke-linejoin="round"/>
<path d="M142.109 50.4688C145.777 50.4688 148.75 47.4956 148.75 43.8281C148.75 40.1606 145.777 37.1875 142.109 37.1875C138.442 37.1875 135.469 40.1606 135.469 43.8281C135.469 47.4956 138.442 50.4688 142.109 50.4688Z" stroke="#4C241D" stroke-linecap="round" stroke-linejoin="round"/>
</svg>
