<svg width="64" height="64" viewBox="0 0 64 64" fill="none" xmlns="http://www.w3.org/2000/svg">
<path d="M55.673 17.848C55.094 19.3013 54.1146 20.5606 52.8485 21.4795C51.5824 22.3985 50.0816 22.9394 48.5204 23.0395C46.9592 23.1397 45.4016 22.7949 44.0285 22.0451C42.6555 21.2954 41.5232 20.1716 40.7633 18.8042C40.0034 17.4367 39.647 15.8817 39.7355 14.3198C39.8239 12.7579 40.3537 11.2531 41.2632 9.98024C42.1727 8.70735 43.4246 7.71858 44.8736 7.12875C46.3225 6.53891 47.9091 6.37221 49.449 6.64801C47.2178 5.47379 44.6672 5.05132 42.1766 5.44346C39.686 5.8356 37.3886 7.02139 35.6262 8.82438C33.8638 10.6274 32.7306 12.9512 32.3953 15.4501C32.0599 17.949 32.5403 20.4893 33.7651 22.6932C34.9898 24.897 36.8933 26.6466 39.1924 27.6815C41.4915 28.7163 44.0633 28.9813 46.5251 28.4368C48.9869 27.8924 51.2071 26.5676 52.8554 24.6597C54.5036 22.7519 55.4919 20.3628 55.673 17.848Z" fill="#FFCE56" stroke="#4C241D" stroke-linecap="round" stroke-linejoin="round"/>
<path d="M26.5 7.427C27.012 7.427 27.427 7.01197 27.427 6.5C27.427 5.98803 27.012 5.573 26.5 5.573C25.988 5.573 25.573 5.98803 25.573 6.5C25.573 7.01197 25.988 7.427 26.5 7.427Z" fill="#4C241D"/>
<path d="M11.5 17.427C12.012 17.427 12.427 17.012 12.427 16.5C12.427 15.988 12.012 15.573 11.5 15.573C10.988 15.573 10.573 15.988 10.573 16.5C10.573 17.012 10.988 17.427 11.5 17.427Z" fill="#4C241D"/>
<path d="M25 40H15V63H25V40Z" fill="#9DC1E4" stroke="#4C241D" stroke-linecap="round" stroke-linejoin="round"/>
<path d="M20 51V63" stroke="#4C241D" stroke-linecap="round" stroke-linejoin="round"/>
<path d="M11 63L50 63" stroke="#4C241D" stroke-linecap="round" stroke-linejoin="round"/>
<path d="M28 33C27.7348 33 27.4804 32.8946 27.2929 32.7071C27.1054 32.5196 27 32.2652 27 32V30.57C27 29.8884 26.7292 29.2347 26.2473 28.7527C25.7653 28.2708 25.1116 28 24.43 28H15.57C14.8884 28 14.2347 28.2708 13.7527 28.7527C13.2708 29.2347 13 29.8884 13 30.57V32C13 32.2652 12.8946 32.5196 12.7071 32.7071C12.5196 32.8946 12.2652 33 12 33C10.9391 33 9.92172 33.4214 9.17157 34.1716C8.42143 34.9217 8 35.9391 8 37V44H12V46.217C12 46.6899 12.1879 47.1434 12.5222 47.4778C12.8566 47.8121 13.3101 48 13.783 48H26.217C26.6899 48 27.1434 47.8121 27.4778 47.4778C27.8121 47.1434 28 46.6899 28 46.217V44H32V37C32 35.9391 31.5786 34.9217 30.8284 34.1716C30.0783 33.4214 29.0609 33 28 33Z" fill="#BF7E68" stroke="#4C241D" stroke-linecap="round" stroke-linejoin="round"/>
<path d="M28 44V38" stroke="#4C241D" stroke-linecap="round" stroke-linejoin="round"/>
<path d="M12 44V38" stroke="#4C241D" stroke-linecap="round" stroke-linejoin="round"/>
<path d="M12 44H8V47H12V44Z" fill="#FFE8DC" stroke="#4C241D" stroke-linecap="round" stroke-linejoin="round"/>
<path d="M32 44H28V47H32V44Z" fill="#FFE8DC" stroke="#4C241D" stroke-linecap="round" stroke-linejoin="round"/>
<path d="M20 18C21.0609 18 22.0783 18.4214 22.8284 19.1716C23.5786 19.9217 24 20.9391 24 22V29H20.518C19.3198 29 18.1706 28.524 17.3233 27.6767C16.476 26.8294 16 25.6802 16 24.482V22C16 20.9391 16.4214 19.9217 17.1716 19.1716C17.9217 18.4214 18.9391 18 20 18Z" fill="#FFE8DC" stroke="#4C241D" stroke-linecap="round" stroke-linejoin="round"/>
<path d="M16.521 3.78299L13.573 6.73099" stroke="#4C241D" stroke-linecap="round" stroke-linejoin="round"/>
<path d="M13.573 3.78299L16.521 6.73099" stroke="#4C241D" stroke-linecap="round" stroke-linejoin="round"/>
<path d="M55.521 10.783L52.573 13.731" stroke="#4C241D" stroke-linecap="round" stroke-linejoin="round"/>
<path d="M52.573 10.783L55.521 13.731" stroke="#4C241D" stroke-linecap="round" stroke-linejoin="round"/>
</svg>
