<svg width="170" height="170" viewBox="0 0 170 170" fill="none" xmlns="http://www.w3.org/2000/svg">
<path d="M77.1094 122.219C108.65 122.219 134.219 96.65 134.219 65.1094C134.219 33.5687 108.65 8 77.1094 8C45.5687 8 20 33.5687 20 65.1094C20 96.65 45.5687 122.219 77.1094 122.219Z" fill="#BFE7F4"/>
<path d="M124.844 164.688V159.375C124.844 156.557 123.724 153.855 121.732 151.862C119.739 149.869 117.037 148.75 114.219 148.75H61.0938C58.2758 148.75 55.5733 149.869 53.5807 151.862C51.5882 153.855 50.4688 156.557 50.4688 159.375V164.688" fill="#BF7E68"/>
<path d="M124.844 164.688V159.375C124.844 156.557 123.724 153.855 121.732 151.862C119.739 149.869 117.037 148.75 114.219 148.75H61.0938C58.2758 148.75 55.5733 149.869 53.5807 151.862C51.5882 153.855 50.4688 156.557 50.4688 159.375V164.688" stroke="#4C241D" stroke-linecap="round" stroke-linejoin="round"/>
<path d="M148.75 18.5938V23.9062" stroke="#4C241D" stroke-linecap="round" stroke-linejoin="round"/>
<path d="M148.75 34.5312V39.8438" stroke="#4C241D" stroke-linecap="round" stroke-linejoin="round"/>
<path d="M138.125 29.2188H143.438" stroke="#4C241D" stroke-linecap="round" stroke-linejoin="round"/>
<path d="M154.062 29.2188H159.375" stroke="#4C241D" stroke-linecap="round" stroke-linejoin="round"/>
<path d="M87.6562 29.2188V154.062" stroke="#4C241D" stroke-linecap="round" stroke-linejoin="round"/>
<path d="M71.7188 50.4688L87.6562 66.4062L103.594 50.4688" stroke="#4C241D" stroke-linecap="round" stroke-linejoin="round"/>
<path d="M71.7188 92.9688L87.6562 108.906L103.594 92.9688" stroke="#4C241D" stroke-linecap="round" stroke-linejoin="round"/>
<path d="M61.0938 66.4062L87.6562 82.3438L114.219 66.4062" stroke="#4C241D" stroke-linecap="round" stroke-linejoin="round"/>
<path d="M77.0312 29.2188L87.6562 39.8438L98.2812 29.2188" stroke="#4C241D" stroke-linecap="round" stroke-linejoin="round"/>
<path d="M144.614 105.116C146.182 105.116 147.454 103.845 147.454 102.276C147.454 100.708 146.182 99.4368 144.614 99.4368C143.046 99.4368 141.775 100.708 141.775 102.276C141.775 103.845 143.046 105.116 144.614 105.116Z" fill="#4C241D"/>
<path d="M30.3955 30.7408C31.9637 30.7408 33.235 29.4695 33.235 27.9013C33.235 26.3331 31.9637 25.0618 30.3955 25.0618C28.8272 25.0618 27.5559 26.3331 27.5559 27.9013C27.5559 29.4695 28.8272 30.7408 30.3955 30.7408Z" fill="#4C241D"/>
<path d="M19.9219 116.875C23.5894 116.875 26.5625 113.902 26.5625 110.234C26.5625 106.567 23.5894 103.594 19.9219 103.594C16.2544 103.594 13.2812 106.567 13.2812 110.234C13.2812 113.902 16.2544 116.875 19.9219 116.875Z" stroke="#4C241D" stroke-linecap="round" stroke-linejoin="round"/>
<path d="M108.906 95.625C113.307 95.625 116.875 92.0573 116.875 87.6562C116.875 83.2552 113.307 79.6875 108.906 79.6875C104.505 79.6875 100.938 83.2552 100.938 87.6562C100.938 92.0573 104.505 95.625 108.906 95.625Z" fill="#842582" stroke="#4C241D" stroke-linecap="round" stroke-linejoin="round"/>
<path d="M66.4062 95.625C70.8073 95.625 74.375 92.0573 74.375 87.6562C74.375 83.2552 70.8073 79.6875 66.4062 79.6875C62.0052 79.6875 58.4375 83.2552 58.4375 87.6562C58.4375 92.0573 62.0052 95.625 66.4062 95.625Z" fill="#BD53B5" stroke="#4C241D" stroke-linecap="round" stroke-linejoin="round"/>
<path d="M108.906 53.125C113.307 53.125 116.875 49.5573 116.875 45.1562C116.875 40.7552 113.307 37.1875 108.906 37.1875C104.505 37.1875 100.938 40.7552 100.938 45.1562C100.938 49.5573 104.505 53.125 108.906 53.125Z" fill="#BD53B5" stroke="#4C241D" stroke-linecap="round" stroke-linejoin="round"/>
<path d="M66.4062 53.125C70.8073 53.125 74.375 49.5573 74.375 45.1562C74.375 40.7552 70.8073 37.1875 66.4062 37.1875C62.0052 37.1875 58.4375 40.7552 58.4375 45.1562C58.4375 49.5573 62.0052 53.125 66.4062 53.125Z" fill="#FC8C29" stroke="#4C241D" stroke-linecap="round" stroke-linejoin="round"/>
<path d="M120.859 71.7188C124.527 71.7188 127.5 68.7456 127.5 65.0781C127.5 61.4106 124.527 58.4375 120.859 58.4375C117.192 58.4375 114.219 61.4106 114.219 65.0781C114.219 68.7456 117.192 71.7188 120.859 71.7188Z" fill="#FFDED5" stroke="#4C241D" stroke-linecap="round" stroke-linejoin="round"/>
<path d="M87.6562 26.5625C92.0573 26.5625 95.625 22.9948 95.625 18.5938C95.625 14.1927 92.0573 10.625 87.6562 10.625C83.2552 10.625 79.6875 14.1927 79.6875 18.5938C79.6875 22.9948 83.2552 26.5625 87.6562 26.5625Z" fill="#FFCE56" stroke="#4C241D" stroke-linecap="round" stroke-linejoin="round"/>
<path d="M54.4531 71.7188C58.1206 71.7188 61.0938 68.7456 61.0938 65.0781C61.0938 61.4106 58.1206 58.4375 54.4531 58.4375C50.7856 58.4375 47.8125 61.4106 47.8125 65.0781C47.8125 68.7456 50.7856 71.7188 54.4531 71.7188Z" fill="#A9BA5A" stroke="#4C241D" stroke-linecap="round" stroke-linejoin="round"/>
</svg>
