<svg width="170" height="170" viewBox="0 0 170 170" fill="none" xmlns="http://www.w3.org/2000/svg">
<path d="M101.109 128.219C132.65 128.219 158.219 102.65 158.219 71.1094C158.219 39.5687 132.65 14 101.109 14C69.5687 14 44 39.5687 44 71.1094C44 102.65 69.5687 128.219 101.109 128.219Z" fill="#BFE7F4"/>
<path d="M63.2784 146.094H5.3125V126.016C5.31331 124.055 6.09243 122.175 7.47865 120.789C8.86486 119.403 10.7447 118.624 12.7051 118.623H89.4884C91.4488 118.624 93.3286 119.403 94.7148 120.789C96.1011 122.175 96.8802 124.055 96.881 126.016V146.094H78.5673M20.0794 91.1526H82.114C84.4114 91.1526 86.6148 92.0652 88.2393 93.6897C89.8638 95.3142 90.7764 97.5176 90.7764 99.815V118.623H11.4171V99.815C11.4171 97.5176 12.3297 95.3142 13.9542 93.6897C15.5787 92.0652 17.782 91.1526 20.0794 91.1526Z" fill="white"/>
<path d="M63.2784 146.094H5.3125V126.016C5.31331 124.055 6.09243 122.175 7.47865 120.789C8.86486 119.403 10.7447 118.624 12.7051 118.623H89.4884C91.4488 118.624 93.3286 119.403 94.7148 120.789C96.1011 122.175 96.8802 124.055 96.881 126.016V146.094H78.5673M20.0794 91.1526H82.114C84.4114 91.1526 86.6148 92.0652 88.2393 93.6897C89.8638 95.3142 90.7764 97.5176 90.7764 99.815V118.623H11.4171V99.815C11.4171 97.5176 12.3297 95.3142 13.9542 93.6897C15.5787 92.0652 17.782 91.1526 20.0794 91.1526Z" stroke="#4C241D" stroke-linecap="round" stroke-linejoin="round"/>
<path d="M78.5673 63.6821H23.6262V91.1527H78.5673V63.6821Z" fill="white" stroke="#4C241D" stroke-linecap="round" stroke-linejoin="round"/>
<path d="M50.8129 62.7661C50.8129 62.7661 68.8427 43.6863 68.8427 38.5432C68.7465 35.9803 67.6379 33.5601 65.7601 31.8133C63.8822 30.0665 61.3883 29.1355 58.8251 29.2246C57.2918 29.2138 55.7757 29.5478 54.3888 30.2019C53.002 30.8559 51.7799 31.8133 50.8129 33.0033C49.8459 31.8133 48.6238 30.8559 47.2369 30.2019C45.8501 29.5478 44.334 29.2138 42.8006 29.2246C40.2385 29.1355 37.7455 30.0656 35.8678 31.8111C33.9901 33.5567 32.8808 35.9753 32.783 38.5371C32.783 43.6802 50.8129 62.7661 50.8129 62.7661Z" fill="#F53E28" stroke="#4C241D" stroke-linecap="round" stroke-linejoin="round"/>
<path d="M93.8287 127.78H8.36478V136.937H93.8287V127.78Z" fill="#6B4F5B"/>
<path d="M87.7241 100.31H14.4693V109.466H87.7241V100.31Z" fill="#6B4F5B"/>
<path d="M75.515 72.8389H26.6785V81.9957H75.515V72.8389Z" fill="#6B4F5B"/>
<path d="M112.142 146.094H96.881" stroke="#4C241D" stroke-linecap="round" stroke-linejoin="round"/>
<path d="M147.422 74.375C151.089 74.375 154.062 71.4019 154.062 67.7344C154.062 64.0669 151.089 61.0938 147.422 61.0938C143.754 61.0938 140.781 64.0669 140.781 67.7344C140.781 71.4019 143.754 74.375 147.422 74.375Z" stroke="#4C241D" stroke-linecap="round" stroke-linejoin="round"/>
<path d="M157.385 120.331C158.954 120.331 160.225 119.059 160.225 117.491C160.225 115.923 158.954 114.652 157.385 114.652C155.817 114.652 154.546 115.923 154.546 117.491C154.546 119.059 155.817 120.331 157.385 120.331Z" fill="#4C241D"/>
<path d="M103.594 92.9688H140.781V114.219C140.781 119.15 138.822 123.88 135.335 127.367C131.848 130.854 127.119 132.812 122.188 132.812V132.812C117.256 132.812 112.527 130.854 109.04 127.367C105.553 123.88 103.594 119.15 103.594 114.219V92.9688Z" fill="#FFCE56" stroke="#4C241D" stroke-linecap="round" stroke-linejoin="round"/>
<path d="M140.781 58.4375H103.594V92.9688H140.781V58.4375Z" fill="white" stroke="#4C241D" stroke-linecap="round" stroke-linejoin="round"/>
<path d="M90.3125 135.469V164.688" stroke="#4C241D" stroke-linecap="round" stroke-linejoin="round"/>
<path d="M53.125 167.344H143.438" stroke="#4C241D" stroke-linecap="round" stroke-linejoin="round"/>
<path d="M130.156 108.906C131.623 108.906 132.812 107.717 132.812 106.25C132.812 104.783 131.623 103.594 130.156 103.594C128.689 103.594 127.5 104.783 127.5 106.25C127.5 107.717 128.689 108.906 130.156 108.906Z" fill="#4C241D"/>
<path d="M71.7188 85H108.906V114.219C108.906 119.15 106.947 123.88 103.46 127.367C99.9733 130.854 95.2439 132.812 90.3125 132.812C85.3811 132.812 80.6517 130.854 77.1647 127.367C73.6777 123.88 71.7188 119.15 71.7188 114.219V85Z" fill="#FFCE56" stroke="#4C241D" stroke-linecap="round" stroke-linejoin="round"/>
<path d="M108.906 58.4375H71.7188V85H108.906V58.4375Z" fill="white" stroke="#4C241D" stroke-linecap="round" stroke-linejoin="round"/>
<path d="M122.188 135.469V164.688" stroke="#4C241D" stroke-linecap="round" stroke-linejoin="round"/>
<path d="M154.062 167.344H162.031" stroke="#4C241D" stroke-linecap="round" stroke-linejoin="round"/>
<path d="M122.188 119.531C123.655 119.531 124.844 118.342 124.844 116.875C124.844 115.408 123.655 114.219 122.188 114.219C120.72 114.219 119.531 115.408 119.531 116.875C119.531 118.342 120.72 119.531 122.188 119.531Z" fill="#4C241D"/>
<path d="M85 119.531C86.467 119.531 87.6562 118.342 87.6562 116.875C87.6562 115.408 86.467 114.219 85 114.219C83.533 114.219 82.3438 115.408 82.3438 116.875C82.3438 118.342 83.533 119.531 85 119.531Z" fill="#4C241D"/>
<path d="M90.3125 100.938C91.7795 100.938 92.9688 99.7483 92.9688 98.2812C92.9688 96.8142 91.7795 95.625 90.3125 95.625C88.8455 95.625 87.6562 96.8142 87.6562 98.2812C87.6562 99.7483 88.8455 100.938 90.3125 100.938Z" fill="#4C241D"/>
<path d="M124.844 18.5938V23.9062" stroke="#4C241D" stroke-linecap="round" stroke-linejoin="round"/>
<path d="M124.844 34.5312V39.8438" stroke="#4C241D" stroke-linecap="round" stroke-linejoin="round"/>
<path d="M114.219 29.2188H119.531" stroke="#4C241D" stroke-linecap="round" stroke-linejoin="round"/>
<path d="M130.156 29.2188H135.469" stroke="#4C241D" stroke-linecap="round" stroke-linejoin="round"/>
</svg>
