<svg width="170" height="170" viewBox="0 0 170 170" fill="none" xmlns="http://www.w3.org/2000/svg">
<path d="M124.844 164.688V159.375C124.844 156.557 123.724 153.855 121.732 151.862C119.739 149.869 117.037 148.75 114.219 148.75H61.0938C58.2758 148.75 55.5733 149.869 53.5807 151.862C51.5882 153.855 50.4688 156.557 50.4688 159.375V164.688" fill="#BF7E68"/>
<path d="M124.844 164.688V159.375C124.844 156.557 123.724 153.855 121.732 151.862C119.739 149.869 117.037 148.75 114.219 148.75H61.0938C58.2758 148.75 55.5733 149.869 53.5807 151.862C51.5882 153.855 50.4688 156.557 50.4688 159.375V164.688" stroke="#4C241D" stroke-linecap="round" stroke-linejoin="round"/>
<path d="M77.0312 140.781C110.772 140.781 138.125 113.429 138.125 79.6875C138.125 45.9464 110.772 18.5938 77.0312 18.5938C43.2901 18.5938 15.9375 45.9464 15.9375 79.6875C15.9375 113.429 43.2901 140.781 77.0312 140.781Z" fill="#BFE7F4"/>
<path d="M103.594 21.25C103.594 17.7276 102.194 14.3495 99.7038 11.8587C97.213 9.36802 93.8349 7.96875 90.3125 7.96875H85C81.4776 7.96875 78.0995 9.36802 75.6087 11.8587C73.118 14.3495 71.7188 17.7276 71.7188 21.25V21.25C71.7188 25.4769 70.0396 29.5307 67.0508 32.5195C64.0619 35.5084 60.0081 37.1875 55.7812 37.1875V37.1875V95.625L87.6562 114.219L119.531 95.625V37.1875C115.304 37.1875 111.251 35.5084 108.262 32.5195C105.273 29.5307 103.594 25.4769 103.594 21.25Z" fill="#FC8C29" stroke="#4C241D" stroke-linecap="round" stroke-linejoin="round"/>
<path d="M148.75 21.25V26.5625" stroke="#4C241D" stroke-linecap="round" stroke-linejoin="round"/>
<path d="M148.75 37.1875V42.5" stroke="#4C241D" stroke-linecap="round" stroke-linejoin="round"/>
<path d="M138.125 31.875H143.438" stroke="#4C241D" stroke-linecap="round" stroke-linejoin="round"/>
<path d="M154.062 31.875H159.375" stroke="#4C241D" stroke-linecap="round" stroke-linejoin="round"/>
<path d="M77.0312 31.875L87.6562 37.1875" stroke="#FFCE56" stroke-linecap="round" stroke-linejoin="round"/>
<path d="M76.5478 64.3158L87.6562 71.7187L107.108 58.7509" stroke="#FFCE56" stroke-linecap="round" stroke-linejoin="round"/>
<path d="M87.6562 7.96875V148.75" stroke="#4C241D" stroke-linecap="round" stroke-linejoin="round"/>
<path d="M63.7314 37.1875L87.6563 58.4375L111.563 37.1875" stroke="#4C241D" stroke-linecap="round" stroke-linejoin="round"/>
<path d="M55.7627 66.4062L87.6563 87.6562L119.531 66.4062" stroke="#4C241D" stroke-linecap="round" stroke-linejoin="round"/>
<path d="M88.6577 127.819L98.2812 119.531" stroke="#4C241D" stroke-linecap="round" stroke-linejoin="round"/>
<path d="M87.4119 137.055L70.0506 120.381" stroke="#4C241D" stroke-linecap="round" stroke-linejoin="round"/>
<path d="M144.614 107.772C146.182 107.772 147.454 106.501 147.454 104.932C147.454 103.364 146.182 102.093 144.614 102.093C143.046 102.093 141.775 103.364 141.775 104.932C141.775 106.501 143.046 107.772 144.614 107.772Z" fill="#4C241D"/>
<path d="M30.3955 33.397C31.9637 33.397 33.235 32.1257 33.235 30.5575C33.235 28.9893 31.9637 27.718 30.3955 27.718C28.8272 27.718 27.5559 28.9893 27.5559 30.5575C27.5559 32.1257 28.8272 33.397 30.3955 33.397Z" fill="#4C241D"/>
<path d="M19.9219 119.531C23.5894 119.531 26.5625 116.558 26.5625 112.891C26.5625 109.223 23.5894 106.25 19.9219 106.25C16.2544 106.25 13.2812 109.223 13.2812 112.891C13.2812 116.558 16.2544 119.531 19.9219 119.531Z" stroke="#4C241D" stroke-linecap="round" stroke-linejoin="round"/>
<path d="M98.2812 98.2786L111.562 90.3125" stroke="#FFCE56" stroke-linecap="round" stroke-linejoin="round"/>
</svg>
