<svg width="55" height="55" viewBox="0 0 55 55" fill="none" xmlns="http://www.w3.org/2000/svg">
<path d="M17 10C17.5523 10 18 9.55228 18 9C18 8.44772 17.5523 8 17 8C16.4477 8 16 8.44772 16 9C16 9.55228 16.4477 10 17 10Z" fill="#4C241D"/>
<path d="M29 5C30.1046 5 31 4.10457 31 3C31 1.89543 30.1046 1 29 1C27.8954 1 27 1.89543 27 3C27 4.10457 27.8954 5 29 5Z" stroke="#4C241D" stroke-linecap="round" stroke-linejoin="round"/>
<path d="M12 49H1V54H12V49Z" fill="#B5A19C" stroke="#4C241D" stroke-linecap="round" stroke-linejoin="round"/>
<path d="M11 49H2L2.818 44H10.182L11 49Z" fill="#9DC1E4" stroke="#4C241D" stroke-linecap="round" stroke-linejoin="round"/>
<path d="M11 22H2L2.818 27H10.182L11 22Z" fill="#9DC1E4" stroke="#4C241D" stroke-linecap="round" stroke-linejoin="round"/>
<path d="M9 27H4V44H9V27Z" fill="#6B4F5B" stroke="#4C241D" stroke-linecap="round" stroke-linejoin="round"/>
<path d="M6.5 21.5C8.433 21.5 10 19.933 10 18C10 16.067 8.433 14.5 6.5 14.5C4.567 14.5 3 16.067 3 18C3 19.933 4.567 21.5 6.5 21.5Z" fill="#B5A19C" stroke="#4C241D" stroke-linecap="round" stroke-linejoin="round"/>
<path d="M6.5 14C7.60457 14 8.5 13.1046 8.5 12C8.5 10.8954 7.60457 10 6.5 10C5.39543 10 4.5 10.8954 4.5 12C4.5 13.1046 5.39543 14 6.5 14Z" fill="#B5A19C" stroke="#4C241D" stroke-linecap="round" stroke-linejoin="round"/>
<path d="M54 49H43V54H54V49Z" fill="#B5A19C" stroke="#4C241D" stroke-linecap="round" stroke-linejoin="round"/>
<path d="M53 49H44L44.818 44H52.182L53 49Z" fill="#9DC1E4" stroke="#4C241D" stroke-linecap="round" stroke-linejoin="round"/>
<path d="M53 22H44L44.818 27H52.182L53 22Z" fill="#9DC1E4" stroke="#4C241D" stroke-linecap="round" stroke-linejoin="round"/>
<path d="M51 27H46V44H51V27Z" fill="#6B4F5B" stroke="#4C241D" stroke-linecap="round" stroke-linejoin="round"/>
<path d="M48.5 21.5C50.433 21.5 52 19.933 52 18C52 16.067 50.433 14.5 48.5 14.5C46.567 14.5 45 16.067 45 18C45 19.933 46.567 21.5 48.5 21.5Z" fill="#B5A19C" stroke="#4C241D" stroke-linecap="round" stroke-linejoin="round"/>
<path d="M48.5 14C49.6046 14 50.5 13.1046 50.5 12C50.5 10.8954 49.6046 10 48.5 10C47.3954 10 46.5 10.8954 46.5 12C46.5 13.1046 47.3954 14 48.5 14Z" fill="#B5A19C" stroke="#4C241D" stroke-linecap="round" stroke-linejoin="round"/>
<path d="M11 46H44" stroke="#4C241D" stroke-linecap="round" stroke-linejoin="round"/>
<path d="M44.5 24.99C38.8884 22.97 32.9639 21.9577 27 22C21.4406 21.9682 15.9133 22.8423 10.635 24.588" stroke="#4C241D" stroke-linecap="round" stroke-linejoin="round"/>
<path d="M15 46V20" stroke="#4C241D" stroke-linecap="round" stroke-linejoin="round"/>
<path d="M21 46V19" stroke="#4C241D" stroke-linecap="round" stroke-linejoin="round"/>
<path d="M27 46V18" stroke="#4C241D" stroke-linecap="round" stroke-linejoin="round"/>
<path d="M33 46V19" stroke="#4C241D" stroke-linecap="round" stroke-linejoin="round"/>
<path d="M39 46V20" stroke="#4C241D" stroke-linecap="round" stroke-linejoin="round"/>
<path d="M34 8L38 12" stroke="#4C241D" stroke-linecap="round" stroke-linejoin="round"/>
<path d="M38 8L34 12" stroke="#4C241D" stroke-linecap="round" stroke-linejoin="round"/>
</svg>
