<svg width="64" height="64" viewBox="0 0 64 64" fill="none" xmlns="http://www.w3.org/2000/svg">
<path d="M15 41.463V42.878" stroke="#604225" stroke-width="2" stroke-linecap="round" stroke-linejoin="round"/>
<path d="M15 47.122V48.537" stroke="#604225" stroke-width="2" stroke-linecap="round" stroke-linejoin="round"/>
<path d="M11.463 45H12.878" stroke="#604225" stroke-width="2" stroke-linecap="round" stroke-linejoin="round"/>
<path d="M17.122 45H18.537" stroke="#604225" stroke-width="2" stroke-linecap="round" stroke-linejoin="round"/>
<path d="M22.147 11.671C23.2985 11.671 24.232 10.7375 24.232 9.58601C24.232 8.43449 23.2985 7.50101 22.147 7.50101C20.9955 7.50101 20.062 8.43449 20.062 9.58601C20.062 10.7375 20.9955 11.671 22.147 11.671Z" stroke="#604225" stroke-linecap="round" stroke-linejoin="round"/>
<path d="M50 50C50.5523 50 51 49.5523 51 49C51 48.4477 50.5523 48 50 48C49.4477 48 49 48.4477 49 49C49 49.5523 49.4477 50 50 50Z" fill="#604225"/>
<path d="M9 35H21.161L31.761 36.319C33.1949 36.5126 34.6401 36.6094 36.087 36.609L53.5 37C54.163 37 54.7989 36.7366 55.2678 36.2678C55.7366 35.7989 56 35.163 56 34.5C56 33.837 55.7366 33.2011 55.2678 32.7322C54.7989 32.2634 54.163 32 53.5 32H54C54.7957 32 55.5587 31.6839 56.1213 31.1213C56.6839 30.5587 57 29.7956 57 29C57 28.2044 56.6839 27.4413 56.1213 26.8787C55.5587 26.3161 54.7957 26 54 26H56C56.7957 26 57.5587 25.6839 58.1213 25.1213C58.6839 24.5587 59 23.7956 59 23C59 22.2044 58.6839 21.4413 58.1213 20.8787C57.5587 20.3161 56.7957 20 56 20H55C55.7957 20 56.5587 19.6839 57.1213 19.1213C57.6839 18.5587 58 17.7956 58 17C58 16.2044 57.6839 15.4413 57.1213 14.8787C56.5587 14.3161 55.7957 14 55 14H53.11L50.605 10.478C50.605 10.478 43 7 41 7C39.5674 7.06967 38.1802 7.52505 36.985 8.318L28.351 16.609L21.161 18H9" fill="#FFE8DC"/>
<path d="M9 35H21.161L31.761 36.319C33.1949 36.5126 34.6401 36.6094 36.087 36.609L53.5 37C54.163 37 54.7989 36.7366 55.2678 36.2678C55.7366 35.7989 56 35.163 56 34.5C56 33.837 55.7366 33.2011 55.2678 32.7322C54.7989 32.2634 54.163 32 53.5 32H54C54.7956 32 55.5587 31.6839 56.1213 31.1213C56.6839 30.5587 57 29.7956 57 29C57 28.2044 56.6839 27.4413 56.1213 26.8787C55.5587 26.3161 54.7956 26 54 26H56C56.7956 26 57.5587 25.6839 58.1213 25.1213C58.6839 24.5587 59 23.7956 59 23C59 22.2044 58.6839 21.4413 58.1213 20.8787C57.5587 20.3161 56.7956 20 56 20H55C55.7956 20 56.5587 19.6839 57.1213 19.1213C57.6839 18.5587 58 17.7956 58 17C58 16.2044 57.6839 15.4413 57.1213 14.8787C56.5587 14.3161 55.7956 14 55 14H53.11L50.605 10.478C50.605 10.478 43 7 41 7C39.5674 7.06967 38.1802 7.52505 36.985 8.318L28.351 16.609L21.161 18H9" stroke="#604225" stroke-linecap="round" stroke-linejoin="round"/>
<path d="M53 14H45" stroke="#604225" stroke-linecap="round" stroke-linejoin="round"/>
<path d="M55 20H53" stroke="#604225" stroke-linecap="round" stroke-linejoin="round"/>
<path d="M53 32H51" stroke="#604225" stroke-linecap="round" stroke-linejoin="round"/>
<path d="M54 26H52" stroke="#604225" stroke-linecap="round" stroke-linejoin="round"/>
<path d="M50 44C51.1046 44 52 43.1046 52 42C52 40.8954 51.1046 40 50 40C48.8954 40 48 40.8954 48 42C48 43.1046 48.8954 44 50 44Z" fill="#604225"/>
<path d="M38 51C39.1046 51 40 50.1046 40 49C40 47.8954 39.1046 47 38 47C36.8954 47 36 47.8954 36 49C36 50.1046 36.8954 51 38 51Z" fill="#604225"/>
<path d="M36.5 44C37.3284 44 38 43.3284 38 42.5C38 41.6716 37.3284 41 36.5 41C35.6716 41 35 41.6716 35 42.5C35 43.3284 35.6716 44 36.5 44Z" fill="#604225"/>
<path d="M47.5 56C48.3284 56 49 55.3284 49 54.5C49 53.6716 48.3284 53 47.5 53C46.6716 53 46 53.6716 46 54.5C46 55.3284 46.6716 56 47.5 56Z" fill="#604225"/>
<path d="M44.5 48C45.3284 48 46 47.3284 46 46.5C46 45.6716 45.3284 45 44.5 45C43.6716 45 43 45.6716 43 46.5C43 47.3284 43.6716 48 44.5 48Z" fill="#604225"/>
<path d="M43 54C43.5523 54 44 53.5523 44 53C44 52.4477 43.5523 52 43 52C42.4477 52 42 52.4477 42 53C42 53.5523 42.4477 54 43 54Z" fill="#604225"/>
<path d="M40 45C40.5523 45 41 44.5523 41 44C41 43.4477 40.5523 43 40 43C39.4477 43 39 43.4477 39 44C39 44.5523 39.4477 45 40 45Z" fill="#604225"/>
<path d="M43 60C43.5523 60 44 59.5523 44 59C44 58.4477 43.5523 58 43 58C42.4477 58 42 58.4477 42 59C42 59.5523 42.4477 60 43 60Z" fill="#604225"/>
<path d="M43 41C43.5523 41 44 40.5523 44 40C44 39.4477 43.5523 39 43 39C42.4477 39 42 39.4477 42 40C42 40.5523 42.4477 41 43 41Z" fill="#604225"/>
<path d="M39 57C39.5523 57 40 56.5523 40 56C40 55.4477 39.5523 55 39 55C38.4477 55 38 55.4477 38 56C38 56.5523 38.4477 57 39 57Z" fill="#604225"/>
</svg>
