<svg width="64" height="64" viewBox="0 0 64 64" fill="none" xmlns="http://www.w3.org/2000/svg">
<path d="M41.814 46.9501C40.1483 45.9508 38.2425 45.4227 36.3 45.4221H29.7C27.7565 45.4222 25.8496 45.9503 24.183 46.9501L23.152 47.5691L32.214 55.2141L41.814 46.9501Z" fill="white" stroke="#4C241D" stroke-linecap="round" stroke-linejoin="round"/>
<path d="M46.771 49.925L32.217 62.265L18.419 50.662L13 57.173V60H53V57.173L46.771 49.925Z" fill="white" stroke="#4C241D" stroke-linecap="round" stroke-linejoin="round"/>
<path d="M29 42H36V44.5C36 45.4283 35.6312 46.3185 34.9749 46.9749C34.3185 47.6312 33.4283 48 32.5 48C31.5717 48 30.6815 47.6312 30.0251 46.9749C29.3687 46.3185 29 45.4283 29 44.5V42Z" fill="#FFE8DC" stroke="#4C241D" stroke-linecap="round" stroke-linejoin="round"/>
<path d="M46.771 49.9249L41.814 46.95L32.217 55.214L23.155 47.569L18.419 50.6619L32.217 62.2649L46.771 49.9249Z" fill="#FFCE56" stroke="#4C241D" stroke-linecap="round" stroke-linejoin="round"/>
<path d="M42.4 30.9291C42.3234 30.5224 42.3042 30.1071 42.343 29.6951C42.3533 29.1407 42.1758 28.599 41.8391 28.1584C41.5025 27.7177 41.0266 27.4039 40.489 27.2681C35.0405 25.9648 29.3419 26.1492 23.989 27.8021C23.6528 27.9099 23.361 28.1245 23.158 28.4133C22.9549 28.7021 22.8517 29.0493 22.864 29.4021C22.9146 29.9109 22.8992 30.4242 22.818 30.9291C22.5548 30.9292 22.2944 30.9823 22.0522 31.0853C21.81 31.1883 21.591 31.339 21.4084 31.5285C21.2257 31.7179 21.0831 31.9423 20.9891 32.1881C20.895 32.4339 20.8515 32.6961 20.861 32.9591C20.8847 33.2708 20.9809 33.5727 21.1418 33.8408C21.3027 34.1088 21.524 34.3356 21.788 34.5031C22.0218 34.6768 22.2954 34.7891 22.5838 34.8298C22.8722 34.8705 23.1662 34.8383 23.439 34.7361C23.8257 36.6276 24.7083 38.3823 25.9963 39.8206C27.2843 41.2588 28.9314 42.3288 30.769 42.9211C31.864 43.2617 33.0383 43.2494 34.126 42.8861L34.474 42.7731C36.2846 42.1852 37.9096 41.133 39.1869 39.7215C40.4642 38.3099 41.3493 36.5883 41.754 34.7281C42.0221 34.8309 42.3109 34.8676 42.5962 34.8353C42.8815 34.8029 43.1548 34.7023 43.393 34.5421C43.6456 34.3927 43.8621 34.1892 44.0268 33.9463C44.1916 33.7034 44.3006 33.4271 44.346 33.1371C44.3812 32.8609 44.3572 32.5803 44.2755 32.314C44.1938 32.0478 44.0563 31.8021 43.8722 31.5931C43.688 31.3842 43.4615 31.2169 43.2077 31.1024C42.9538 30.9879 42.6785 30.9288 42.4 30.9291V30.9291Z" fill="#FFE8DC" stroke="#4C241D" stroke-linecap="round" stroke-linejoin="round"/>
<path d="M42 27.3C42 14.866 22.958 15.65 23 25.7C23 26.829 23.028 28.054 23.017 28.9C23.9899 28.96 24.9647 28.8164 25.879 28.4784C26.7933 28.1404 27.6271 27.6154 28.327 26.937C30.544 31.364 36.721 33.179 42 28.937V27.3Z" fill="#6B4F5B" stroke="#4C241D" stroke-linecap="round" stroke-linejoin="round"/>
<path d="M33.324 38.3859C33.1767 38.5295 33.0025 38.6427 32.8115 38.7189C32.6204 38.7952 32.4162 38.833 32.2105 38.8303C32.0048 38.8276 31.8017 38.7844 31.6127 38.7032C31.4237 38.622 31.2525 38.5043 31.109 38.3569" stroke="#4C241D" stroke-linecap="round" stroke-linejoin="round"/>
<path d="M42.277 19.901L44.781 9.27L35 2L35.35 16.437L42.277 19.901Z" fill="white" stroke="#4C241D" stroke-linecap="round" stroke-linejoin="round"/>
<path d="M30 2L20.508 8.159L22.527 20.031L29.816 16.829L30 2Z" fill="white" stroke="#4C241D" stroke-linecap="round" stroke-linejoin="round"/>
<path d="M35 16V2H30V16L22.527 20.031L23 23H42L42.277 19.901L35 16Z" fill="#FFCE56" stroke="#4C241D" stroke-linecap="round" stroke-linejoin="round"/>
<path d="M61.069 11.0966C61.6594 11.0966 62.138 10.6272 62.138 10.0483C62.138 9.46933 61.6594 9 61.069 9C60.4786 9 60 9.46933 60 10.0483C60 10.6272 60.4786 11.0966 61.069 11.0966Z" fill="#4C241D"/>
<path d="M1.069 19.0385C1.65939 19.0385 2.138 18.5691 2.138 17.9902C2.138 17.4112 1.65939 16.9419 1.069 16.9419C0.478608 16.9419 0 17.4112 0 17.9902C0 18.5691 0.478608 19.0385 1.069 19.0385Z" fill="#4C241D"/>
<path d="M10.069 31.6699C10.6594 31.6699 11.138 31.2006 11.138 30.6217C11.138 30.0428 10.6594 29.5735 10.069 29.5735C9.47861 29.5735 9 30.0428 9 30.6217C9 31.2006 9.47861 31.6699 10.069 31.6699Z" fill="#4C241D"/>
<path d="M11.5 12.903C12.8807 12.903 14 11.8054 14 10.4515C14 9.09758 12.8807 8 11.5 8C10.1193 8 9 9.09758 9 10.4515C9 11.8054 10.1193 12.903 11.5 12.903Z" stroke="#4C241D" stroke-linecap="round" stroke-linejoin="round"/>
<path d="M53 33.4958V35.4571" stroke="#4C241D" stroke-linecap="round" stroke-linejoin="round"/>
<path d="M53 39.3794V41.3405" stroke="#4C241D" stroke-linecap="round" stroke-linejoin="round"/>
<path d="M49 37.4182H51" stroke="#4C241D" stroke-linecap="round" stroke-linejoin="round"/>
<path d="M55 37.4182H57" stroke="#4C241D" stroke-linecap="round" stroke-linejoin="round"/>
</svg>
