<svg width="107" height="98" viewBox="0 0 107 98" fill="none" xmlns="http://www.w3.org/2000/svg">
<path d="M37.8718 79.2748C58.7879 79.2748 75.7437 62.6479 75.7437 42.1374C75.7437 21.627 58.7879 5 37.8718 5C16.9558 5 0 21.627 0 42.1374C0 62.6479 16.9558 79.2748 37.8718 79.2748Z" fill="#E5EFEF"/>
<path d="M39.2679 18.0357C40.2639 18.0357 41.0714 17.2282 41.0714 16.2321C41.0714 15.236 40.2639 14.4286 39.2679 14.4286C38.2718 14.4286 37.4643 15.236 37.4643 16.2321C37.4643 17.2282 38.2718 18.0357 39.2679 18.0357Z" fill="#4C241D"/>
<path d="M60.9107 14.0178C62.9029 14.0178 64.5179 12.4029 64.5179 10.4107C64.5179 8.41853 62.9029 6.80356 60.9107 6.80356C58.9185 6.80356 57.3036 8.41853 57.3036 10.4107C57.3036 12.4029 58.9185 14.0178 60.9107 14.0178Z" stroke="#4C241D" stroke-linecap="round" stroke-linejoin="round"/>
<path d="M30.25 88.375H10.4107V97.3929H30.25V88.375Z" fill="#B5A19C" stroke="#4C241D" stroke-linecap="round" stroke-linejoin="round"/>
<path d="M28.4464 88.375H12.2143L13.6896 79.3571H26.9711L28.4464 88.375Z" fill="#9DC1E4" stroke="#4C241D" stroke-linecap="round" stroke-linejoin="round"/>
<path d="M28.4464 39.6786H12.2143L13.6896 48.6964H26.9711L28.4464 39.6786Z" fill="#9DC1E4" stroke="#4C241D" stroke-linecap="round" stroke-linejoin="round"/>
<path d="M24.8393 48.6964H15.8214V79.3571H24.8393V48.6964Z" fill="#6B4F5B" stroke="#4C241D" stroke-linecap="round" stroke-linejoin="round"/>
<path d="M20.3304 38.7768C23.8167 38.7768 26.6429 35.9506 26.6429 32.4643C26.6429 28.978 23.8167 26.1518 20.3304 26.1518C16.8441 26.1518 14.0179 28.978 14.0179 32.4643C14.0179 35.9506 16.8441 38.7768 20.3304 38.7768Z" fill="#B5A19C" stroke="#4C241D" stroke-linecap="round" stroke-linejoin="round"/>
<path d="M20.3304 25.25C22.3225 25.25 23.9375 23.635 23.9375 21.6428C23.9375 19.6507 22.3225 18.0357 20.3304 18.0357C18.3382 18.0357 16.7232 19.6507 16.7232 21.6428C16.7232 23.635 18.3382 25.25 20.3304 25.25Z" fill="#B5A19C" stroke="#4C241D" stroke-linecap="round" stroke-linejoin="round"/>
<path d="M106 88.375H86.1607V97.3929H106V88.375Z" fill="#B5A19C" stroke="#4C241D" stroke-linecap="round" stroke-linejoin="round"/>
<path d="M104.196 88.375H87.9643L89.4396 79.3571H102.721L104.196 88.375Z" fill="#9DC1E4" stroke="#4C241D" stroke-linecap="round" stroke-linejoin="round"/>
<path d="M104.196 39.6786H87.9643L89.4396 48.6964H102.721L104.196 39.6786Z" fill="#9DC1E4" stroke="#4C241D" stroke-linecap="round" stroke-linejoin="round"/>
<path d="M100.589 48.6964H91.5714V79.3571H100.589V48.6964Z" fill="#6B4F5B" stroke="#4C241D" stroke-linecap="round" stroke-linejoin="round"/>
<path d="M96.0804 38.7768C99.5667 38.7768 102.393 35.9506 102.393 32.4643C102.393 28.978 99.5667 26.1518 96.0804 26.1518C92.5941 26.1518 89.7679 28.978 89.7679 32.4643C89.7679 35.9506 92.5941 38.7768 96.0804 38.7768Z" fill="#B5A19C" stroke="#4C241D" stroke-linecap="round" stroke-linejoin="round"/>
<path d="M96.0804 25.25C98.0725 25.25 99.6875 23.635 99.6875 21.6428C99.6875 19.6507 98.0725 18.0357 96.0804 18.0357C94.0882 18.0357 92.4732 19.6507 92.4732 21.6428C92.4732 23.635 94.0882 25.25 96.0804 25.25Z" fill="#B5A19C" stroke="#4C241D" stroke-linecap="round" stroke-linejoin="round"/>
<path d="M28.4464 82.9643H87.9643" stroke="#4C241D" stroke-linecap="round" stroke-linejoin="round"/>
<path d="M88.8661 45.0712C78.7452 41.4279 68.06 39.6023 57.3036 39.6785C47.2769 39.6212 37.3078 41.1978 27.7881 44.3462" stroke="#4C241D" stroke-linecap="round" stroke-linejoin="round"/>
<path d="M35.6607 82.9643V36.0714" stroke="#4C241D" stroke-linecap="round" stroke-linejoin="round"/>
<path d="M46.4821 82.9643V34.2679" stroke="#4C241D" stroke-linecap="round" stroke-linejoin="round"/>
<path d="M57.3036 82.9643V32.4643" stroke="#4C241D" stroke-linecap="round" stroke-linejoin="round"/>
<path d="M68.125 82.9643V34.2679" stroke="#4C241D" stroke-linecap="round" stroke-linejoin="round"/>
<path d="M78.9464 82.9643V36.0714" stroke="#4C241D" stroke-linecap="round" stroke-linejoin="round"/>
<path d="M69.9286 14.4286L77.1429 21.6428" stroke="#4C241D" stroke-linecap="round" stroke-linejoin="round"/>
<path d="M77.1429 14.4286L69.9286 21.6428" stroke="#4C241D" stroke-linecap="round" stroke-linejoin="round"/>
</svg>
