<svg width="64" height="64" viewBox="0 0 64 64" fill="none" xmlns="http://www.w3.org/2000/svg">
<path d="M47.971 44.485C47.1961 43.7172 46.2251 43.1772 45.164 42.924C46.189 42.1713 46.9472 41.1112 47.3282 39.898C47.7093 38.6847 47.6934 37.3815 47.2828 36.1779C46.8722 34.9743 46.0884 33.9331 45.0453 33.2056C44.0023 32.4782 42.7543 32.1024 41.483 32.133C42.05 31.8561 42.5692 31.4905 43.021 31.05C44.1311 29.9217 44.7503 28.4005 44.7439 26.8176C44.7375 25.2348 44.1058 23.7187 42.9866 22.5994C41.8674 21.4802 40.3512 20.8486 38.7684 20.8421C37.1856 20.8357 35.6643 21.4549 34.536 22.565C34.0953 23.0156 33.7297 23.5338 33.453 24.1C33.4751 23.1073 33.2505 22.1246 32.7994 21.24C32.3482 20.3555 31.6845 19.5967 30.8679 19.0318C30.0513 18.4669 29.1072 18.1135 28.1204 18.0033C27.1336 17.8931 26.1348 18.0295 25.2137 18.4004C24.2926 18.7712 23.4779 19.3649 22.8427 20.1281C22.2075 20.8914 21.7716 21.8003 21.5742 22.7735C21.3768 23.7466 21.4241 24.7535 21.7116 25.704C21.9992 26.6544 22.5182 27.5186 23.222 28.219V28.219C22.5214 27.516 21.6573 26.9977 20.7071 26.7107C19.757 26.4237 18.7504 26.3769 17.7778 26.5744C16.8051 26.772 15.8966 27.2078 15.1337 27.8428C14.3708 28.4777 13.7774 29.292 13.4066 30.2127C13.0357 31.1334 12.8991 32.1317 13.0089 33.1182C13.1187 34.1046 13.4715 35.0484 14.0357 35.865C14.6 36.6816 15.3579 37.3455 16.2418 37.7972C17.1256 38.2488 18.1077 38.4742 19.1 38.453C18.5327 38.7294 18.0134 39.0951 17.562 39.536C16.4519 40.6643 15.8327 42.1856 15.8391 43.7684C15.8455 45.3512 16.4772 46.8674 17.5964 47.9866C18.7156 49.1058 20.2318 49.7375 21.8146 49.7439C23.3974 49.7504 24.9187 49.1311 26.047 48.021C26.4875 47.5692 26.8531 47.05 27.13 46.483C27.0697 47.7677 27.4284 49.0372 28.1521 50.1004C28.8757 51.1636 29.9251 51.963 31.1424 52.3782C32.3596 52.7935 33.6788 52.802 34.9013 52.4027C36.1238 52.0034 37.1836 51.2177 37.921 50.164C38.1427 51.0612 38.5691 51.8949 39.1666 52.6C39.7641 53.305 40.5167 53.8623 41.3654 54.2281C42.214 54.594 43.1359 54.7585 44.0587 54.7089C44.9816 54.6593 45.8805 54.3968 46.685 53.942C47.4896 53.4873 48.178 52.8525 48.6965 52.0875C49.2149 51.3224 49.5494 50.4478 49.6736 49.5319C49.7979 48.6161 49.7085 47.684 49.4126 46.8085C49.1168 45.9329 48.6223 45.1377 47.968 44.485H47.971Z" fill="#BD53B5" stroke="#4C241D" stroke-linecap="round" stroke-linejoin="round"/>
<path d="M22.515 27.515L19.45 24.45C17.7767 22.7766 16.5326 20.7237 15.8236 18.4659C15.1146 16.2082 14.9617 13.8125 15.378 11.483V11.483C15.4504 11.0781 15.6162 10.6957 15.8623 10.3661C16.1084 10.0365 16.4279 9.76884 16.7956 9.58439C17.1632 9.39994 17.5688 9.30377 17.9801 9.30353C18.3914 9.30328 18.7971 9.39897 19.165 9.58297V9.58297C19.5116 9.75635 19.8158 10.0037 20.0563 10.3076C20.2967 10.6115 20.4675 10.9646 20.5565 11.3417C20.6455 11.7189 20.6505 12.111 20.5713 12.4903C20.4921 12.8697 20.3305 13.227 20.098 13.537L20.024 13.637C19.7193 14.0447 19.3035 14.356 18.8263 14.5333C18.3492 14.7107 17.8311 14.7467 17.334 14.637L10 13M7 23C10.989 21.8681 15.2534 22.2234 19 24" stroke="#4C241D" stroke-linecap="round" stroke-linejoin="round"/>
<path d="M38.649 31.8C37.517 31.9647 36.3646 31.6974 35.4206 31.0514C34.4766 30.4053 33.8103 29.4278 33.554 28.313M33 42C34.3261 42 35.5978 42.5268 36.5355 43.4645C37.4732 44.4021 38 45.6739 38 47M25.354 31.489C25.506 32.1279 25.5307 32.7905 25.4266 33.4389C25.3226 34.0873 25.0918 34.7089 24.7474 35.2681C24.4031 35.8273 23.952 36.3132 23.4198 36.6981C22.8877 37.0829 22.2849 37.3591 21.646 37.511" fill="#BD53B5"/>
<path d="M38.649 31.8C37.517 31.9647 36.3646 31.6974 35.4206 31.0514C34.4766 30.4053 33.8103 29.4278 33.554 28.313M33 42C34.3261 42 35.5978 42.5268 36.5355 43.4645C37.4732 44.4021 38 45.6739 38 47M25.354 31.489C25.506 32.1279 25.5307 32.7905 25.4266 33.4389C25.3226 34.0873 25.0918 34.7089 24.7474 35.2681C24.4031 35.8273 23.952 36.3132 23.4198 36.6981C22.8877 37.0829 22.2849 37.3591 21.646 37.511" stroke="#4C241D" stroke-linecap="round" stroke-linejoin="round"/>
<path d="M50.501 6.49902L49.501 7.49902" stroke="#4C241D" stroke-linecap="round" stroke-linejoin="round"/>
<path d="M46.499 10.501L45.499 11.501" stroke="#4C241D" stroke-linecap="round" stroke-linejoin="round"/>
<path d="M45.499 6.49902L46.499 7.49902" stroke="#4C241D" stroke-linecap="round" stroke-linejoin="round"/>
<path d="M49.501 10.501L50.501 11.501" stroke="#4C241D" stroke-linecap="round" stroke-linejoin="round"/>
<path d="M8.5 58C9.88071 58 11 56.8807 11 55.5C11 54.1193 9.88071 53 8.5 53C7.11929 53 6 54.1193 6 55.5C6 56.8807 7.11929 58 8.5 58Z" stroke="#4C241D" stroke-linecap="round" stroke-linejoin="round"/>
<path d="M55.5 20.569C56.0904 20.569 56.569 20.0904 56.569 19.5C56.569 18.9096 56.0904 18.431 55.5 18.431C54.9096 18.431 54.431 18.9096 54.431 19.5C54.431 20.0904 54.9096 20.569 55.5 20.569Z" fill="#4C241D"/>
<path d="M5.5 38.569C6.09039 38.569 6.569 38.0904 6.569 37.5C6.569 36.9096 6.09039 36.431 5.5 36.431C4.90961 36.431 4.431 36.9096 4.431 37.5C4.431 38.0904 4.90961 38.569 5.5 38.569Z" fill="#4C241D"/>
<path d="M23.5 58.569C24.0904 58.569 24.569 58.0904 24.569 57.5C24.569 56.9096 24.0904 56.431 23.5 56.431C22.9096 56.431 22.431 56.9096 22.431 57.5C22.431 58.0904 22.9096 58.569 23.5 58.569Z" fill="#4C241D"/>
<path d="M28.006 20.655C26.6484 24.5866 21.3925 26.3377 21.3925 26.3377C21.3925 26.3377 18.3416 21.7165 19.6992 17.785C21.0569 13.8534 26.3128 12.1023 26.3128 12.1023C26.3128 12.1023 29.3632 16.7254 28.006 20.655Z" fill="#A9BA5A" stroke="#4C241D" stroke-linecap="round" stroke-linejoin="round"/>
</svg>
