<svg width="267" height="47" viewBox="0 0 267 47" fill="none" xmlns="http://www.w3.org/2000/svg">
<path d="M1.2558 5.4291C0.602097 5.5971 0 6.22326 0 6.74252C0 6.94106 0.103217 7.32286 0.240839 7.59776C0.361258 7.87267 3.54377 11.4922 7.29397 15.6462C14.7772 23.9391 14.8288 24.0154 14.846 25.955C14.8804 27.9404 14.932 27.864 7.34558 36.2943C3.54377 40.5094 0.326852 44.1748 0.223636 44.4039C-0.068811 44.9537 -0.0516083 45.3507 0.258041 45.87C0.774124 46.7558 -0.103217 46.7252 21.3314 46.7252C40.9598 46.7252 41.0286 46.7252 41.8027 46.4045C42.2328 46.2365 42.8177 45.9005 43.1273 45.6715C43.7638 45.198 44.5207 43.8999 44.5896 43.1363V39.3653L43.1273 41.1356C41.7167 41.0134 40.7189 41.9145 39.3943 41.1356C38.1385 40.372 37.1752 39.4098 36.3838 38.0659C35.2485 36.1569 35.2657 36.5539 35.2657 20.1057V5.26111L18.5446 5.27638C8.89383 5.27638 1.58265 5.35274 1.2558 5.4291Z" fill="#0EAFE1"/>
<path d="M230.964 20.1057C230.964 36.5539 230.981 36.1568 229.846 38.0659C229.055 39.4098 228.677 38.6017 227.421 39.3653C226.097 40.1442 225.187 39.8212 223.776 39.9434L221.64 40.5214L221.64 43.1362C221.709 43.8999 222.466 45.198 223.103 45.6714C223.412 45.9005 223.997 46.2365 224.427 46.4045C225.201 46.7252 225.27 46.7252 244.898 46.7252C261.052 46.7252 264.699 46.6947 265.146 46.5114C266.127 46.1449 266.471 45.3202 266.023 44.4038C265.903 44.1748 262.721 40.54 258.936 36.3554C255.169 32.1555 251.969 28.4902 251.831 28.2C251.143 26.7491 251.195 24.9012 251.952 23.5878C252.124 23.2976 255.323 19.6475 259.074 15.4935C263.615 10.4537 265.955 7.7352 266.092 7.35339C266.333 6.63559 266.144 6.10107 265.49 5.65817C265.008 5.33746 264.974 5.33746 247.978 5.29164L230.964 5.26109V20.1057Z" fill="#0EAFE1"/>
<path d="M38.8914 1.00539C37.528 1.38932 36.0915 2.32613 35.4341 3.2015C35.0202 3.75437 34.9958 4.8601 34.9958 21.4461C34.9958 38.109 35.0202 39.1379 35.4341 39.6908C36.0915 40.5815 37.6741 41.5644 39.0132 41.933L40.2062 42.2555L134.504 42.2247L228.801 42.1787L229.775 41.8408C231.066 41.4108 232.186 40.6429 232.794 39.7983C233.281 39.1225 233.306 38.8768 233.306 21.5383C233.306 8.51517 233.233 3.8158 233.013 3.37043C232.624 2.52578 230.993 1.43539 229.532 1.00539L228.314 0.63681H134.212H40.1088L38.8914 1.00539Z" fill="#0798C6"/>
</svg>
