<svg width="170" height="170" viewBox="0 0 170 170" fill="none" xmlns="http://www.w3.org/2000/svg">
<path d="M83.6719 143.438C115.213 143.438 140.781 117.869 140.781 86.3281C140.781 54.7875 115.213 29.2188 83.6719 29.2188C52.1312 29.2188 26.5625 54.7875 26.5625 86.3281C26.5625 117.869 52.1312 143.438 83.6719 143.438Z" fill="#BFE7F4"/>
<path d="M66.4062 50.4688C67.8733 50.4688 69.0625 49.2795 69.0625 47.8125C69.0625 46.3455 67.8733 45.1562 66.4062 45.1562C64.9392 45.1562 63.75 46.3455 63.75 47.8125C63.75 49.2795 64.9392 50.4688 66.4062 50.4688Z" fill="#4C241D"/>
<path d="M87.6562 26.5625C89.1233 26.5625 90.3125 25.3733 90.3125 23.9062C90.3125 22.4392 89.1233 21.25 87.6562 21.25C86.1892 21.25 85 22.4392 85 23.9062C85 25.3733 86.1892 26.5625 87.6562 26.5625Z" fill="#4C241D"/>
<path d="M31.875 17.1674V20.926" stroke="#4C241D" stroke-linecap="round" stroke-linejoin="round"/>
<path d="M31.875 32.1991V35.9577" stroke="#4C241D" stroke-linecap="round" stroke-linejoin="round"/>
<path d="M22.4799 26.5625H26.2385" stroke="#4C241D" stroke-linecap="round" stroke-linejoin="round"/>
<path d="M37.5116 26.5625H41.2702" stroke="#4C241D" stroke-linecap="round" stroke-linejoin="round"/>
<path d="M120.859 29.2188C124.527 29.2188 127.5 26.2456 127.5 22.5781C127.5 18.9106 124.527 15.9375 120.859 15.9375C117.192 15.9375 114.219 18.9106 114.219 22.5781C114.219 26.2456 117.192 29.2188 120.859 29.2188Z" stroke="#4C241D" stroke-linecap="round" stroke-linejoin="round"/>
<path d="M143.005 54.8861L133.245 64.6452" stroke="#4C241D" stroke-linecap="round" stroke-linejoin="round"/>
<path d="M133.245 54.8861L143.005 64.6452" stroke="#4C241D" stroke-linecap="round" stroke-linejoin="round"/>
<path d="M94.8573 132.812H57.9833C54.8263 132.812 51.7505 131.812 49.1964 129.957L2.65625 90.3125H130.156L107.876 125.2C106.576 127.509 104.685 129.432 102.398 130.769C100.11 132.107 97.5075 132.812 94.8573 132.812Z" fill="#FFCE56" stroke="#4C241D" stroke-linecap="round" stroke-linejoin="round"/>
<path d="M64.5469 79.6875H86.8594C89.1842 79.6875 91.4137 80.611 93.0576 82.2549C94.7015 83.8988 95.625 86.1283 95.625 88.4531V90.3125H55.7812V88.4531C55.7812 86.1283 56.7048 83.8988 58.3486 82.2549C59.9925 80.611 62.2221 79.6875 64.5469 79.6875Z" fill="#FC8C29" stroke="#4C241D" stroke-linecap="round" stroke-linejoin="round"/>
<path d="M75.7031 55.7812C77.4643 55.7812 79.1534 56.4809 80.3988 57.7262C81.6441 58.9716 82.3438 60.6607 82.3438 62.4219V79.6875H69.0625V62.4219C69.0625 60.6607 69.7621 58.9716 71.0075 57.7262C72.2529 56.4809 73.9419 55.7813 75.7031 55.7812Z" fill="#FFCE56" stroke="#4C241D" stroke-linecap="round" stroke-linejoin="round"/>
<path d="M82.3438 69.0625H98.8842C100.898 69.0622 102.892 69.4586 104.753 70.2291C106.614 70.9996 108.304 72.1291 109.728 73.5531C111.152 74.9771 112.282 76.6677 113.052 78.5284C113.823 80.389 114.219 82.3832 114.219 84.397V89.1411M66.4062 69.0625H49.8658C47.8519 69.0622 45.8577 69.4586 43.9971 70.2291C42.1365 70.9996 40.4459 72.1291 39.0219 73.5531C37.5978 74.9771 36.4683 76.6677 35.6978 78.5284C34.9273 80.389 34.5309 82.3832 34.5313 84.397V89.1411L66.4062 69.0625Z" stroke="#4C241D" stroke-linecap="round" stroke-linejoin="round"/>
<path d="M18.5938 103.594H58.4375" stroke="#4C241D" stroke-linecap="round" stroke-linejoin="round"/>
<path d="M66.4062 103.594H82.3438" stroke="#4C241D" stroke-linecap="round" stroke-linejoin="round"/>
<path d="M87.6562 143.438C86.2473 143.438 84.896 142.878 83.8997 141.882C82.9035 140.885 82.3438 139.534 82.3438 138.125V132.812H69.0625V138.125C69.0625 139.534 68.5028 140.885 67.5065 141.882C66.5102 142.878 65.159 143.438 63.75 143.438C61.6366 143.438 59.6097 144.277 58.1152 145.771C56.6208 147.266 55.7813 149.293 55.7812 151.406H95.625C95.625 149.293 94.7854 147.266 93.291 145.771C91.7966 144.277 89.7697 143.438 87.6562 143.438Z" fill="#FC8C29" stroke="#4C241D" stroke-linecap="round" stroke-linejoin="round"/>
<path d="M127.5 90.3125H159.375C161.488 90.3125 163.515 91.1521 165.01 92.6465C166.504 94.1409 167.344 96.1678 167.344 98.2812V106.25C167.344 108.363 166.504 110.39 165.01 111.885C163.515 113.379 161.488 114.219 159.375 114.219H156.719C154.605 114.219 152.578 113.379 151.084 111.885C149.59 110.39 148.75 108.363 148.75 106.25V106.25" stroke="#4C241D" stroke-linecap="round" stroke-linejoin="round"/>
<path d="M26.5625 151.406H130.156" stroke="#4C241D" stroke-linecap="round" stroke-linejoin="round"/>
</svg>
