<svg width="170" height="170" viewBox="0 0 170 170" fill="none" xmlns="http://www.w3.org/2000/svg">
<path d="M95.1094 127.219C126.65 127.219 152.219 101.65 152.219 70.1094C152.219 38.5687 126.65 13 95.1094 13C63.5687 13 38 38.5687 38 70.1094C38 101.65 63.5687 127.219 95.1094 127.219Z" fill="#BFE7F4"/>
<path d="M127.423 118.163C125.365 116.124 122.785 114.689 119.967 114.017C122.69 112.017 124.703 109.202 125.716 105.979C126.728 102.756 126.686 99.2946 125.595 96.0976C124.504 92.9005 122.422 90.1347 119.652 88.2024C116.881 86.2701 113.566 85.272 110.189 85.3533C111.695 84.6177 113.074 83.6466 114.275 82.4765C117.223 79.4795 118.868 75.4386 118.851 71.2343C118.834 67.0299 117.156 63.0026 114.183 60.0297C111.21 57.0567 107.183 55.3789 102.979 55.3618C98.7741 55.3447 94.7333 56.9896 91.7362 59.9383C90.5657 61.135 89.5945 62.5116 88.8595 64.0156C88.9183 61.3787 88.3218 58.7684 87.1233 56.4188C85.9249 54.0692 84.1621 52.0538 81.9929 50.5532C79.8238 49.0527 77.3161 48.114 74.6948 47.8212C72.0735 47.5285 69.4206 47.8909 66.9738 48.876C64.5271 49.861 62.3631 51.4379 60.6759 53.4653C58.9886 55.4926 57.8309 57.907 57.3066 60.4919C56.7823 63.0769 56.9076 65.7515 57.6715 68.2761C58.4354 70.8006 59.8139 73.0961 61.6834 74.9567V74.9567C59.8224 73.0892 57.5271 71.7126 55.0033 70.9503C52.4794 70.1879 49.8059 70.0635 47.2222 70.5883C44.6385 71.1131 42.2253 72.2707 40.1989 73.9573C38.1725 75.6439 36.5962 77.8069 35.6112 80.2525C34.6262 82.698 34.2633 85.3498 34.555 87.97C34.8466 90.5903 35.7838 93.0973 37.2825 95.2664C38.7811 97.4355 40.7945 99.1989 43.1422 100.399C45.4899 101.598 48.0985 102.197 50.7344 102.141C49.2275 102.875 47.8482 103.846 46.6491 105.017C43.7004 108.015 42.0555 112.055 42.0726 116.26C42.0897 120.464 43.7675 124.491 46.7405 127.464C49.7134 130.437 53.7407 132.115 57.9451 132.132C62.1495 132.149 66.1903 130.504 69.1873 127.556C70.3574 126.356 71.3285 124.977 72.0641 123.47C71.904 126.883 72.8568 130.255 74.7789 133.079C76.7011 135.903 79.4886 138.027 82.7219 139.13C85.9552 140.233 89.4592 140.255 92.7066 139.195C95.954 138.134 98.7689 136.047 100.728 133.248C101.317 135.631 102.449 137.846 104.036 139.719C105.623 141.591 107.622 143.072 109.877 144.043C112.131 145.015 114.58 145.452 117.031 145.32C119.482 145.189 121.87 144.491 124.007 143.283C126.144 142.075 127.973 140.389 129.35 138.357C130.727 136.325 131.616 134.002 131.946 131.569C132.276 129.137 132.038 126.661 131.252 124.335C130.466 122.009 129.153 119.897 127.415 118.163H127.423Z" fill="#BD53B5" stroke="#4C241D" stroke-linecap="round" stroke-linejoin="round"/>
<path d="M59.8055 73.0867L51.6641 64.9453C47.2193 60.5005 43.9146 55.0473 42.0314 49.0502C40.1481 43.053 39.742 36.6896 40.8478 30.5017V30.5017C41.0401 29.4262 41.4806 28.4104 42.1342 27.535C42.7879 26.6595 43.6367 25.9486 44.6133 25.4586C45.5898 24.9687 46.6671 24.7132 47.7597 24.7126C48.8523 24.7119 49.9299 24.9661 50.907 25.4549V25.4549C51.8276 25.9154 52.6358 26.5725 53.2745 27.3798C53.9132 28.187 54.3667 29.1247 54.6031 30.1265C54.8395 31.1284 54.853 32.1699 54.6425 33.1775C54.4321 34.1851 54.0029 35.1342 53.3853 35.9577L53.1888 36.2233C52.3794 37.3064 51.2749 38.1331 50.0075 38.6043C48.7401 39.0754 47.3638 39.171 46.0434 38.8796L26.5625 34.5313M18.5938 61.0938C29.1896 58.0871 40.5167 59.0311 50.4688 63.75" stroke="#4C241D" stroke-linecap="round" stroke-linejoin="round"/>
<path d="M102.661 84.4688C99.6546 84.9062 96.5934 84.1964 94.0859 82.4803C91.5785 80.7642 89.8086 78.1676 89.1278 75.2064M87.6563 111.563C91.1787 111.563 94.5568 112.962 97.0475 115.453C99.5382 117.943 100.938 121.321 100.938 124.844M67.3466 83.6427C67.7504 85.3397 67.816 87.0997 67.5395 88.8221C67.2631 90.5444 66.65 92.1955 65.7354 93.6809C64.8208 95.1663 63.6225 96.457 62.2089 97.4792C60.7954 98.5015 59.1943 99.2352 57.4972 99.6386" fill="#BD53B5"/>
<path d="M102.661 84.4688C99.6546 84.9062 96.5934 84.1964 94.0859 82.4803C91.5785 80.7642 89.8086 78.1676 89.1278 75.2064M87.6563 111.563C91.1787 111.563 94.5568 112.962 97.0475 115.453C99.5382 117.943 100.938 121.321 100.938 124.844M67.3466 83.6427C67.7504 85.3397 67.816 87.0997 67.5395 88.8221C67.2631 90.5444 66.65 92.1955 65.7354 93.6809C64.8208 95.1663 63.6225 96.457 62.2089 97.4792C60.7954 98.5015 59.1943 99.2352 57.4972 99.6386" stroke="#4C241D" stroke-linecap="round" stroke-linejoin="round"/>
<path d="M134.143 17.2629L131.487 19.9192" stroke="#4C241D" stroke-linecap="round" stroke-linejoin="round"/>
<path d="M123.513 27.8933L120.857 30.5496" stroke="#4C241D" stroke-linecap="round" stroke-linejoin="round"/>
<path d="M120.857 17.2629L123.513 19.9192" stroke="#4C241D" stroke-linecap="round" stroke-linejoin="round"/>
<path d="M131.487 27.8933L134.143 30.5496" stroke="#4C241D" stroke-linecap="round" stroke-linejoin="round"/>
<path d="M22.5781 154.062C26.2456 154.062 29.2188 151.089 29.2188 147.422C29.2188 143.754 26.2456 140.781 22.5781 140.781C18.9106 140.781 15.9375 143.754 15.9375 147.422C15.9375 151.089 18.9106 154.062 22.5781 154.062Z" stroke="#4C241D" stroke-linecap="round" stroke-linejoin="round"/>
<path d="M147.422 54.6364C148.99 54.6364 150.261 53.3651 150.261 51.7969C150.261 50.2286 148.99 48.9573 147.422 48.9573C145.854 48.9573 144.582 50.2286 144.582 51.7969C144.582 53.3651 145.854 54.6364 147.422 54.6364Z" fill="#4C241D"/>
<path d="M14.6094 102.449C16.1776 102.449 17.4489 101.178 17.4489 99.6094C17.4489 98.0411 16.1776 96.7698 14.6094 96.7698C13.0411 96.7698 11.7698 98.0411 11.7698 99.6094C11.7698 101.178 13.0411 102.449 14.6094 102.449Z" fill="#4C241D"/>
<path d="M62.4219 155.574C63.9901 155.574 65.2614 154.303 65.2614 152.734C65.2614 151.166 63.9901 149.895 62.4219 149.895C60.8536 149.895 59.5823 151.166 59.5823 152.734C59.5823 154.303 60.8536 155.574 62.4219 155.574Z" fill="#4C241D"/>
<path d="M74.391 54.8649C70.7847 65.3081 56.8238 69.9596 56.8238 69.9596C56.8238 69.9596 48.7199 57.6845 52.3261 47.2413C55.9324 36.7981 69.8933 32.1466 69.8933 32.1466C69.8933 32.1466 77.9961 44.4269 74.391 54.8649Z" fill="#A9BA5A" stroke="#4C241D" stroke-linecap="round" stroke-linejoin="round"/>
</svg>
