<svg width="61" height="61" viewBox="0 0 61 61" fill="none" xmlns="http://www.w3.org/2000/svg">
<path d="M39.0781 59.0938H4.76562V51.4278C4.76573 49.7377 5.25597 48.0839 6.17693 46.6667C7.09788 45.2496 8.41005 44.1299 9.95444 43.4434L21.9219 38.125L33.8893 43.4434C35.4337 44.1299 36.7459 45.2496 37.6668 46.6667C38.5878 48.0839 39.078 49.7377 39.0781 51.4278V59.0938Z" fill="#BF7E68" stroke="#4C241D" stroke-linecap="round" stroke-linejoin="round"/>
<path d="M18.1094 37.6484H25.7344V39.5547C25.7344 40.5658 25.3327 41.5355 24.6177 42.2505C23.9027 42.9655 22.933 43.3672 21.9219 43.3672C20.9107 43.3672 19.941 42.9655 19.226 42.2505C18.511 41.5355 18.1094 40.5658 18.1094 39.5547V37.6484Z" fill="#E7D1C4" stroke="#4C241D" stroke-width="2" stroke-linecap="round" stroke-linejoin="round"/>
<path d="M25.7344 40.9844H17.1562V59.0938H25.7344V40.9844Z" fill="white" stroke="#4C241D" stroke-linecap="round" stroke-linejoin="round"/>
<path d="M18.1094 36.2188H24.7812V40.5078C24.7812 41.3926 24.4298 42.2411 23.8042 42.8667C23.1786 43.4923 22.3301 43.8438 21.4453 43.8438V43.8438C20.5606 43.8438 19.7121 43.4923 19.0864 42.8667C18.4608 42.2411 18.1094 41.3926 18.1094 40.5078V36.2188Z" fill="#FFE8DC" stroke="#4C241D" stroke-linecap="round" stroke-linejoin="round"/>
<path d="M3.27112 41.2856V39.4508C3.25785 38.7336 3.5299 38.0405 4.02748 37.5238C4.52505 37.0071 5.20743 36.7091 5.92462 36.6953V36.6953C6.64182 36.7091 7.3242 37.0071 7.82177 37.5238C8.31934 38.0405 8.59139 38.7336 8.57812 39.4508V59.0938" stroke="#4C241D" stroke-linecap="round" stroke-linejoin="round"/>
<path d="M34.3125 49.5034H45.75C48.2778 49.5034 50.7022 50.5076 52.4896 52.2951C54.2771 54.0825 55.2812 56.5068 55.2812 59.0347V59.0938H34.3125V49.5034Z" fill="white" stroke="#4C241D" stroke-linecap="round" stroke-linejoin="round"/>
<path d="M34.3125 41.9375H43.8438V49.5625C43.8438 50.8264 43.3417 52.0386 42.4479 52.9323C41.5542 53.826 40.342 54.3281 39.0781 54.3281V54.3281C37.8142 54.3281 36.602 53.826 35.7083 52.9323C34.8146 52.0386 34.3125 50.8264 34.3125 49.5625V41.9375Z" fill="#FFE8DC" stroke="#4C241D" stroke-linecap="round" stroke-linejoin="round"/>
<path d="M43.8438 42.8906H48.6094V43.086C48.6094 43.7925 48.3287 44.4701 47.8291 44.9697C47.3295 45.4693 46.6519 45.75 45.9454 45.75H43.8438V42.8906Z" fill="#FFDED5" stroke="#4C241D" stroke-linecap="round" stroke-linejoin="round"/>
<path d="M34.3125 45.75H32.2109C31.5043 45.75 30.8267 45.4693 30.3271 44.9697C29.8275 44.4701 29.5469 43.7925 29.5469 43.086V42.8906H34.3125V45.75Z" fill="#FFDED5" stroke="#4C241D" stroke-linecap="round" stroke-linejoin="round"/>
<path d="M43.7389 38.8494C43.7218 37.6833 43.2466 36.5708 42.416 35.7522C41.5853 34.9336 40.4659 34.4748 39.2997 34.4748C38.1335 34.4748 37.0141 34.9336 36.1835 35.7522C35.3529 36.5708 34.8776 37.6833 34.8605 38.8494C34.8605 38.9075 34.8758 38.9609 34.8777 39.0181C34.5884 38.9093 34.2823 38.8521 33.9732 38.8494C33.4789 38.847 32.9936 38.9822 32.5717 39.2398C32.1499 39.4975 31.808 39.8675 31.5844 40.3083C31.3608 40.7492 31.2643 41.2436 31.3056 41.7362C31.347 42.2288 31.5246 42.7002 31.8186 43.0976C32.1125 43.495 32.5113 43.8028 32.9702 43.9865C33.4292 44.1702 33.9302 44.2226 34.4172 44.1378C34.9042 44.0531 35.358 43.8344 35.7278 43.5064C36.0977 43.1784 36.369 42.754 36.5114 42.2806C37.1818 42.8432 38.0072 43.189 38.8784 43.2723C39.7496 43.3555 40.6256 43.1722 41.3904 42.7467C41.61 43.1635 41.9364 43.5145 42.3363 43.7637C42.7361 44.0128 43.195 44.1513 43.6659 44.1648C44.1369 44.1783 44.6029 44.0665 45.0164 43.8406C45.4299 43.6148 45.7759 43.2832 46.0191 42.8796C46.2622 42.4761 46.3938 42.0152 46.4003 41.5441C46.4067 41.0731 46.2879 40.6087 46.0559 40.1987C45.8239 39.7886 45.4871 39.4476 45.08 39.2105C44.6729 38.9734 44.21 38.8488 43.7389 38.8494V38.8494Z" fill="white" stroke="#4C241D" stroke-linecap="round" stroke-linejoin="round"/>
<path d="M38.125 48.6094L40.1876 48.616" stroke="#4C241D" stroke-width="2" stroke-linecap="round" stroke-linejoin="round"/>
<path d="M39.0781 48.6094V50.5156" stroke="#4C241D" stroke-width="2" stroke-linecap="round" stroke-linejoin="round"/>
<path d="M12.3906 58.6172V51.9453" stroke="#4C241D" stroke-linecap="round" stroke-linejoin="round"/>
<path d="M33.0019 25.5256C32.9133 25.0545 32.8915 24.5732 32.9371 24.096C32.9488 23.4551 32.7435 22.8292 32.3545 22.3198C31.9656 21.8104 31.4158 21.4474 30.7945 21.29C24.4954 19.7828 17.9071 19.9961 11.7187 21.9076C11.3302 22.0319 10.993 22.2798 10.7583 22.6134C10.5237 22.947 10.4044 23.3481 10.4186 23.7557C10.4773 24.3442 10.4593 24.9379 10.3652 25.5218C10.0605 25.5216 9.7589 25.5829 9.47845 25.7021C9.198 25.8212 8.94449 25.9957 8.73311 26.2152C8.52174 26.4347 8.35685 26.6946 8.24833 26.9793C8.1398 27.264 8.08989 27.5678 8.10156 27.8722C8.12892 28.2324 8.24003 28.5812 8.42602 28.8908C8.61202 29.2004 8.86776 29.4623 9.17287 29.6555C9.4429 29.8559 9.75872 29.9856 10.0916 30.0329C10.4245 30.0802 10.764 30.0435 11.0791 29.9262C11.5264 32.1124 12.5466 34.1405 14.0353 35.8028C15.524 37.4652 17.4277 38.7021 19.5515 39.3869C20.8173 39.7798 22.1746 39.7651 23.4316 39.345L23.8338 39.2154C25.9268 38.5358 27.8051 37.3195 29.2816 35.6878C30.7581 34.0561 31.7812 32.066 32.249 29.9157C32.5588 30.035 32.8928 30.0777 33.2226 30.0404C33.5525 30.0031 33.8685 29.8867 34.1438 29.7013C34.4351 29.5288 34.6847 29.2941 34.8748 29.0141C35.065 28.734 35.1909 28.4154 35.2437 28.081C35.2851 27.762 35.2581 27.4379 35.1645 27.1302C35.0708 26.8225 34.9127 26.5383 34.7006 26.2965C34.4884 26.0547 34.2272 25.8609 33.9343 25.728C33.6414 25.5951 33.3236 25.5261 33.0019 25.5256Z" fill="#FFE8DC" stroke="#4C241D" stroke-linecap="round" stroke-linejoin="round"/>
<path d="M33.0019 17.8292C33.0019 7.869 10.3652 6.05806 10.4129 19.4905C10.4177 20.7953 10.4462 22.2116 10.4329 23.1905C11.5843 23.2622 12.7382 23.098 13.8238 22.708C14.9094 22.3179 15.904 21.7102 16.7464 20.9221C19.3808 26.0384 26.7247 28.1363 33 23.2343L33.0019 17.8292Z" fill="#FFCE56" stroke="#4C241D" stroke-linecap="round" stroke-linejoin="round"/>
<path d="M47.3493 9.43593L54.2662 11.4375L47.3493 13.4391L44.7969 20.9068L42.2444 13.4391L35.3276 11.4375L42.2444 9.43593L44.7969 1.9682L47.3493 9.43593Z" fill="#FFCE56" stroke="#4C241D" stroke-linecap="round" stroke-linejoin="round"/>
<path d="M54.9276 25.4704L59.1338 26.6875L54.9276 27.9046L53.375 32.4463L51.8224 27.9046L47.6162 26.6875L51.8224 25.4704L53.375 20.9287L54.9276 25.4704Z" fill="#FFCE56" stroke="#4C241D" stroke-linecap="round" stroke-linejoin="round"/>
<path d="M22.3165 34.8072C21.9542 35.1598 21.4667 35.354 20.9613 35.3472C20.4558 35.3404 19.9737 35.1331 19.621 34.7709" stroke="#4C241D" stroke-linecap="round" stroke-linejoin="round"/>
</svg>
