<svg width="170" height="170" viewBox="0 0 170 170" fill="none" xmlns="http://www.w3.org/2000/svg">
<path d="M57.1094 137.219C88.65 137.219 114.219 111.65 114.219 80.1094C114.219 48.5687 88.65 23 57.1094 23C25.5687 23 0 48.5687 0 80.1094C0 111.65 25.5687 137.219 57.1094 137.219Z" fill="#BFE7F4"/>
<path d="M143.438 37.1875C144.905 37.1875 146.094 35.9983 146.094 34.5312C146.094 33.0642 144.905 31.875 143.438 31.875C141.97 31.875 140.781 33.0642 140.781 34.5312C140.781 35.9983 141.97 37.1875 143.438 37.1875Z" fill="#4C241D"/>
<path d="M156.719 85C158.186 85 159.375 83.8108 159.375 82.3438C159.375 80.8767 158.186 79.6875 156.719 79.6875C155.252 79.6875 154.062 80.8767 154.062 82.3438C154.062 83.8108 155.252 85 156.719 85Z" fill="#4C241D"/>
<path d="M18.5938 148.75C20.0608 148.75 21.25 147.561 21.25 146.094C21.25 144.627 20.0608 143.438 18.5938 143.438C17.1267 143.438 15.9375 144.627 15.9375 146.094C15.9375 147.561 17.1267 148.75 18.5938 148.75Z" fill="#4C241D"/>
<path d="M34.3161 12.1815L24.4986 21.9964" stroke="#4C241D" stroke-linecap="round" stroke-linejoin="round"/>
<path d="M24.4986 12.1815L34.3161 21.9964" stroke="#4C241D" stroke-linecap="round" stroke-linejoin="round"/>
<path d="M21.0348 113.119L11.2173 122.934" stroke="#4C241D" stroke-linecap="round" stroke-linejoin="round"/>
<path d="M11.2173 113.119L21.0348 122.934" stroke="#4C241D" stroke-linecap="round" stroke-linejoin="round"/>
<path d="M150.078 122.188C153.746 122.188 156.719 119.214 156.719 115.547C156.719 111.879 153.746 108.906 150.078 108.906C146.411 108.906 143.438 111.879 143.438 115.547C143.438 119.214 146.411 122.188 150.078 122.188Z" stroke="#4C241D" stroke-linecap="round" stroke-linejoin="round"/>
<path d="M138.125 130.156L86.3281 111.562L34.5312 130.156V139.453C34.5312 153.39 57.7203 164.688 86.3281 164.688C114.936 164.688 138.125 153.39 138.125 139.453V130.156Z" fill="#FFCE56" stroke="#4C241D" stroke-linecap="round" stroke-linejoin="round"/>
<path d="M143.438 69.0625C143.438 60.4718 141.545 51.9865 137.893 44.2109C134.24 36.4353 128.918 29.5606 122.306 24.0763C115.694 18.5921 107.953 14.6332 99.6365 12.4815C91.3196 10.3298 82.6306 10.0383 74.1881 11.6278C65.7457 13.2172 57.7576 16.6484 50.7925 21.6772C43.8274 26.7059 38.0567 33.2085 33.8913 40.7218C29.726 48.2352 27.2683 56.5745 26.6935 65.146C26.1186 73.7174 27.4407 82.3102 30.5655 90.3125L74.2661 114.219H95.7339L139.435 90.3125C142.083 83.541 143.441 76.3336 143.438 69.0625V69.0625Z" fill="#FFCE56" stroke="#4C241D" stroke-linecap="round" stroke-linejoin="round"/>
<path d="M86.3281 116.875C80.465 116.867 74.6063 117.196 68.7809 117.86L40.5025 128.013C40.1 128.658 39.8729 129.397 39.8438 130.156C39.8438 137.49 60.6555 143.437 86.3281 143.437C112.001 143.437 132.812 137.49 132.812 130.156C132.783 129.397 132.556 128.658 132.154 128.013L103.875 117.86C98.05 117.196 92.1912 116.867 86.3281 116.875V116.875Z" fill="#6B4F5B" stroke="#4C241D" stroke-linecap="round" stroke-linejoin="round"/>
<path d="M109.56 16.0517C110.245 16.3705 110.924 16.7016 111.597 17.0451C110.926 16.7034 110.247 16.3722 109.56 16.0517ZM71.4531 75.1134L60.3181 16.0916C60.9742 15.7861 61.6463 15.5072 62.313 15.2256C52.0636 19.5561 43.2573 26.7125 36.9219 35.8594L68.3108 110.96L74.2661 114.219H78.8163M93.84 114.219H95.7339L105.134 109.076L134.706 38.3376C129.183 29.4401 121.38 22.182 112.107 17.3161L101.155 75.4162" fill="#FC8C29"/>
<path d="M71.4531 75.1134L60.3181 16.0916C60.9742 15.7861 61.6463 15.5072 62.313 15.2256C52.0636 19.5561 43.2573 26.7125 36.9219 35.8594L68.3108 110.96L74.2661 114.219H78.8163M93.84 114.219H95.7339L105.134 109.076L134.706 38.3376C129.183 29.4401 121.38 22.182 112.107 17.3161L101.155 75.4162M109.56 16.0517C110.245 16.3705 110.924 16.7016 111.597 17.0451C110.926 16.7034 110.247 16.3722 109.56 16.0517Z" stroke="#4C241D" stroke-linecap="round" stroke-linejoin="round"/>
<circle cx="86.3281" cy="107.578" r="27.3906" fill="#D9D9D9" stroke="#4C241D"/>
</svg>
