<svg width="64" height="64" viewBox="0 0 64 64" fill="none" xmlns="http://www.w3.org/2000/svg">
<path d="M2 60V46.3913C1.99976 45.3775 2.31066 44.3884 2.89014 43.5593C3.46962 42.7302 4.28938 42.1017 5.23725 41.7597C6.90944 41.2097 8.5424 40.5455 10.1247 39.7716L13.5 38L16.8753 39.7727C18.4576 40.5466 20.0906 41.2109 21.7627 41.7608C22.7106 42.1028 23.5304 42.7314 24.1099 43.5604C24.6893 44.3895 25.0002 45.3786 25 46.3924V60" fill="#00CCCA"/>
<path d="M2 60V46.3913C1.99976 45.3775 2.31066 44.3884 2.89014 43.5593C3.46962 42.7302 4.28938 42.1017 5.23725 41.7597C6.90944 41.2097 8.5424 40.5455 10.1247 39.7716L13.5 38L16.8753 39.7727C18.4576 40.5466 20.0906 41.2109 21.7627 41.7608C22.7106 42.1028 23.5304 42.7314 24.1099 43.5604C24.6893 44.3895 25.0002 45.3786 25 46.3924V60" stroke="#4C241D" stroke-linecap="round" stroke-linejoin="round"/>
<path d="M12.125 36.1304H16.875V39.6522C16.875 40.2749 16.6248 40.872 16.1794 41.3123C15.734 41.7526 15.1299 42 14.5 42C13.8701 42 13.266 41.7526 12.8206 41.3123C12.3752 40.872 12.125 40.2749 12.125 39.6522V36.1304ZM9.29875 15H18.6562C20.0735 15 21.4327 15.5566 22.4349 16.5472C23.437 17.5379 24 18.8816 24 20.2826V30.8478C24 32.2489 23.437 33.5925 22.4349 34.5832C21.4327 35.5739 20.0735 36.1304 18.6562 36.1304H10.3438C8.9265 36.1304 7.5673 35.5739 6.56515 34.5832C5.563 33.5925 5 32.2489 5 30.8478V19.2496C5 18.1225 5.4529 17.0416 6.25907 16.2447C7.06525 15.4477 8.15865 15 9.29875 15V15Z" fill="#FFDED5" stroke="#4C241D" stroke-linecap="round" stroke-linejoin="round"/>
<path d="M12.336 20H16.3027C21.6612 20 26 16.4183 26 12H10.4472C7.43833 12 5 14.0126 5 16.496V20" fill="#FFCE56"/>
<path d="M12.336 20H16.3027C21.6612 20 26 16.4183 26 12H10.4472C7.43833 12 5 14.0126 5 16.496V20" stroke="#4C241D" stroke-linecap="round" stroke-linejoin="round"/>
<path d="M25 60V46.8C25 44.562 26.761 42.657 29.222 41.944C31.3866 41.3731 33.5162 40.6769 35.6 39.859L40 38L44.4 39.859C46.4829 40.6768 48.6114 41.373 50.775 41.944C53.239 42.657 55 44.562 55 46.8V60" fill="#A9BA5A"/>
<path d="M25 60V46.8C25 44.562 26.761 42.657 29.222 41.944C31.3866 41.3731 33.5162 40.6769 35.6 39.859L40 38L44.4 39.859C46.4829 40.6768 48.6114 41.373 50.775 41.944C53.239 42.657 55 44.562 55 46.8V60" stroke="#4C241D" stroke-linecap="round" stroke-linejoin="round"/>
<path d="M36 36H42V40C42 40.5304 41.7893 41.0391 41.4142 41.4142C41.0391 41.7893 40.5304 42 40 42H38C37.4696 42 36.9609 41.7893 36.5858 41.4142C36.2107 41.0391 36 40.5304 36 40V36Z" fill="#E7D1C4" stroke="#4C241D" stroke-linecap="round" stroke-linejoin="round"/>
<path d="M56.774 7.91199L59.722 10.86" stroke="#4C241D" stroke-linecap="round" stroke-linejoin="round"/>
<path d="M56.774 10.86L59.722 7.91199" stroke="#4C241D" stroke-linecap="round" stroke-linejoin="round"/>
<path d="M51 25C50.9989 24.3814 50.8059 23.7784 50.4477 23.274C50.0895 22.7697 49.5837 22.3888 49 22.184V17.5C49 16.3065 48.5259 15.1619 47.682 14.318C46.8381 13.4741 45.6935 13 44.5 13H29V22.184C28.4155 22.3876 27.9088 22.7682 27.5502 23.2727C27.1917 23.7773 26.9991 24.381 26.9991 25C26.9991 25.619 27.1917 26.2227 27.5502 26.7273C27.9088 27.2318 28.4155 27.6124 29 27.816V31.5C29 32.6935 29.4741 33.8381 30.318 34.682C31.1619 35.5259 32.3065 36 33.5 36H44.5C45.6935 36 46.8381 35.5259 47.682 34.682C48.5259 33.8381 49 32.6935 49 31.5V27.816C49.5837 27.6112 50.0895 27.2303 50.4477 26.726C50.8059 26.2216 50.9989 25.6186 51 25V25Z" fill="#E7D1C4" stroke="#4C241D" stroke-linecap="round" stroke-linejoin="round"/>
<path d="M40.966 17.75H36.615C30.753 17.75 26 13.832 26 9H43.034C46.329 9 49 11.2 49 13.918V17.75" fill="#6B4F5B"/>
<path d="M40.966 17.75H36.615C30.753 17.75 26 13.832 26 9H43.034C46.329 9 49 11.2 49 13.918V17.75" stroke="#4C241D" stroke-linecap="round" stroke-linejoin="round"/>
<path d="M34 26C34.5523 26 35 25.5523 35 25C35 24.4477 34.5523 24 34 24C33.4477 24 33 24.4477 33 25C33 25.5523 33.4477 26 34 26Z" fill="#4C241D"/>
<path d="M44 26C44.5523 26 45 25.5523 45 25C45 24.4477 44.5523 24 44 24C43.4477 24 43 24.4477 43 25C43 25.5523 43.4477 26 44 26Z" fill="#4C241D"/>
<path d="M10 28C10.5523 28 11 27.5523 11 27C11 26.4477 10.5523 26 10 26C9.44772 26 9 26.4477 9 27C9 27.5523 9.44772 28 10 28Z" fill="#4C241D"/>
<path d="M19 28C19.5523 28 20 27.5523 20 27C20 26.4477 19.5523 26 19 26C18.4477 26 18 26.4477 18 27C18 27.5523 18.4477 28 19 28Z" fill="#4C241D"/>
<path d="M49 48V57H42V56.049C42 55.7708 41.8895 55.504 41.6928 55.3072C41.496 55.1105 41.2292 55 40.951 55H38.051C37.9131 54.9997 37.7765 55.0267 37.649 55.0793C37.5215 55.1319 37.4056 55.2091 37.308 55.3065C37.2103 55.404 37.1329 55.5197 37.08 55.6471C37.0272 55.7745 37 55.9111 37 56.049V59.949C36.9997 60.0869 37.0267 60.2235 37.0793 60.351C37.1319 60.4785 37.2091 60.5944 37.3065 60.692C37.404 60.7897 37.5197 60.8671 37.6471 60.92C37.7745 60.9728 37.9111 61 38.049 61H53.735C53.9011 61 54.0656 60.9673 54.2191 60.9037C54.3726 60.8401 54.512 60.747 54.6295 60.6295C54.747 60.512 54.8401 60.3726 54.9037 60.2191C54.9673 60.0656 55 59.9011 55 59.735V48" fill="#E7D1C4"/>
<path d="M49 48V57H42V56.049C42 55.7708 41.8895 55.504 41.6928 55.3072C41.496 55.1105 41.2292 55 40.951 55H38.051C37.9131 54.9997 37.7765 55.0267 37.649 55.0793C37.5215 55.1319 37.4056 55.2091 37.308 55.3065C37.2103 55.404 37.1329 55.5197 37.08 55.6471C37.0272 55.7745 37 55.9111 37 56.049V59.949C36.9997 60.0869 37.0267 60.2235 37.0793 60.351C37.1319 60.4785 37.2091 60.5944 37.3065 60.692C37.404 60.7897 37.5197 60.8671 37.6471 60.92C37.7745 60.9728 37.9111 61 38.049 61H53.735C53.9011 61 54.0656 60.9673 54.2191 60.9037C54.3726 60.8401 54.512 60.747 54.6295 60.6295C54.747 60.512 54.8401 60.3726 54.9037 60.2191C54.9673 60.0656 55 59.9011 55 59.735V48" stroke="#4C241D" stroke-linecap="round" stroke-linejoin="round"/>
<path d="M2 48V59.505C2 59.7013 2.03739 59.8957 2.11005 60.0771C2.1827 60.2585 2.28919 60.4233 2.42344 60.5621C2.55769 60.7009 2.71706 60.8111 2.89246 60.8862C3.06787 60.9613 3.25586 61 3.44571 61H17.1074C17.3442 61 17.5712 60.9028 17.7386 60.7297C17.906 60.5566 18 60.3218 18 60.077V54.8321C18 54.5873 17.906 54.3525 17.7386 54.1794C17.5712 54.0063 17.3442 53.9091 17.1074 53.9091H14.3211C14.2039 53.9091 14.0879 53.933 13.9796 53.9793C13.8713 54.0257 13.7729 54.0937 13.69 54.1794C13.6071 54.2651 13.5414 54.3669 13.4965 54.4789C13.4517 54.5909 13.4286 54.7109 13.4286 54.8321V56.2727H6.57143V48" fill="#FFDED5"/>
<path d="M2 48V59.505C2 59.7013 2.03739 59.8957 2.11005 60.0771C2.1827 60.2585 2.28919 60.4233 2.42344 60.5621C2.55769 60.7009 2.71706 60.8111 2.89246 60.8862C3.06787 60.9613 3.25586 61 3.44571 61H17.1074C17.3442 61 17.5712 60.9028 17.7386 60.7297C17.906 60.5566 18 60.3218 18 60.077V54.8321C18 54.5873 17.906 54.3525 17.7386 54.1794C17.5712 54.0063 17.3442 53.9091 17.1074 53.9091H14.3211C14.2039 53.9091 14.0879 53.933 13.9796 53.9793C13.8713 54.0257 13.7729 54.0937 13.69 54.1794C13.6071 54.2651 13.5414 54.3669 13.4965 54.4789C13.4517 54.5909 13.4286 54.7109 13.4286 54.8321V56.2727H6.57143V48" stroke="#4C241D" stroke-linecap="round" stroke-linejoin="round"/>
</svg>
