<svg width="175" height="179" viewBox="0 0 175 179" fill="none" xmlns="http://www.w3.org/2000/svg">
<path d="M98.7143 153.872C140.011 153.872 173.489 120.395 173.489 79.0977C173.489 37.801 140.011 4.32331 98.7143 4.32331C57.4175 4.32331 23.9398 37.801 23.9398 79.0977C23.9398 120.395 57.4175 153.872 98.7143 153.872Z" fill="#BFE7F4"/>
<g filter="url(#filter0_d_653_624)">
<path d="M132.762 106.276C133.405 108.389 135.096 109.988 138.977 109.295C136.691 121.044 131.448 136.368 121.139 148.504C117.252 133.499 103.657 116.509 77.2601 120.936C44.1588 126.485 29.948 119.463 29.951 145.883L29.9363 145.891C21.4193 134.297 17.1431 120.377 15.2481 109.461V109.441C18.3101 109.64 19.7188 108.161 20.2935 106.276C21.4723 102.427 27.2161 102.663 28.1533 106.572C28.1651 106.623 30.4756 112.381 36.5465 111.717C38.91 111.46 40.4661 109.657 41.4062 108.025C42.9858 105.281 46.148 103.658 49.3515 104.224C51.3879 104.583 53.551 105.706 54.7387 108.589C57.0138 114.118 66.356 111.876 67.4258 106.273C67.7971 104.333 69.5595 103.296 71.4338 104.088C72.4446 104.518 73.2904 105.449 73.4525 107.324C73.6028 109.119 75.7188 108.691 77.9733 107.694C79.6636 106.939 81.5288 106.623 83.3841 106.779C85.2394 106.935 87.0203 107.557 88.5503 108.583C98.4141 115.281 96.6724 104.313 105.493 105.908C106.924 106.18 108.242 106.849 109.286 107.834C110.809 109.247 113.562 111.395 116.509 111.717C122.58 112.381 124.89 106.623 124.902 106.572C125.839 102.663 131.583 102.427 132.762 106.276Z" fill="#FFCE56"/>
<path d="M78.8123 121.13C104.857 116.504 118.27 134.259 122.105 149.94C111.879 162.691 96.5988 172.071 74.1484 170.901C54.1986 169.862 40.8841 159.856 32.1203 147.21L32.1348 147.201C32.1319 119.591 46.1529 126.93 78.8123 121.13Z" fill="#D9BE6F"/>
<path d="M82.7368 72.5789H68.6767C68.6767 69.5697 71.9937 66.9549 75.817 66.9549C76.7346 66.9594 77.6416 67.1111 78.4829 67.4006C79.3242 67.6901 80.0823 68.1114 80.7115 68.6391C82.0031 69.6976 82.7285 71.1087 82.7368 72.5789Z" fill="#BF7E68"/>
<path d="M24.3835 109.377L23.5897 103.511C22.8399 103.631 22.1424 103.947 21.5792 104.424C21.0161 104.901 20.6108 105.518 20.4111 106.203C19.8173 108.082 18.2932 109.556 15.2481 109.358V109.377C17.0752 120.258 21.571 134.132 30.3651 145.692C30.3651 140.475 30.9306 136.569 32.1203 133.612C28.3916 125.893 25.7895 117.742 24.3835 109.377V109.377Z" fill="#AF8723"/>
<path d="M40.975 147.149C38.2075 143.152 35.8178 138.898 33.8378 134.444C32.6907 137.552 32.1329 141.657 32.135 147.14L32.1203 147.149C40.9691 159.828 54.4126 169.859 74.5559 170.901C77.2814 171.046 80.0129 171.032 82.7368 170.858C62.9559 169.635 49.7275 159.69 40.975 147.149Z" fill="#AA9042"/>
<path d="M134.668 87.2053C133.171 86.828 131.626 86.6376 130.075 86.6391H22.0248C20.5727 86.638 19.1278 86.8277 17.7334 87.2025C14.3422 88.1116 11.4014 90.0883 9.41999 92.7907C7.43857 95.4932 6.54122 98.7511 6.88323 102.001C7.05143 103.537 7.34222 105.06 7.75323 106.557C7.81233 106.777 7.93114 106.978 8.09837 107.144C8.2656 107.309 8.47571 107.432 8.70875 107.501C8.94178 107.57 9.19 107.582 9.42984 107.537C9.66967 107.493 9.89317 107.392 10.0791 107.245C10.9315 106.543 12.1325 105.999 13.6499 106.422C14.5361 106.68 15.4509 106.845 16.3771 106.915C19.4206 107.104 20.8208 105.698 21.3921 103.905C22.5638 100.245 28.273 100.47 29.2045 104.187C29.2162 104.236 31.5128 109.71 37.5471 109.079C39.8964 108.835 41.4431 107.12 42.3776 105.568C43.9477 102.96 47.0908 101.416 50.275 101.955C52.2991 102.296 54.4492 103.363 55.6297 106.105C57.8911 111.362 67.177 109.231 68.2404 103.902C68.6095 102.058 70.3612 101.072 72.2242 101.825C73.229 102.234 74.0697 103.12 74.2308 104.902C74.3802 106.608 76.4834 106.202 78.7243 105.254C80.4044 104.536 82.2584 104.236 84.1025 104.384C85.9466 104.532 87.7168 105.123 89.2376 106.099C99.042 112.468 97.3107 102.039 106.078 103.556C107.501 103.814 108.811 104.45 109.848 105.387C111.363 106.73 114.099 108.773 117.028 109.079C123.062 109.71 125.359 104.236 125.371 104.187C126.302 100.47 132.011 100.245 133.183 103.905C133.822 105.915 135.503 107.435 139.361 106.776C139.889 106.685 140.411 106.567 140.925 106.422C142.442 105.999 143.643 106.543 144.496 107.245C144.682 107.392 144.905 107.493 145.145 107.537C145.385 107.582 145.633 107.57 145.866 107.501C146.099 107.432 146.309 107.309 146.477 107.144C146.644 106.978 146.763 106.777 146.822 106.557C146.869 106.392 146.913 106.224 146.954 106.059C149.133 97.5556 143.324 89.3831 134.668 87.2053Z" fill="#A9B6D8"/>
<path d="M22.8536 86.6398C21.3243 86.6257 19.8007 86.817 18.3283 87.2081C14.7537 88.1839 11.6527 90.312 9.56305 93.2234C7.47335 96.1348 6.52662 99.646 6.88697 103.148C7.06435 104.802 7.37099 106.441 7.80438 108.052C7.86692 108.289 7.99246 108.507 8.16903 108.684C8.34561 108.862 8.56735 108.994 8.81317 109.068C9.059 109.142 9.32071 109.155 9.57343 109.106C9.82615 109.058 10.0615 108.948 10.257 108.789C11.1559 108.033 12.4223 107.443 14.0224 107.899C14.9569 108.177 15.9216 108.355 16.8981 108.429C17.0198 108.437 17.1341 108.437 17.2506 108.44C17.1701 108.316 17.1096 108.183 17.0711 108.042C16.6377 106.428 16.3311 104.786 16.1537 103.128C15.7938 99.6286 16.7411 96.1201 18.831 93.2119C20.921 90.3037 24.0218 88.1795 27.595 87.2081C29.0674 86.817 30.591 86.6257 32.1203 86.6398H22.8536Z" fill="#7D879E"/>
<path d="M117.818 72.579H33.268C24.3323 72.579 17.0746 80.0061 15.2481 89.4479C16.69 88.9954 18.1841 88.7663 19.6857 88.7676H131.416C133.02 88.7658 134.618 88.9957 136.165 89.4511V89.4479C134.339 80.0061 126.751 72.579 117.818 72.579Z" fill="#BF7E68"/>
<path d="M43.3684 72.579H33.9416C24.6718 72.579 17.1429 80.0531 15.2481 89.4511C16.7477 89.0279 18.2976 88.8274 19.8516 88.8554H24.8252C26.9374 79.7406 34.3218 72.579 43.3684 72.579Z" fill="#9E4B2E"/>
<path d="M41.4896 89.4511H26.2518C25.7532 89.4511 25.2751 89.7474 24.9226 90.2747C24.5701 90.8021 24.372 91.5174 24.372 92.2632C24.372 93.0089 24.5701 93.7242 24.9226 94.2516C25.2751 94.7789 25.7532 95.0752 26.2518 95.0752H41.4887C41.9872 95.0752 42.4653 94.7789 42.8179 94.2516C43.1704 93.7242 43.3684 93.0089 43.3684 92.2632C43.3684 91.5174 43.1704 90.8021 42.8179 90.2747C42.4653 89.7474 41.9872 89.4511 41.4887 89.4511H41.4896ZM20.8347 89.4511H19.9399C19.4414 89.4511 18.9632 89.7474 18.6107 90.2747C18.2582 90.8021 18.0602 91.5174 18.0602 92.2632C18.0602 93.0089 18.2582 93.7242 18.6107 94.2516C18.9632 94.7789 19.4414 95.0752 19.9399 95.0752H20.8347C21.3332 95.0752 21.8113 94.7789 22.1638 94.2516C22.5164 93.7242 22.7144 93.0089 22.7144 92.2632C22.7144 91.5174 22.5164 90.8021 22.1638 90.2747C21.8113 89.7474 21.3332 89.4511 20.8347 89.4511V89.4511Z" fill="#604225"/>
<path d="M137.012 85.674C134.628 76.6449 126.587 70.1959 117.51 70.1959H83.4136C82.5975 66.7753 79.4737 64.1429 75.8675 64.1429C74.0811 64.1667 72.3533 64.774 70.9548 65.8694C69.5563 66.9648 68.5662 68.4865 68.1398 70.1959H34.5475C25.6395 70.1959 17.721 76.6613 15.3578 85.7086C12.6964 86.6519 10.311 88.2252 8.41142 90.29C6.81339 92.0307 5.60276 94.0816 4.85736 96.3109C4.11195 98.5403 3.84828 100.899 4.08328 103.234C4.26231 104.982 4.57267 106.713 5.0118 108.416C5.14819 108.951 5.42335 109.442 5.81035 109.842C6.19734 110.241 6.68292 110.535 7.21956 110.693C7.74447 110.855 8.30305 110.88 8.84059 110.765C9.37813 110.65 9.87619 110.4 10.286 110.039C11.1075 109.317 11.7447 109.382 12.2075 109.52C12.7819 109.692 13.3654 109.832 13.9555 109.94C15.5902 118.862 19.6788 134.521 29.4291 147.654C40.2022 162.164 54.9194 169.985 73.1717 170.9C74.5058 170.967 75.8235 171 77.1247 171C96.1849 171 111.821 163.834 123.64 149.668C135.04 136.005 139.864 119.235 141.804 109.68C141.993 109.631 142.184 109.577 142.378 109.52C142.841 109.383 143.478 109.317 144.299 110.039C144.709 110.4 145.207 110.65 145.745 110.765C146.282 110.879 146.841 110.855 147.365 110.694C147.902 110.535 148.388 110.241 148.775 109.842C149.162 109.442 149.437 108.951 149.574 108.415C149.623 108.226 149.67 108.037 149.715 107.849C150.377 105.105 150.395 102.249 149.77 99.4974C149.145 96.7456 147.892 94.1703 146.106 91.9666C143.764 89.0379 140.603 86.8501 137.012 85.674ZM75.8669 67.6571C76.6815 67.6758 77.4734 67.9252 78.148 68.3754C78.8226 68.8255 79.3514 69.4576 79.6713 70.1959H71.907C72.263 69.4524 72.822 68.8212 73.5213 68.3728C74.2207 67.9245 75.0328 67.6767 75.8669 67.6571ZM34.5475 73.7102H117.51C124.371 73.7102 130.52 78.2442 132.999 84.808C132.286 84.7307 131.569 84.6915 130.852 84.6909H21.2196C20.606 84.6912 19.9928 84.7237 19.3827 84.7884C21.8405 78.2351 27.8595 73.7102 34.5475 73.7102ZM73.353 167.389C56.2253 166.531 42.4156 159.192 32.3068 145.578C32.2369 145.484 32.1704 145.388 32.1011 145.294C32.1392 138.835 32.9137 131.915 37.8125 128.601C41.8413 125.875 48.3974 125.28 57.4713 124.455C63.4805 123.909 70.291 123.291 78.3335 121.916C89.913 119.936 99.7436 122.063 107.554 128.236C115.501 134.517 118.92 143.049 120.322 148.091C108.512 161.864 92.7167 168.361 73.353 167.389ZM123.016 144.737C117.76 129.21 103.293 114.084 77.7248 118.453C69.8229 119.804 63.0873 120.415 57.1447 120.956C47.5334 121.829 40.5894 122.46 35.7947 125.704C31.6633 128.499 29.4541 132.993 28.7693 140.291C22.1469 129.331 19.0174 117.477 17.5938 109.998C18.2076 109.883 18.8002 109.678 19.3515 109.389C20.7782 108.63 21.767 107.359 22.2907 105.613C22.4217 105.135 22.7167 104.716 23.1255 104.428C23.5344 104.14 24.0319 104 24.5336 104.032C25.0578 104.031 25.5663 104.208 25.9735 104.534C26.3807 104.859 26.6617 105.313 26.7693 105.818C26.8697 106.244 27.652 107.99 29.1536 109.549C30.1555 110.631 31.4069 111.46 32.8022 111.966C34.1975 112.472 35.6957 112.639 37.1705 112.454C39.693 112.174 41.8577 110.553 43.4312 107.769C44.7 105.522 47.1655 104.304 49.5643 104.735C51.5385 105.09 52.8786 106.205 53.6615 108.142C54.7758 110.902 57.3563 112.528 60.5193 112.528C60.8228 112.528 61.1322 112.512 61.4454 112.482C65.0388 112.134 69.0858 109.6 69.8669 105.433C69.8892 105.233 69.9563 105.041 70.0632 104.869C70.1701 104.698 70.3142 104.552 70.4851 104.443C70.6366 104.378 70.8009 104.347 70.966 104.352C71.1311 104.358 71.2928 104.4 71.4392 104.476C71.6716 104.576 72.289 104.843 72.4132 106.337C72.4345 106.832 72.5792 107.313 72.8345 107.739C73.0898 108.164 73.4478 108.522 73.8767 108.778C75.1521 109.516 76.9366 109.323 79.4942 108.173C80.9164 107.526 82.4851 107.255 84.0459 107.387C85.6066 107.519 87.1057 108.049 88.3954 108.925C94.6629 113.262 97.4888 111.385 100.287 108.688C101.899 107.136 103.171 105.91 106.18 106.465C107.281 106.68 108.295 107.208 109.096 107.984C111.033 109.817 114.049 112.08 117.418 112.455C118.893 112.64 120.391 112.472 121.786 111.966C123.182 111.461 124.433 110.632 125.435 109.55C126.941 107.986 127.721 106.24 127.82 105.818C127.927 105.312 128.208 104.859 128.615 104.533C129.023 104.208 129.531 104.031 130.055 104.031C130.557 104 131.054 104.14 131.463 104.428C131.871 104.717 132.166 105.135 132.298 105.613C132.822 107.359 133.81 108.629 135.237 109.388C136.114 109.84 137.083 110.092 138.071 110.127C136.198 118.83 132.009 132.735 123.016 144.737ZM146.244 107.039L146.238 107.063C145.559 106.533 144.759 106.174 143.907 106.015C143.055 105.857 142.177 105.905 141.348 106.156C139.381 106.74 137.853 106.789 136.93 106.298C136.361 105.995 135.964 105.445 135.716 104.618C135.36 103.396 134.598 102.327 133.552 101.584C132.505 100.84 131.236 100.465 129.947 100.518C128.66 100.542 127.418 100.983 126.412 101.772C125.405 102.561 124.69 103.655 124.378 104.884C124.115 105.495 122.236 109.455 117.815 108.962C115.313 108.684 112.825 106.642 111.565 105.448C110.263 104.198 108.619 103.351 106.835 103.011C102.003 102.12 99.57 104.464 97.7932 106.176C95.7985 108.097 94.7975 109.062 90.4447 106.05C88.6452 104.822 86.5523 104.078 84.3721 103.89C82.1918 103.702 79.9995 104.077 78.0111 104.978C77.3514 105.302 76.6508 105.537 75.9278 105.679C75.5854 102.98 74.0916 101.786 72.8697 101.258C72.2327 100.964 71.5353 100.818 70.8318 100.832C70.1282 100.846 69.4374 101.02 68.813 101.339C68.1651 101.695 67.6076 102.19 67.1824 102.789C66.7572 103.388 66.4754 104.073 66.3582 104.795C65.902 107.229 63.3058 108.771 61.0947 108.985C60.1525 109.076 57.8657 109.05 56.9741 106.843C55.7352 103.776 53.394 101.852 50.2037 101.279C49.6733 101.183 49.1354 101.135 48.5963 101.135C46.8957 101.156 45.2316 101.623 43.7756 102.489C42.3196 103.355 41.1245 104.588 40.3136 106.061C39.6235 107.283 38.4489 108.778 36.7696 108.965C32.3508 109.454 30.4712 105.5 30.2078 104.887C29.8953 103.657 29.1805 102.563 28.1739 101.774C27.1673 100.985 25.925 100.544 24.6388 100.52C23.3498 100.467 22.0801 100.842 21.0338 101.586C19.9874 102.33 19.2251 103.398 18.8694 104.62C18.621 105.448 18.2239 105.997 17.6553 106.3C16.7321 106.791 15.2041 106.742 13.2371 106.158C12.4084 105.907 11.5303 105.859 10.6785 106.017C9.82671 106.175 9.02667 106.535 8.34722 107.065C8.01515 105.689 7.77615 104.292 7.63181 102.884C7.43504 101.036 7.63858 99.1682 8.22899 97.4038C8.81939 95.6393 9.7832 94.0185 11.0567 92.6484C12.3424 91.2504 13.9109 90.133 15.6612 89.368C17.4114 88.6031 19.3048 88.2074 21.2196 88.2066H130.852C133.25 88.2002 135.617 88.7317 137.776 89.7609C139.934 90.7902 141.826 92.2901 143.308 94.147C144.759 95.9353 145.777 98.0256 146.285 100.259C146.794 102.493 146.78 104.811 146.244 107.039Z" fill="#604225"/>
<path d="M97.0526 37.5564C98.888 37.5564 100.376 36.0685 100.376 34.2331C100.376 32.3977 98.888 30.9098 97.0526 30.9098C95.2172 30.9098 93.7293 32.3977 93.7293 34.2331C93.7293 36.0685 95.2172 37.5564 97.0526 37.5564Z" fill="#4C241D"/>
<path d="M143.406 11.4036L133.609 21.6267" stroke="#4C241D" stroke-linecap="round" stroke-linejoin="round"/>
<path d="M133.609 11.4036L143.406 21.6267" stroke="#4C241D" stroke-linecap="round" stroke-linejoin="round"/>
<path d="M37.2331 1V7.93564" stroke="#4C241D" stroke-linecap="round" stroke-linejoin="round"/>
<path d="M37.2331 21.8068V28.7425" stroke="#4C241D" stroke-linecap="round" stroke-linejoin="round"/>
<path d="M23.9398 14.8712H30.5865" stroke="#4C241D" stroke-linecap="round" stroke-linejoin="round"/>
<path d="M43.8797 14.8712H50.5263" stroke="#4C241D" stroke-linecap="round" stroke-linejoin="round"/>
<path d="M161.857 80.7594C166.446 80.7594 170.165 77.0397 170.165 72.4511C170.165 67.8626 166.446 64.1429 161.857 64.1429C157.269 64.1429 153.549 67.8626 153.549 72.4511C153.549 77.0397 157.269 80.7594 161.857 80.7594Z" stroke="#4C241D" stroke-linecap="round" stroke-linejoin="round"/>
</g>
<defs>
<filter id="filter0_d_653_624" x="0" y="0.5" width="174.665" height="178.5" filterUnits="userSpaceOnUse" color-interpolation-filters="sRGB">
<feFlood flood-opacity="0" result="BackgroundImageFix"/>
<feColorMatrix in="SourceAlpha" type="matrix" values="0 0 0 0 0 0 0 0 0 0 0 0 0 0 0 0 0 0 127 0" result="hardAlpha"/>
<feOffset dy="4"/>
<feGaussianBlur stdDeviation="2"/>
<feComposite in2="hardAlpha" operator="out"/>
<feColorMatrix type="matrix" values="0 0 0 0 0 0 0 0 0 0 0 0 0 0 0 0 0 0 0.25 0"/>
<feBlend mode="normal" in2="BackgroundImageFix" result="effect1_dropShadow_653_624"/>
<feBlend mode="normal" in="SourceGraphic" in2="effect1_dropShadow_653_624" result="shape"/>
</filter>
</defs>
</svg>
