<svg width="59" height="61" viewBox="0 0 59 61" fill="none" xmlns="http://www.w3.org/2000/svg">
<g filter="url(#filter0_d_633_624)">
<path d="M42.7451 32.6779C42.9385 33.314 43.4475 33.7949 44.6154 33.5866C43.9272 37.1218 42.3496 41.7328 39.2477 45.3846C38.078 40.8696 33.9873 35.7571 26.0443 37.0892C16.084 38.7591 11.8079 36.646 11.8088 44.596L11.8043 44.5985C9.24154 41.1096 7.95482 36.9212 7.38461 33.6363V33.6303C8.30598 33.6903 8.72987 33.2454 8.90279 32.6779C9.2575 31.5198 10.9858 31.591 11.2678 32.7671C11.2714 32.7825 11.9666 34.515 13.7934 34.3152C14.5046 34.2381 14.9728 33.6955 15.2557 33.2043C15.731 32.3788 16.6825 31.8902 17.6465 32.0607C18.2593 32.1688 18.9102 32.5065 19.2675 33.374C19.9521 35.0379 22.7632 34.3633 23.0851 32.6771C23.1969 32.0933 23.7272 31.7813 24.2912 32.0196C24.5953 32.149 24.8498 32.4293 24.8986 32.9934C24.9438 33.5335 25.5805 33.4049 26.2589 33.1048C26.7675 32.8775 27.3288 32.7825 27.8871 32.8294C28.4453 32.8763 28.9812 33.0635 29.4416 33.3723C32.4097 35.3876 31.8856 32.0873 34.5397 32.5674C34.9704 32.6492 35.367 32.8505 35.681 33.1468C36.1395 33.572 36.9677 34.2184 37.8545 34.3152C39.6813 34.515 40.3765 32.7825 40.3801 32.7671C40.6621 31.591 42.3904 31.5198 42.7451 32.6779Z" fill="#FFCE56"/>
<path d="M26.5114 37.1478C34.3483 35.7557 38.3844 41.0984 39.5385 45.8167C36.4613 49.6535 31.8634 52.4762 25.108 52.1242C19.105 51.8115 15.0986 48.8007 12.4615 44.9952L12.4659 44.9925C12.465 36.6847 16.684 38.8929 26.5114 37.1478Z" fill="#D9BE6F"/>
<path d="M27.6923 22.5385H23.4615C23.4615 21.6329 24.4596 20.8462 25.6101 20.8462C25.8862 20.8475 26.1591 20.8931 26.4123 20.9803C26.6654 21.0674 26.8936 21.1942 27.0829 21.3529C27.4715 21.6715 27.6898 22.0961 27.6923 22.5385Z" fill="#BF7E68"/>
<path d="M10.1335 33.6113L9.89462 31.8462C9.66902 31.8821 9.45913 31.9774 9.28967 32.1209C9.12021 32.2644 8.99826 32.4501 8.93819 32.6561C8.75952 33.2215 8.30091 33.6652 7.38461 33.6053V33.6113C7.93439 36.8852 9.28721 41.0602 11.9334 44.5385C11.9334 42.9686 12.1035 41.7934 12.4615 40.9035C11.3396 38.5808 10.5566 36.1282 10.1335 33.6113Z" fill="#AF8723"/>
<path d="M15.126 44.9771C14.2932 43.7743 13.5741 42.4942 12.9783 41.1538C12.6332 42.0891 12.4653 43.3242 12.466 44.9744L12.4615 44.9771C15.1242 48.7921 19.1694 51.8106 25.2306 52.124C26.0508 52.1677 26.8727 52.1634 27.6923 52.1111C21.7401 51.743 17.7596 48.7506 15.126 44.9771Z" fill="#AA9042"/>
<path d="M43.3187 26.9396C42.8683 26.8261 42.4034 26.7688 41.9366 26.7692H9.42375C8.9868 26.7689 8.55202 26.826 8.13244 26.9388C7.11202 27.2123 6.22712 27.8071 5.6309 28.6203C5.03468 29.4335 4.76466 30.4138 4.86758 31.3916C4.91819 31.854 5.00569 32.3122 5.12937 32.7626C5.14715 32.8287 5.1829 32.8894 5.23322 32.9391C5.28354 32.9888 5.34676 33.0258 5.41688 33.0466C5.48701 33.0673 5.5617 33.0711 5.63386 33.0577C5.70603 33.0442 5.77328 33.0139 5.82923 32.9697C6.08573 32.7585 6.44712 32.5947 6.90371 32.7219C7.17038 32.7996 7.44564 32.8493 7.72433 32.8702C8.64015 32.9273 9.06147 32.5042 9.23336 31.9646C9.58593 30.8635 11.3039 30.9311 11.5842 32.0494C11.5877 32.0641 12.2787 33.7114 14.0945 33.5215C14.8014 33.4481 15.2668 32.9322 15.548 32.4651C16.0205 31.6802 16.9662 31.2156 17.9244 31.3778C18.5334 31.4805 19.1804 31.8016 19.5356 32.6265C20.2161 34.2086 23.0103 33.5671 23.3302 31.9638C23.4413 31.4088 23.9684 31.1121 24.529 31.3387C24.8313 31.4617 25.0843 31.7283 25.1328 32.2646C25.1777 32.7781 25.8106 32.6558 26.4849 32.3706C26.9905 32.1544 27.5483 32.0641 28.1032 32.1087C28.6581 32.1533 29.1908 32.3312 29.6484 32.6249C32.5986 34.5412 32.0777 31.403 34.7158 31.8595C35.1438 31.9373 35.5381 32.1288 35.8502 32.4105C36.3059 32.8148 37.1292 33.4294 38.0106 33.5215C39.8264 33.7114 40.5175 32.0641 40.521 32.0494C40.8013 30.9311 42.5192 30.8635 42.8718 31.9646C43.0639 32.5694 43.5699 33.0267 44.7308 32.8286C44.8897 32.8012 45.0468 32.7656 45.2014 32.7219C45.658 32.5947 46.0194 32.7585 46.2759 32.9697C46.3319 33.0139 46.3991 33.0442 46.4713 33.0577C46.5435 33.0711 46.6181 33.0673 46.6883 33.0466C46.7584 33.0258 46.8216 32.9888 46.8719 32.9391C46.9223 32.8894 46.958 32.8287 46.9758 32.7626C46.9899 32.7129 47.0031 32.6624 47.0154 32.6126C47.6712 30.0541 45.9233 27.5949 43.3187 26.9396Z" fill="#A9B6D8"/>
<path d="M9.67313 26.7695C9.21297 26.7652 8.7545 26.8228 8.31146 26.9404C7.23583 27.2341 6.30275 27.8744 5.67395 28.7505C5.04515 29.6265 4.76027 30.6831 4.8687 31.7369C4.92208 32.2346 5.01435 32.7278 5.14476 33.2126C5.16358 33.2838 5.20135 33.3493 5.25448 33.4028C5.30761 33.4563 5.37434 33.496 5.44831 33.5183C5.52228 33.5405 5.60103 33.5445 5.67707 33.5298C5.75312 33.5151 5.82392 33.4822 5.88276 33.4344C6.15323 33.2067 6.53431 33.0292 7.01578 33.1663C7.29699 33.25 7.58725 33.3036 7.88111 33.326C7.91774 33.3283 7.95213 33.3283 7.98717 33.3291C7.96294 33.2921 7.94473 33.2518 7.93316 33.2096C7.80275 32.7238 7.71048 32.2296 7.65711 31.731C7.54881 30.6778 7.83385 29.6221 8.46274 28.747C9.09162 27.8719 10.0247 27.2327 11.0999 26.9404C11.5429 26.8228 12.0014 26.7652 12.4615 26.7695H9.67313Z" fill="#7D879E"/>
<path d="M38.2485 22.5385H12.8069C10.1181 22.5385 7.93422 24.7733 7.38461 27.6144C7.81849 27.4782 8.26807 27.4093 8.7199 27.4097H42.3401C42.8228 27.4092 43.3035 27.4783 43.7692 27.6154V27.6144C43.2196 24.7733 40.9364 22.5385 38.2485 22.5385Z" fill="#BF7E68"/>
<path d="M15.8462 22.5385H13.0096C10.2203 22.5385 7.95477 24.7875 7.38461 27.6154C7.83584 27.488 8.30222 27.4277 8.76981 27.4361H10.2664C10.902 24.6934 13.124 22.5385 15.8462 22.5385Z" fill="#9E4B2E"/>
<path d="M15.2808 27.6154H10.6957C10.5457 27.6154 10.4018 27.7045 10.2957 27.8632C10.1896 28.0219 10.13 28.2371 10.13 28.4615C10.13 28.686 10.1896 28.9012 10.2957 29.0599C10.4018 29.2185 10.5457 29.3077 10.6957 29.3077H15.2805C15.4305 29.3077 15.5744 29.2185 15.6805 29.0599C15.7866 28.9012 15.8462 28.686 15.8462 28.4615C15.8462 28.2371 15.7866 28.0219 15.6805 27.8632C15.5744 27.7045 15.4305 27.6154 15.2805 27.6154H15.2808ZM9.06563 27.6154H8.79639C8.64638 27.6154 8.50251 27.7045 8.39644 27.8632C8.29036 28.0219 8.23077 28.2371 8.23077 28.4615C8.23077 28.686 8.29036 28.9012 8.39644 29.0599C8.50251 29.2185 8.64638 29.3077 8.79639 29.3077H9.06563C9.21564 29.3077 9.35951 29.2185 9.46559 29.0599C9.57166 28.9012 9.63126 28.686 9.63126 28.4615C9.63126 28.2371 9.57166 28.0219 9.46559 27.8632C9.35951 27.7045 9.21564 27.6154 9.06563 27.6154Z" fill="#604225"/>
<path d="M44.0239 26.4788C43.3066 23.7619 40.887 21.8214 38.1558 21.8214H27.896C27.6504 20.7921 26.7104 20 25.6253 20C25.0878 20.0072 24.5678 20.1899 24.147 20.5195C23.7262 20.8491 23.4283 21.307 23.3 21.8214H13.1919C10.5114 21.8214 8.12871 23.7669 7.41761 26.4892C6.61678 26.7731 5.899 27.2465 5.32742 27.8678C4.84656 28.3916 4.48228 29.0087 4.25798 29.6795C4.03369 30.3503 3.95435 31.06 4.02506 31.7628C4.07893 32.2886 4.17232 32.8097 4.30446 33.3219C4.3455 33.483 4.42829 33.6309 4.54474 33.751C4.66119 33.8712 4.8073 33.9595 4.96878 34.0073C5.12673 34.056 5.29481 34.0634 5.45656 34.0289C5.6183 33.9944 5.76817 33.919 5.89149 33.8102C6.13868 33.5931 6.33043 33.6128 6.46968 33.6542C6.64252 33.7058 6.81811 33.7481 6.99565 33.7807C7.48755 36.4654 8.71782 41.1773 11.6517 45.1288C14.8934 49.4949 19.3219 51.8483 24.8141 52.1237C25.2156 52.1438 25.6121 52.1538 26.0036 52.1538C31.7389 52.1538 36.444 49.9977 40.0002 45.735C43.4306 41.6236 44.8822 36.5775 45.466 33.7024C45.5228 33.6875 45.5804 33.6714 45.6386 33.6542C45.7779 33.6129 45.9695 33.5932 46.2168 33.8102C46.3401 33.9189 46.49 33.9942 46.6517 34.0287C46.8134 34.0633 46.9814 34.0559 47.1394 34.0074C47.3009 33.9595 47.4471 33.8712 47.5635 33.751C47.68 33.6309 47.7628 33.483 47.8039 33.3218C47.8186 33.2649 47.8327 33.208 47.8464 33.1513C48.0454 32.3257 48.0511 31.4664 47.863 30.6383C47.6748 29.8103 47.2978 29.0354 46.7605 28.3723C46.0558 27.4911 45.1044 26.8327 44.0239 26.4788ZM25.6251 21.0575C25.8702 21.0631 26.1085 21.1381 26.3115 21.2736C26.5145 21.409 26.6736 21.5992 26.7699 21.8214H24.4336C24.5407 21.5977 24.7089 21.4077 24.9193 21.2728C25.1297 21.1379 25.3741 21.0633 25.6251 21.0575ZM13.1919 22.8789H38.1558C40.2201 22.8789 42.0705 24.2432 42.8164 26.2183C42.6019 26.195 42.3862 26.1832 42.1704 26.183H9.18145C8.99682 26.1831 8.81232 26.1929 8.62874 26.2123C9.36828 24.2404 11.1794 22.8789 13.1919 22.8789ZM24.8687 51.0674C19.7149 50.809 15.5594 48.6008 12.5177 44.5043C12.4966 44.4759 12.4766 44.4472 12.4558 44.4187C12.4672 42.4753 12.7003 40.393 14.1744 39.3958C15.3867 38.5755 17.3594 38.3964 20.0898 38.1483C21.898 37.9841 23.9473 37.7979 26.3673 37.3843C29.8516 36.7883 32.8097 37.4284 35.1598 39.2858C37.5513 41.1758 38.5801 43.7431 39.0019 45.2605C35.4481 49.4049 30.6953 51.3598 24.8687 51.0674ZM39.8126 44.2513C38.2309 39.5789 33.8777 35.0275 26.1842 36.3423C23.8064 36.7487 21.7797 36.9327 19.9915 37.0953C17.0994 37.358 15.0099 37.5478 13.5672 38.524C12.324 39.3652 11.6593 40.7173 11.4532 42.9133C9.46049 39.6154 8.51883 36.0485 8.09043 33.798C8.27512 33.7636 8.45345 33.7018 8.61935 33.6147C9.04864 33.3863 9.34619 33.004 9.50378 32.4786C9.54318 32.3347 9.63194 32.2087 9.75496 32.1219C9.87799 32.0352 10.0277 31.9931 10.1787 32.0028C10.3364 32.0026 10.4894 32.0559 10.6119 32.1538C10.7345 32.2517 10.819 32.3882 10.8514 32.5403C10.8816 32.6685 11.117 33.1939 11.5688 33.663C11.8703 33.9886 12.2469 34.2381 12.6667 34.3902C13.0866 34.5424 13.5374 34.5928 13.9812 34.5372C14.7402 34.4528 15.3916 33.9652 15.865 33.1272C16.2468 32.4512 16.9887 32.0845 17.7105 32.2144C18.3046 32.3212 18.7078 32.6566 18.9434 33.2397C19.2787 34.0699 20.0552 34.5592 21.0069 34.5592C21.0983 34.5592 21.1914 34.5546 21.2856 34.5455C22.3669 34.4407 23.5846 33.6784 23.8197 32.4243C23.8264 32.3642 23.8466 32.3063 23.8787 32.2548C23.9109 32.2033 23.9543 32.1594 24.0057 32.1264C24.0513 32.1068 24.1007 32.0975 24.1504 32.0993C24.2001 32.101 24.2487 32.1137 24.2928 32.1364C24.3627 32.1665 24.5485 32.2468 24.5859 32.6966C24.5923 32.8452 24.6358 32.9901 24.7126 33.1182C24.7895 33.2463 24.8972 33.3538 25.0263 33.4311C25.41 33.6529 25.947 33.595 26.7166 33.2489C27.1445 33.0542 27.6166 32.9727 28.0862 33.0123C28.5558 33.052 29.0069 33.2115 29.395 33.4751C31.2809 34.7803 32.1313 34.2153 32.9734 33.404C33.4582 32.937 33.8409 32.5679 34.7463 32.7349C35.0779 32.7996 35.3829 32.9585 35.6239 33.192C36.2067 33.7435 37.1143 34.4246 38.1281 34.5373C38.5718 34.5929 39.0227 34.5425 39.4425 34.3904C39.8624 34.2382 40.2389 33.9888 40.5404 33.6632C40.9936 33.1927 41.2283 32.6674 41.2579 32.5402C41.2903 32.3881 41.3748 32.2516 41.4974 32.1537C41.6199 32.0558 41.7729 32.0024 41.9307 32.0027C42.0816 31.9932 42.2312 32.0354 42.3541 32.1221C42.4771 32.2089 42.5659 32.3348 42.6055 32.4785C42.7631 33.0039 43.0606 33.3862 43.4899 33.6146C43.7538 33.7504 44.0452 33.8263 44.3428 33.8369C43.7789 36.4556 42.5186 40.6398 39.8126 44.2513ZM46.8019 32.9076L46.8002 32.915C46.5957 32.7555 46.355 32.6473 46.0986 32.5997C45.8423 32.5521 45.5781 32.5666 45.3288 32.6418C44.7367 32.8175 44.277 32.8325 43.9992 32.6846C43.8281 32.5935 43.7087 32.4281 43.6339 32.1792C43.527 31.8115 43.2976 31.4899 42.9828 31.2661C42.6679 31.0423 42.2858 30.9294 41.8979 30.9455C41.511 30.9527 41.1371 31.0853 40.8343 31.3227C40.5314 31.5602 40.3163 31.8893 40.2222 32.2592C40.1433 32.4432 39.5778 33.6345 38.2476 33.4864C37.4948 33.4028 36.746 32.7881 36.3667 32.4289C35.9751 32.0528 35.4804 31.7979 34.9435 31.6955C33.4896 31.4276 32.7575 32.1329 32.2228 32.648C31.6226 33.2262 31.3214 33.5164 30.0116 32.6099C29.4702 32.2406 28.8404 32.0166 28.1844 31.9601C27.5283 31.9035 26.8686 32.0163 26.2703 32.2874C26.0718 32.3849 25.861 32.4558 25.6434 32.4984C25.5404 31.6864 25.0909 31.327 24.7232 31.1683C24.5315 31.0796 24.3217 31.0357 24.11 31.04C23.8983 31.0442 23.6904 31.0964 23.5025 31.1926C23.3076 31.2995 23.1398 31.4487 23.0119 31.6288C22.8839 31.8089 22.7991 32.0153 22.7639 32.2324C22.6266 32.9649 21.8454 33.4288 21.1801 33.4933C20.8966 33.5206 20.2085 33.5129 19.9402 32.8487C19.5674 31.9259 18.8629 31.3469 17.9029 31.1744C17.7433 31.1457 17.5815 31.1313 17.4192 31.1312C16.9075 31.1374 16.4068 31.2781 15.9687 31.5386C15.5305 31.7992 15.1709 32.1702 14.927 32.6135C14.7193 32.981 14.3658 33.4309 13.8605 33.4871C12.5309 33.6343 11.9653 32.4446 11.8861 32.26C11.792 31.89 11.5769 31.5609 11.274 31.3234C10.9712 31.0859 10.5973 30.9533 10.2103 30.9461C9.82245 30.9301 9.4404 31.0431 9.12555 31.2668C8.8107 31.4906 8.58132 31.8121 8.47429 32.1798C8.39952 32.4288 8.28003 32.594 8.10894 32.6852C7.83116 32.8331 7.37137 32.8182 6.77949 32.6424C6.53012 32.5671 6.26591 32.5526 6.0096 32.6002C5.75329 32.6478 5.51255 32.7561 5.3081 32.9156C5.20818 32.5013 5.13626 32.081 5.09283 31.6573C5.03362 31.1013 5.09487 30.5393 5.27252 30.0084C5.45018 29.4775 5.74019 28.9897 6.12339 28.5775C6.51028 28.1568 6.98223 27.8206 7.5089 27.5904C8.03557 27.3602 8.6053 27.2412 9.18145 27.2409H42.1704C42.8919 27.239 43.6043 27.3989 44.2538 27.7086C44.9032 28.0183 45.4725 28.4696 45.9186 29.0284C46.355 29.5665 46.6614 30.1955 46.8144 30.8676C46.9674 31.5397 46.9632 32.2374 46.8019 32.9076Z" fill="#604225"/>
<path d="M32 12C32.5523 12 33 11.5523 33 11C33 10.4477 32.5523 10 32 10C31.4477 10 31 10.4477 31 11C31 11.5523 31.4477 12 32 12Z" fill="#4C241D"/>
<path d="M45.948 4.13049L43 7.20667" stroke="#4C241D" stroke-linecap="round" stroke-linejoin="round"/>
<path d="M43 4.13049L45.948 7.20667" stroke="#4C241D" stroke-linecap="round" stroke-linejoin="round"/>
<path d="M14 1V3.08697" stroke="#4C241D" stroke-linecap="round" stroke-linejoin="round"/>
<path d="M14 7.26088V9.34785" stroke="#4C241D" stroke-linecap="round" stroke-linejoin="round"/>
<path d="M10 5.17391H12" stroke="#4C241D" stroke-linecap="round" stroke-linejoin="round"/>
<path d="M16 5.17391H18" stroke="#4C241D" stroke-linecap="round" stroke-linejoin="round"/>
<path d="M51.5 25C52.8807 25 54 23.8807 54 22.5C54 21.1193 52.8807 20 51.5 20C50.1193 20 49 21.1193 49 22.5C49 23.8807 50.1193 25 51.5 25Z" stroke="#4C241D" stroke-linecap="round" stroke-linejoin="round"/>
</g>
<defs>
<filter id="filter0_d_633_624" x="0" y="0.5" width="58.5" height="59.6538" filterUnits="userSpaceOnUse" color-interpolation-filters="sRGB">
<feFlood flood-opacity="0" result="BackgroundImageFix"/>
<feColorMatrix in="SourceAlpha" type="matrix" values="0 0 0 0 0 0 0 0 0 0 0 0 0 0 0 0 0 0 127 0" result="hardAlpha"/>
<feOffset dy="4"/>
<feGaussianBlur stdDeviation="2"/>
<feComposite in2="hardAlpha" operator="out"/>
<feColorMatrix type="matrix" values="0 0 0 0 0 0 0 0 0 0 0 0 0 0 0 0 0 0 0.25 0"/>
<feBlend mode="normal" in2="BackgroundImageFix" result="effect1_dropShadow_633_624"/>
<feBlend mode="normal" in="SourceGraphic" in2="effect1_dropShadow_633_624" result="shape"/>
</filter>
</defs>
</svg>
