<svg width="64" height="64" viewBox="0 0 64 64" fill="none" xmlns="http://www.w3.org/2000/svg">
<path d="M12 62V58.199C12 55.4941 13.049 52.8999 14.9161 50.9872C16.7832 49.0745 19.3156 48 21.9562 48H43.0438C45.6844 48 48.2168 49.0745 50.0839 50.9872C51.9511 52.8999 53 55.4941 53 58.199V62" fill="#816982"/>
<path d="M12 62V58.199C12 55.4941 13.049 52.8999 14.9161 50.9872C16.7832 49.0745 19.3156 48 21.9562 48H43.0438C45.6844 48 48.2168 49.0745 50.0839 50.9872C51.9511 52.8999 53 55.4941 53 58.199V62" stroke="#4C241D" stroke-linecap="round" stroke-linejoin="round"/>
<path d="M37.5412 48.3684V45H27.1648V48.3684H24L32.5 61L41 48.3684H37.5412Z" fill="white" stroke="#4C241D" stroke-linecap="round" stroke-linejoin="round"/>
<path d="M20 23H44V37.7617C44 40.2119 43.0267 42.5617 41.2942 44.2942C39.5617 46.0267 37.2119 47 34.7617 47H29.2383C26.7881 47 24.4383 46.0267 22.7058 44.2942C20.9733 42.5617 20 40.2119 20 37.7617V23Z" fill="#FFDE9D" stroke="#4C241D" stroke-linecap="round" stroke-linejoin="round"/>
<path d="M19 42C21.7614 42 24 39.5376 24 36.5C24 33.4624 21.7614 31 19 31C16.2386 31 14 33.4624 14 36.5C14 39.5376 16.2386 42 19 42Z" fill="white" stroke="#4C241D" stroke-linecap="round" stroke-linejoin="round"/>
<path d="M46 42C48.7614 42 51 39.5376 51 36.5C51 33.4624 48.7614 31 46 31C43.2386 31 41 33.4624 41 36.5C41 39.5376 43.2386 42 46 42Z" fill="white" stroke="#4C241D" stroke-linecap="round" stroke-linejoin="round"/>
<path d="M19 33C21.7614 33 24 30.7614 24 28C24 25.2386 21.7614 23 19 23C16.2386 23 14 25.2386 14 28C14 30.7614 16.2386 33 19 33Z" fill="white" stroke="#4C241D" stroke-linecap="round" stroke-linejoin="round"/>
<path d="M46 33C48.7614 33 51 30.7614 51 28C51 25.2386 48.7614 23 46 23C43.2386 23 41 25.2386 41 28C41 30.7614 43.2386 33 46 33Z" fill="white" stroke="#4C241D" stroke-linecap="round" stroke-linejoin="round"/>
<path d="M45.9382 14.4981C45.0185 14.5023 44.1177 14.7704 43.3348 15.273C41.5493 12.7613 37.3721 11 32.5012 11C27.6303 11 23.4531 12.7613 21.6676 15.273C20.8142 14.7296 19.8248 14.4629 18.8254 14.5071C17.826 14.5512 16.8618 14.9041 16.0557 15.5208C15.2495 16.1375 14.6379 16.9901 14.2986 17.97C13.9594 18.95 13.9079 20.0129 14.1507 21.0234C14.3936 22.0339 14.9197 22.9463 15.6622 23.6443C16.4047 24.3424 17.3299 24.7945 18.3199 24.9431C19.31 25.0917 20.3202 24.9301 21.2217 24.4789C22.1233 24.0276 22.8755 23.3072 23.3825 22.4092C26.109 24.1926 29.2829 25.0918 32.5012 24.9926C35.7195 25.0918 38.8934 24.1926 41.6199 22.4092C42.0685 23.2019 42.7093 23.8579 43.4782 24.3113C44.2471 24.7647 45.1169 24.9996 46.0004 24.9924C46.884 24.9852 47.7502 24.7362 48.5122 24.2704C49.2742 23.8045 49.9051 23.1383 50.3417 22.3383C50.7784 21.5384 51.0054 20.633 50.9999 19.7129C50.9944 18.7928 50.7568 17.8904 50.3107 17.0962C49.8646 16.3019 49.2258 15.6438 48.4583 15.1878C47.6909 14.7318 46.8218 14.494 45.9382 14.4981V14.4981Z" fill="white" stroke="#4C241D" stroke-linecap="round" stroke-linejoin="round"/>
<path d="M6 5V7.08697" stroke="#4C241D" stroke-linecap="round" stroke-linejoin="round"/>
<path d="M6 11.261V13.348" stroke="#4C241D" stroke-linecap="round" stroke-linejoin="round"/>
<path d="M2 9.17383H4" stroke="#4C241D" stroke-linecap="round" stroke-linejoin="round"/>
<path d="M8 9.17383H10" stroke="#4C241D" stroke-linecap="round" stroke-linejoin="round"/>
<path d="M60.5 50C61.8807 50 63 48.8807 63 47.5C63 46.1193 61.8807 45 60.5 45C59.1193 45 58 46.1193 58 47.5C58 48.8807 59.1193 50 60.5 50Z" stroke="#4C241D" stroke-linecap="round" stroke-linejoin="round"/>
<path d="M22.948 4L20 7.07617" stroke="#4C241D" stroke-linecap="round" stroke-linejoin="round"/>
<path d="M20 4L22.948 7.07617" stroke="#4C241D" stroke-linecap="round" stroke-linejoin="round"/>
</svg>
