<svg width="64" height="64" viewBox="0 0 64 64" fill="none" xmlns="http://www.w3.org/2000/svg">
<path d="M9 30C9.55228 30 10 29.5523 10 29C10 28.4477 9.55228 28 9 28C8.44772 28 8 28.4477 8 29C8 29.5523 8.44772 30 9 30Z" fill="#4C241D"/>
<path d="M31.2197 36.3247L26.3246 35.3056L32.9486 3.48779C33.0837 2.83867 33.4712 2.26981 34.0257 1.90637C34.5803 1.54292 35.2565 1.41466 35.9056 1.5498C36.5547 1.68493 37.1236 2.0724 37.487 2.62695C37.8505 3.18151 37.9787 3.85773 37.8436 4.50685L31.2197 36.3247Z" fill="#BF7E68" stroke="#4C241D" stroke-linecap="round" stroke-linejoin="round"/>
<path d="M25.0713 53.4381C22.8648 52.9763 20.9321 51.6569 19.6984 49.7701C18.4647 47.8833 18.031 45.5837 18.4928 43.3771L20.439 34.0786L37.0784 37.5611L35.1323 46.8597C34.6705 49.0662 33.3511 50.9989 31.4643 52.2326C29.5775 53.4663 27.2778 53.8999 25.0713 53.4381V53.4381Z" fill="#816982" stroke="#4C241D" stroke-linecap="round" stroke-linejoin="round"/>
<path d="M31.206 36.332L29.772 43.183" stroke="#4C241D" stroke-linecap="round" stroke-linejoin="round"/>
<path d="M26.312 35.308L24.878 42.159" stroke="#4C241D" stroke-linecap="round" stroke-linejoin="round"/>
<path d="M17 49H43V61H5C5 57.8174 6.26428 54.7652 8.51472 52.5147C10.7652 50.2643 13.8174 49 17 49V49ZM61 43.55V43.45C61 42.8002 60.7419 42.1771 60.2824 41.7176C59.8229 41.2581 59.1998 41 58.55 41H41.45C41.1283 41 40.8097 41.0634 40.5124 41.1865C40.2152 41.3096 39.9451 41.4901 39.7176 41.7176C39.4901 41.9451 39.3096 42.2152 39.1865 42.5124C39.0634 42.8097 39 43.1283 39 43.45V43.55C39 44.1998 39.2581 44.8229 39.7176 45.2824C40.1771 45.7419 40.8002 46 41.45 46C40.8002 46 40.1771 46.2581 39.7176 46.7176C39.2581 47.1771 39 47.8002 39 48.45V48.55C39 49.1998 39.2581 49.8229 39.7176 50.2824C40.1771 50.7419 40.8002 51 41.45 51H37.45C36.8002 51 36.1771 51.2581 35.7176 51.7176C35.2581 52.1771 35 52.8002 35 53.45V53.55C35 54.1998 35.2581 54.8229 35.7176 55.2824C36.1771 55.7419 36.8002 56 37.45 56H40.45C39.8002 56 39.1771 56.2581 38.7176 56.7176C38.2581 57.1771 38 57.8002 38 58.45V58.55C38 59.1998 38.2581 59.8229 38.7176 60.2824C39.1771 60.7419 39.8002 61 40.45 61H57.55C58.1998 61 58.8229 60.7419 59.2824 60.2824C59.7419 59.8229 60 59.1998 60 58.55V58.45C60 57.8002 59.7419 57.1771 59.2824 56.7176C58.8229 56.2581 58.1998 56 57.55 56H54.55C55.1998 56 55.8229 55.7419 56.2824 55.2824C56.7419 54.8229 57 54.1998 57 53.55V53.45C57 52.8002 56.7419 52.1771 56.2824 51.7176C55.8229 51.2581 55.1998 51 54.55 51H58.55C58.8717 51 59.1903 50.9366 59.4876 50.8135C59.7848 50.6904 60.0549 50.5099 60.2824 50.2824C60.5099 50.0549 60.6904 49.7848 60.8135 49.4876C60.9366 49.1903 61 48.8717 61 48.55V48.45C61 47.8002 60.7419 47.1771 60.2824 46.7176C59.8229 46.2581 59.1998 46 58.55 46C59.1998 46 59.8229 45.7419 60.2824 45.2824C60.7419 44.8229 61 44.1998 61 43.55V43.55Z" fill="#FFCE56" stroke="#4C241D" stroke-linecap="round" stroke-linejoin="round"/>
<path d="M41 46H49" stroke="#4C241D" stroke-linecap="round" stroke-linejoin="round"/>
<path d="M55 51H47" stroke="#4C241D" stroke-linecap="round" stroke-linejoin="round"/>
<path d="M46 56H50" stroke="#4C241D" stroke-linecap="round" stroke-linejoin="round"/>
<path d="M43 29.463V30.878" stroke="#4C241D" stroke-linecap="round" stroke-linejoin="round"/>
<path d="M43 35.122V36.537" stroke="#4C241D" stroke-linecap="round" stroke-linejoin="round"/>
<path d="M39.463 33H40.878" stroke="#4C241D" stroke-linecap="round" stroke-linejoin="round"/>
<path d="M45.122 33H46.537" stroke="#4C241D" stroke-linecap="round" stroke-linejoin="round"/>
<path d="M9 36.463V37.878" stroke="#4C241D" stroke-linecap="round" stroke-linejoin="round"/>
<path d="M9 42.122V43.537" stroke="#4C241D" stroke-linecap="round" stroke-linejoin="round"/>
<path d="M5.46301 40H6.87801" stroke="#4C241D" stroke-linecap="round" stroke-linejoin="round"/>
<path d="M11.122 40H12.537" stroke="#4C241D" stroke-linecap="round" stroke-linejoin="round"/>
<path d="M17 19.463V20.878" stroke="#4C241D" stroke-linecap="round" stroke-linejoin="round"/>
<path d="M17 25.122V26.537" stroke="#4C241D" stroke-linecap="round" stroke-linejoin="round"/>
<path d="M13.463 23H14.878" stroke="#4C241D" stroke-linecap="round" stroke-linejoin="round"/>
<path d="M19.122 23H20.537" stroke="#4C241D" stroke-linecap="round" stroke-linejoin="round"/>
<path d="M53.5 19C54.8807 19 56 17.8807 56 16.5C56 15.1193 54.8807 14 53.5 14C52.1193 14 51 15.1193 51 16.5C51 17.8807 52.1193 19 53.5 19Z" stroke="#4C241D" stroke-linecap="round" stroke-linejoin="round"/>
</svg>
