<svg width="170" height="170" viewBox="0 0 170 170" fill="none" xmlns="http://www.w3.org/2000/svg">
<path d="M91.1094 122.219C122.65 122.219 148.219 96.65 148.219 65.1094C148.219 33.5687 122.65 8 91.1094 8C59.5687 8 34 33.5687 34 65.1094C34 96.65 59.5687 122.219 91.1094 122.219Z" fill="#BFE7F4"/>
<path d="M61.0938 29.2188C62.5608 29.2188 63.75 28.0295 63.75 26.5625C63.75 25.0955 62.5608 23.9062 61.0938 23.9062C59.6267 23.9062 58.4375 25.0955 58.4375 26.5625C58.4375 28.0295 59.6267 29.2188 61.0938 29.2188Z" fill="#4C241D"/>
<path d="M111.562 53.125C113.03 53.125 114.219 51.9358 114.219 50.4688C114.219 49.0017 113.03 47.8125 111.562 47.8125C110.095 47.8125 108.906 49.0017 108.906 50.4688C108.906 51.9358 110.095 53.125 111.562 53.125Z" fill="#4C241D"/>
<path d="M92.9688 2.65625H77.0312V164.688H92.9688V2.65625Z" fill="#6B4F5B"/>
<path d="M77.0312 164.688V95.4152" stroke="#4C241D" stroke-linecap="round" stroke-linejoin="round"/>
<path d="M92.9688 2.65625V164.688" stroke="#4C241D" stroke-linecap="round" stroke-linejoin="round"/>
<path d="M77.0312 50.328V2.65625" stroke="#4C241D" stroke-linecap="round" stroke-linejoin="round"/>
<path d="M113.244 78.1708V77.621C113.244 73.3109 109.75 69.8169 105.44 69.8169H85.9297C81.6196 69.8169 78.1256 73.3109 78.1256 77.621V78.1708C78.1256 82.4809 81.6196 85.9749 85.9297 85.9749H105.44C109.75 85.9749 113.244 82.4809 113.244 78.1708Z" fill="#E7D1C4" stroke="#4C241D" stroke-linecap="round" stroke-linejoin="round"/>
<path d="M99.3756 117.85C103.777 117.85 107.344 114.282 107.344 109.881C107.344 105.48 103.777 101.912 99.3756 101.912H86.0758C81.6748 101.912 78.107 105.48 78.107 109.881C78.107 114.282 81.6748 117.85 86.0758 117.85H99.3756Z" fill="#E7D1C4" stroke="#4C241D" stroke-linecap="round" stroke-linejoin="round"/>
<path d="M98.0289 131.131C101.696 131.131 104.67 128.158 104.67 124.49C104.67 120.823 101.696 117.85 98.0289 117.85H84.7716C81.1041 117.85 78.1309 120.823 78.1309 124.49C78.1309 128.158 81.1041 131.131 84.7716 131.131H98.0289Z" fill="#E7D1C4" stroke="#4C241D" stroke-linecap="round" stroke-linejoin="round"/>
<path d="M104.667 101.912C109.068 101.912 112.636 98.3446 112.636 93.9436C112.636 89.5426 109.068 85.9749 104.667 85.9749H86.0731C81.6721 85.9749 78.1044 89.5426 78.1044 93.9436C78.1044 98.3446 81.6721 101.912 86.0731 101.912H104.667Z" fill="#E7D1C4" stroke="#4C241D" stroke-linecap="round" stroke-linejoin="round"/>
<path d="M80.4419 67.8645C79.162 68.5375 78.0303 69.4604 77.1136 70.5787C76.197 71.6971 75.5141 72.988 75.1055 74.375C74.0876 77.8082 74.308 81.4897 75.728 84.777C77.1481 88.0642 79.6776 90.7483 82.875 92.3605L85.3719 93.6674L100.141 67.8645L95.8269 60.3394L74.375 50.328C72.5924 50.1843 70.7984 50.2871 69.0439 50.6334V50.6334C65.2489 51.3787 61.7649 53.2461 59.0431 55.9938L36.1064 78.0194H26.5625V128.488H27.8269C30.0611 128.488 32.2929 128.637 34.5073 128.934L45.1562 130.358C48.9649 130.873 52.8039 131.131 56.6472 131.131L74.375 130.156L77.0312 131.131V92.9688" fill="#E7D1C4"/>
<path d="M80.4419 67.8645C79.162 68.5375 78.0303 69.4604 77.1136 70.5787C76.197 71.6971 75.5141 72.988 75.1055 74.375C74.0876 77.8082 74.308 81.4897 75.728 84.777C77.1481 88.0642 79.6776 90.7483 82.875 92.3605L85.3719 93.6674L100.141 67.8645L95.8269 60.3394L74.375 50.328C72.5924 50.1843 70.7984 50.2871 69.0439 50.6334V50.6334C65.2489 51.3787 61.7649 53.2461 59.0431 55.9938L36.1064 78.0194H26.5625V128.488H27.8269C30.0611 128.488 32.2929 128.637 34.5073 128.934L45.1562 130.358C48.9649 130.873 52.8039 131.131 56.6472 131.131L74.375 130.156L77.0312 131.131V92.9688" stroke="#4C241D" stroke-linecap="round" stroke-linejoin="round"/>
<path d="M158.371 42.2025L150.54 34.3719" stroke="#4C241D" stroke-linecap="round" stroke-linejoin="round"/>
<path d="M158.371 34.3719L150.54 42.2025" stroke="#4C241D" stroke-linecap="round" stroke-linejoin="round"/>
<path d="M60.0897 151.109L52.2591 143.278" stroke="#4C241D" stroke-linecap="round" stroke-linejoin="round"/>
<path d="M60.0897 143.278L52.2591 151.109" stroke="#4C241D" stroke-linecap="round" stroke-linejoin="round"/>
<path d="M77.0312 88.493C76.6282 92.121 74.9236 95.48 72.2335 97.9474C69.5433 100.415 66.0499 101.824 62.4006 101.912H47.6186" stroke="#4C241D" stroke-linecap="round" stroke-linejoin="round"/>
<path d="M26.5625 2.65625H10.625V164.688H26.5625V2.65625Z" fill="#6B4F5B"/>
<path d="M10.625 164.688V2.65625" stroke="#4C241D" stroke-linecap="round" stroke-linejoin="round"/>
<path d="M26.5625 2.65625V164.688" stroke="#4C241D" stroke-linecap="round" stroke-linejoin="round"/>
<path d="M138.125 2.65625H122.188V164.688H138.125V2.65625Z" fill="#6B4F5B"/>
<path d="M122.188 164.688V2.65625" stroke="#4C241D" stroke-linecap="round" stroke-linejoin="round"/>
<path d="M138.125 2.65625V164.688" stroke="#4C241D" stroke-linecap="round" stroke-linejoin="round"/>
</svg>
