<svg width="16" height="21" viewBox="0 0 16 21" fill="none" xmlns="http://www.w3.org/2000/svg">
<path d="M15.4958 11.1962C13.9625 7.06975 8.50312 6.84725 9.82156 0.849775C9.91922 0.404769 9.46021 0.0609002 9.08909 0.293517C5.54394 2.45787 2.99494 6.79668 5.13376 12.4806C5.30955 12.9459 4.78217 13.3808 4.40129 13.0773C2.63359 11.6917 2.44803 9.69933 2.60429 8.27329C2.66289 7.74737 1.99879 7.49453 1.71556 7.92942C1.05146 8.98126 0.377586 10.6804 0.377586 13.2392C0.748704 18.9029 5.36815 20.6424 7.02841 20.865C9.40161 21.1785 11.9701 20.7234 13.816 18.9737C15.8473 17.0217 16.5896 13.9067 15.4958 11.1962ZM6.43267 16.2834C7.83901 15.9294 8.56171 14.8776 8.75704 13.9471C9.07933 12.5009 7.81948 11.0849 8.66914 8.79921C8.99143 10.6905 11.8627 11.8738 11.8627 13.937C11.9408 16.4958 9.26488 18.6905 6.43267 16.2834Z" fill="#FF6838"/>
</svg>
