<svg width="170" height="170" viewBox="0 0 170 170" fill="none" xmlns="http://www.w3.org/2000/svg">
<path d="M86.1094 129.219C117.65 129.219 143.219 103.65 143.219 72.1094C143.219 40.5687 117.65 15 86.1094 15C54.5687 15 29 40.5687 29 72.1094C29 103.65 54.5687 129.219 86.1094 129.219Z" fill="#BFE7F4"/>
<path d="M142.109 53.125C145.777 53.125 148.75 50.1519 148.75 46.4844C148.75 42.8169 145.777 39.8438 142.109 39.8438C138.442 39.8438 135.469 42.8169 135.469 46.4844C135.469 50.1519 138.442 53.125 142.109 53.125Z" stroke="#4C241D" stroke-linecap="round" stroke-linejoin="round"/>
<path d="M13.2812 79.6875C14.7483 79.6875 15.9375 78.4983 15.9375 77.0312C15.9375 75.5642 14.7483 74.375 13.2812 74.375C11.8142 74.375 10.625 75.5642 10.625 77.0312C10.625 78.4983 11.8142 79.6875 13.2812 79.6875Z" fill="#4C241D"/>
<path d="M69.0625 162.031C70.5295 162.031 71.7188 160.842 71.7188 159.375C71.7188 157.908 70.5295 156.719 69.0625 156.719C67.5955 156.719 66.4062 157.908 66.4062 159.375C66.4062 160.842 67.5955 162.031 69.0625 162.031Z" fill="#4C241D"/>
<path d="M127.5 75.6049V79.3635" stroke="#4C241D" stroke-linecap="round" stroke-linejoin="round"/>
<path d="M127.5 90.6366V94.3952" stroke="#4C241D" stroke-linecap="round" stroke-linejoin="round"/>
<path d="M118.105 85H121.863" stroke="#4C241D" stroke-linecap="round" stroke-linejoin="round"/>
<path d="M133.137 85H136.895" stroke="#4C241D" stroke-linecap="round" stroke-linejoin="round"/>
<path d="M29.2188 120.761V124.52" stroke="#4C241D" stroke-linecap="round" stroke-linejoin="round"/>
<path d="M29.2188 135.793V139.551" stroke="#4C241D" stroke-linecap="round" stroke-linejoin="round"/>
<path d="M19.8236 130.156H23.5822" stroke="#4C241D" stroke-linecap="round" stroke-linejoin="round"/>
<path d="M34.8553 130.156H38.6139" stroke="#4C241D" stroke-linecap="round" stroke-linejoin="round"/>
<path d="M82.4447 120.623C89.8236 124.078 97.4072 127.078 105.153 129.606L110.731 121.704C110.731 121.704 33.1553 82.3013 20.3947 8.14673C20.3947 8.14673 -0.72781 77.1827 76.2131 117.523" fill="#FFCE56"/>
<path d="M82.4447 120.623C89.8236 124.078 97.4072 127.078 105.153 129.606L110.731 121.704C110.731 121.704 33.1553 82.3013 20.3947 8.14673C20.3947 8.14673 -0.72781 77.1827 76.2131 117.523" stroke="#4C241D" stroke-linecap="round" stroke-linejoin="round"/>
<path d="M156.932 150.521L111.099 121.919L105.574 130.773L151.407 159.375L156.932 150.521Z" fill="#E66353" stroke="#4C241D" stroke-linecap="round" stroke-linejoin="round"/>
<path d="M120.935 118.703L102.82 122.897L107.014 141.011L125.129 136.818L120.935 118.703Z" fill="#BD53B5" stroke="#4C241D" stroke-linecap="round" stroke-linejoin="round"/>
<path d="M135.469 114.219L127.5 108.906L100.938 151.406L111.562 156.719" stroke="#4C241D" stroke-linecap="round" stroke-linejoin="round"/>
<path d="M135.469 138.125L130.156 146.094" stroke="#4C241D" stroke-linecap="round" stroke-linejoin="round"/>
<path d="M145.722 143.998L140.433 151.927" stroke="#4C241D" stroke-linecap="round" stroke-linejoin="round"/>
<path d="M50.4688 31.1551C50.4688 31.1551 63.5534 6.85311 100.938 18.0625M74.6141 64.0156C74.6141 64.0156 81.1484 25.3539 136.579 23.4095M61.0938 45.1562C66.2318 37.0082 73.7823 30.6647 82.6944 27.0087" stroke="#00CCCA" stroke-linecap="round" stroke-linejoin="round"/>
</svg>
