<svg width="64" height="64" viewBox="0 0 64 64" fill="none" xmlns="http://www.w3.org/2000/svg">
<path d="M8 4V7" stroke="#4C241D" stroke-linecap="round" stroke-linejoin="round"/>
<path d="M8 11V14" stroke="#4C241D" stroke-linecap="round" stroke-linejoin="round"/>
<path d="M6 9H3" stroke="#4C241D" stroke-linecap="round" stroke-linejoin="round"/>
<path d="M13 9H10" stroke="#4C241D" stroke-linecap="round" stroke-linejoin="round"/>
<path d="M47.5 7C48.8807 7 50 5.88071 50 4.5C50 3.11929 48.8807 2 47.5 2C46.1193 2 45 3.11929 45 4.5C45 5.88071 46.1193 7 47.5 7Z" stroke="#4C241D" stroke-linecap="round" stroke-linejoin="round"/>
<path d="M56.5 45.632C57.1252 45.632 57.632 45.1252 57.632 44.5C57.632 43.8749 57.1252 43.368 56.5 43.368C55.8748 43.368 55.368 43.8749 55.368 44.5C55.368 45.1252 55.8748 45.632 56.5 45.632Z" fill="#4C241D"/>
<path d="M59.5 55.632C60.1252 55.632 60.632 55.1252 60.632 54.5C60.632 53.8749 60.1252 53.368 59.5 53.368C58.8748 53.368 58.368 53.8749 58.368 54.5C58.368 55.1252 58.8748 55.632 59.5 55.632Z" fill="#4C241D"/>
<path d="M49.5 56.632C50.1252 56.632 50.632 56.1252 50.632 55.5C50.632 54.8749 50.1252 54.368 49.5 54.368C48.8748 54.368 48.368 54.8749 48.368 55.5C48.368 56.1252 48.8748 56.632 49.5 56.632Z" fill="#4C241D"/>
<path d="M58.837 12.663L55.163 16.337" stroke="#4C241D" stroke-linecap="round" stroke-linejoin="round"/>
<path d="M55.163 12.663L58.837 16.337" stroke="#4C241D" stroke-linecap="round" stroke-linejoin="round"/>
<path d="M32 56C44.7025 56 55 45.7025 55 33C55 20.2975 44.7025 10 32 10C19.2975 10 9 20.2975 9 33C9 45.7025 19.2975 56 32 56Z" fill="#FFCE56" stroke="#4C241D" stroke-linecap="round" stroke-linejoin="round"/>
<path d="M19.551 20C16.956 22.4853 15.1641 25.6904 14.4061 29.2027C13.6481 32.715 13.9586 36.3738 15.2977 39.7082C16.6369 43.0425 18.9433 45.8998 21.9201 47.9121C24.8969 49.9245 28.4078 50.9999 32.001 50.9999C35.5942 50.9999 39.1052 49.9245 42.082 47.9121C45.0588 45.8998 47.3652 43.0425 48.7043 39.7082C50.0434 36.3738 50.3539 32.715 49.5959 29.2027C48.8379 25.6904 47.0461 22.4853 44.451 20" stroke="#FC8C29" stroke-linecap="round" stroke-linejoin="round"/>
<path d="M26.613 26.076L31.595 27.856C31.857 27.9489 32.143 27.9489 32.405 27.856L37.387 26.076C37.6015 25.9982 37.8337 25.9833 38.0564 26.0328C38.279 26.0824 38.483 26.1943 38.6443 26.3557C38.8056 26.517 38.9176 26.7209 38.9671 26.9436C39.0167 27.1663 39.0017 27.3985 38.924 27.613L37.144 32.5999C37.051 32.8619 37.051 33.148 37.144 33.41L38.924 38.3919C39.0017 38.6064 39.0167 38.8386 38.9671 39.0613C38.9176 39.284 38.8056 39.4879 38.6443 39.6492C38.483 39.8106 38.279 39.9225 38.0564 39.9721C37.8337 40.0216 37.6015 40.0067 37.387 39.929L32.405 38.1489C32.143 38.056 31.857 38.056 31.595 38.1489L26.613 39.929C26.3985 40.0067 26.1663 40.0216 25.9437 39.9721C25.721 39.9225 25.517 39.8106 25.3557 39.6492C25.1944 39.4879 25.0824 39.284 25.0329 39.0613C24.9833 38.8386 24.9983 38.6064 25.076 38.3919L26.856 33.41C26.949 33.148 26.949 32.8619 26.856 32.5999L25.076 27.618C24.997 27.4032 24.981 27.1703 25.0299 26.9468C25.0788 26.7232 25.1907 26.5183 25.3522 26.3563C25.5138 26.1942 25.7183 26.0817 25.9417 26.032C26.1651 25.9824 26.398 25.9976 26.613 26.076V26.076Z" fill="white" stroke="#4C241D" stroke-linecap="round" stroke-linejoin="round"/>
<path d="M14 62C20.6274 62 26 56.6274 26 50C26 43.3726 20.6274 38 14 38C7.37258 38 2 43.3726 2 50C2 56.6274 7.37258 62 14 62Z" fill="#E5E5E5" stroke="#4C241D" stroke-linecap="round" stroke-linejoin="round"/>
<path d="M14 59C18.9706 59 23 54.9706 23 50C23 45.0294 18.9706 41 14 41C9.02944 41 5 45.0294 5 50C5 54.9706 9.02944 59 14 59Z" stroke="#B5A19C" stroke-linecap="round" stroke-linejoin="round"/>
<path d="M26.5 62C31.7467 62 36 57.7467 36 52.5C36 47.2533 31.7467 43 26.5 43C21.2533 43 17 47.2533 17 52.5C17 57.7467 21.2533 62 26.5 62Z" fill="#FFCE56" stroke="#4C241D" stroke-linecap="round" stroke-linejoin="round"/>
<path d="M26.5 59C30.0899 59 33 56.0899 33 52.5C33 48.9101 30.0899 46 26.5 46C22.9101 46 20 48.9101 20 52.5C20 56.0899 22.9101 59 26.5 59Z" stroke="#FC8C29" stroke-linecap="round" stroke-linejoin="round"/>
</svg>
