<svg width="170" height="170" viewBox="0 0 170 170" fill="none" xmlns="http://www.w3.org/2000/svg">
<path d="M95.1094 135.219C126.65 135.219 152.219 109.65 152.219 78.1094C152.219 46.5687 126.65 21 95.1094 21C63.5687 21 38 46.5687 38 78.1094C38 109.65 63.5687 135.219 95.1094 135.219Z" fill="#BFE7F4"/>
<path d="M30.7753 131.713L38.2872 139.225" stroke="#4C241D" stroke-linecap="round" stroke-linejoin="round"/>
<path d="M38.2872 131.713L30.7753 139.225" stroke="#4C241D" stroke-linecap="round" stroke-linejoin="round"/>
<path d="M69.0625 151.406H90.3125C93.8349 151.406 97.213 152.806 99.7038 155.296C102.194 157.787 103.594 161.165 103.594 164.688H55.7812C55.7812 161.165 57.1805 157.787 59.6712 155.296C62.162 152.806 65.5401 151.406 69.0625 151.406V151.406ZM87.6562 29.2188C87.6562 27.1053 86.8167 25.0784 85.3223 23.584C83.8278 22.0896 81.8009 21.25 79.6875 21.25C77.5741 21.25 75.5472 22.0896 74.0527 23.584C72.5583 25.0784 71.7188 27.1053 71.7188 29.2188" fill="#6B4F5B"/>
<path d="M87.6562 29.2188C87.6562 27.1053 86.8167 25.0784 85.3223 23.584C83.8278 22.0896 81.8009 21.25 79.6875 21.25C77.5741 21.25 75.5472 22.0896 74.0527 23.584C72.5583 25.0784 71.7188 27.1053 71.7188 29.2188M69.0625 151.406H90.3125C93.8349 151.406 97.213 152.806 99.7038 155.296C102.194 157.787 103.594 161.165 103.594 164.688H55.7812C55.7812 161.165 57.1805 157.787 59.6712 155.296C62.162 152.806 65.5401 151.406 69.0625 151.406V151.406Z" stroke="#4C241D" stroke-linecap="round" stroke-linejoin="round"/>
<path d="M87.6562 55.7812H71.7188V151.406H87.6562V55.7812Z" fill="#B5A19C" stroke="#4C241D" stroke-linecap="round" stroke-linejoin="round"/>
<path d="M18.5938 29.2188H140.781C142.895 29.2188 144.922 30.0583 146.416 31.5527C147.91 33.0472 148.75 35.0741 148.75 37.1875V37.1875H10.625C10.625 35.0741 11.4646 33.0472 12.959 31.5527C14.4534 30.0583 16.4803 29.2188 18.5938 29.2188V29.2188Z" fill="#B5A19C" stroke="#4C241D" stroke-linecap="round" stroke-linejoin="round"/>
<path d="M85 37.1875H74.375V55.7812H85V37.1875Z" fill="#6B4F5B" stroke="#4C241D" stroke-linecap="round" stroke-linejoin="round"/>
<path d="M135.469 37.1875L119.531 79.6875" stroke="#4C241D" stroke-linecap="round" stroke-linejoin="round"/>
<path d="M135.469 37.1875L151.406 79.6875" stroke="#4C241D" stroke-linecap="round" stroke-linejoin="round"/>
<path d="M106.25 122.188H164.688C164.688 125.71 163.288 129.088 160.798 131.579C158.307 134.069 154.929 135.469 151.406 135.469H119.531C116.009 135.469 112.631 134.069 110.14 131.579C107.649 129.088 106.25 125.71 106.25 122.188V122.188Z" fill="#6B4F5B" stroke="#4C241D" stroke-linecap="round" stroke-linejoin="round"/>
<path d="M34.5312 37.1875L18.5938 74.375" stroke="#4C241D" stroke-linecap="round" stroke-linejoin="round"/>
<path d="M34.5312 37.1875L50.4688 74.375" stroke="#4C241D" stroke-linecap="round" stroke-linejoin="round"/>
<path d="M5.3125 95.625H63.75C63.75 97.3691 63.4065 99.0962 62.739 100.708C62.0716 102.319 61.0933 103.783 59.86 105.016C58.6267 106.25 57.1626 107.228 55.5513 107.895C53.9399 108.563 52.2129 108.906 50.4688 108.906H18.5938C16.8496 108.906 15.1226 108.563 13.5112 107.895C11.8999 107.228 10.4358 106.25 9.20249 105.016C7.96921 103.783 6.99092 102.319 6.32348 100.708C5.65603 99.0962 5.3125 97.3691 5.3125 95.625V95.625Z" fill="#6B4F5B" stroke="#4C241D" stroke-linecap="round" stroke-linejoin="round"/>
<path d="M156.719 100.938H114.219L108.906 122.188H162.031L156.719 100.938Z" fill="#FFCE56" stroke="#4C241D" stroke-linecap="round" stroke-linejoin="round"/>
<path d="M132.812 103.594H122.188V119.531H132.812V103.594Z" fill="#FFEC95"/>
<path d="M156.719 79.6875H114.219L108.906 100.938H162.031L156.719 79.6875Z" fill="#FFCE56" stroke="#4C241D" stroke-linecap="round" stroke-linejoin="round"/>
<path d="M132.812 82.3438H122.188V98.2812H132.812V82.3438Z" fill="#FFEC95"/>
<path d="M55.7812 74.375H13.2812L7.96875 95.625H61.0938L55.7812 74.375Z" fill="#FFCE56" stroke="#4C241D" stroke-linecap="round" stroke-linejoin="round"/>
<path d="M31.875 77.0312H21.25V92.9688H31.875V77.0312Z" fill="#FFEC95"/>
</svg>
