<svg width="64" height="64" viewBox="0 0 64 64" fill="none" xmlns="http://www.w3.org/2000/svg">
<path d="M53.5 20C54.8807 20 56 18.8807 56 17.5C56 16.1193 54.8807 15 53.5 15C52.1193 15 51 16.1193 51 17.5C51 18.8807 52.1193 20 53.5 20Z" stroke="#4C241D" stroke-linecap="round" stroke-linejoin="round"/>
<path d="M5 30C5.55228 30 6 29.5523 6 29C6 28.4477 5.55228 28 5 28C4.44772 28 4 28.4477 4 29C4 29.5523 4.44772 30 5 30Z" fill="#4C241D"/>
<path d="M26 61C26.5523 61 27 60.5523 27 60C27 59.4477 26.5523 59 26 59C25.4477 59 25 59.4477 25 60C25 60.5523 25.4477 61 26 61Z" fill="#4C241D"/>
<path d="M48 28.463V29.878" stroke="#4C241D" stroke-linecap="round" stroke-linejoin="round"/>
<path d="M48 34.122V35.537" stroke="#4C241D" stroke-linecap="round" stroke-linejoin="round"/>
<path d="M44.463 32H45.878" stroke="#4C241D" stroke-linecap="round" stroke-linejoin="round"/>
<path d="M50.122 32H51.537" stroke="#4C241D" stroke-linecap="round" stroke-linejoin="round"/>
<path d="M11 45.463V46.878" stroke="#4C241D" stroke-linecap="round" stroke-linejoin="round"/>
<path d="M11 51.122V52.537" stroke="#4C241D" stroke-linecap="round" stroke-linejoin="round"/>
<path d="M7.46301 49H8.87801" stroke="#4C241D" stroke-linecap="round" stroke-linejoin="round"/>
<path d="M13.122 49H14.537" stroke="#4C241D" stroke-linecap="round" stroke-linejoin="round"/>
<path d="M31.038 45.411C33.816 46.7118 36.671 47.8413 39.587 48.793L41.687 45.818C41.687 45.818 12.482 30.984 7.67801 3.06702C7.67801 3.06702 -0.273989 29.057 28.692 44.244" fill="#FFCE56"/>
<path d="M31.038 45.411C33.816 46.7118 36.671 47.8413 39.587 48.793L41.687 45.818C41.687 45.818 12.482 30.984 7.67801 3.06702C7.67801 3.06702 -0.273989 29.057 28.692 44.244" stroke="#4C241D" stroke-linecap="round" stroke-linejoin="round"/>
<path d="M59.0803 56.6666L41.8254 45.8988L39.7454 49.232L57.0002 59.9998L59.0803 56.6666Z" fill="#E66353" stroke="#4C241D" stroke-linecap="round" stroke-linejoin="round"/>
<path d="M45.5285 44.6883L38.7089 46.267L40.2876 53.0866L47.1072 51.5079L45.5285 44.6883Z" fill="#BD53B5" stroke="#4C241D" stroke-linecap="round" stroke-linejoin="round"/>
<path d="M51 43L48 41L38 57L42 59" stroke="#4C241D" stroke-linecap="round" stroke-linejoin="round"/>
<path d="M51 52L49 55" stroke="#4C241D" stroke-linecap="round" stroke-linejoin="round"/>
<path d="M54.86 54.211L52.869 57.196" stroke="#4C241D" stroke-linecap="round" stroke-linejoin="round"/>
<path d="M19 11.729C19 11.729 23.926 2.57998 38 6.79998M28.09 24.1C28.09 24.1 30.55 9.54498 51.418 8.81298M23 17C24.9343 13.9325 27.7769 11.5443 31.132 10.168" stroke="#00CCCA" stroke-linecap="round" stroke-linejoin="round"/>
</svg>
