<svg width="64" height="64" viewBox="0 0 64 64" fill="none" xmlns="http://www.w3.org/2000/svg">
<g clip-path="url(#clip0_683_963)">
<path d="M45.033 15.409L38.6 25.8C40.0916 26.8879 41.3123 28.3052 42.1672 29.9416C43.022 31.5781 43.488 33.3896 43.5289 35.2354C43.5698 37.0812 43.1846 38.9116 42.4031 40.5843C41.6216 42.257 40.465 43.7269 39.023 44.88L45.464 55.28C48.6699 53.0184 51.2783 50.0119 53.065 46.5191C54.8517 43.0262 55.7631 39.1516 55.7208 35.2285C55.6785 31.3055 54.6837 27.4514 52.8222 23.9979C50.9606 20.5444 48.2879 17.5948 45.034 15.403L45.033 15.409Z" fill="#FC8C29" stroke="#4C241D" stroke-linecap="round" stroke-linejoin="round"/>
<path d="M45.463 55.286L39.022 44.886C36.8901 46.6011 34.2361 47.5361 31.5 47.5361C28.7639 47.5361 26.1099 46.6011 23.978 44.886L17.537 55.286C21.6214 58.1713 26.4993 59.7205 31.5 59.7205C36.5007 59.7205 41.3786 58.1713 45.463 55.286V55.286Z" fill="#F53E28" stroke="#4C241D" stroke-linecap="round" stroke-linejoin="round"/>
<path d="M7.279 35.5001C7.27676 39.379 8.20758 43.2015 9.99292 46.6451C11.7783 50.0888 14.3657 53.0524 17.537 55.2861L23.978 44.8861C22.5349 43.7332 21.3771 42.263 20.5948 40.5897C19.8126 38.9165 19.4268 37.0853 19.4677 35.2387C19.5085 33.392 19.9748 31.5797 20.8302 29.9427C21.6857 28.3056 22.9073 26.888 24.4 25.8001L17.967 15.4091C14.6747 17.6248 11.9779 20.6163 10.1141 24.1199C8.25023 27.6234 7.27662 31.5316 7.279 35.5001V35.5001Z" fill="#FFCE56" stroke="#4C241D" stroke-linecap="round" stroke-linejoin="round"/>
<path d="M35.547 11.615C34.2097 11.3905 32.856 11.2778 31.5 11.278C26.6774 11.2705 21.9633 12.7094 17.967 15.409L24.4 25.8C26.4022 24.3243 28.8146 23.5093 31.3016 23.4685C33.7885 23.4276 36.2264 24.1629 38.276 25.572C38.3174 25.6011 38.3644 25.6215 38.4139 25.6318C38.4635 25.6422 38.5147 25.6423 38.5643 25.6322C38.6139 25.6221 38.6609 25.602 38.7025 25.573C38.7441 25.5441 38.7793 25.507 38.806 25.464L45.032 15.407C43.8912 14.6369 42.6868 13.9655 41.432 13.4" fill="#A9BA5A"/>
<path d="M35.547 11.615C34.2097 11.3905 32.856 11.2778 31.5 11.278C26.6774 11.2705 21.9633 12.7094 17.967 15.409L24.4 25.8C26.4022 24.3243 28.8146 23.5093 31.3016 23.4685C33.7885 23.4276 36.2264 24.1629 38.276 25.572C38.3174 25.6011 38.3644 25.6215 38.4139 25.6318C38.4635 25.6422 38.5147 25.6423 38.5643 25.6322C38.6139 25.6221 38.6609 25.602 38.7025 25.573C38.7441 25.5441 38.7793 25.507 38.806 25.464L45.032 15.407C43.8912 14.6369 42.6868 13.9655 41.432 13.4" stroke="#4C241D" stroke-linecap="round" stroke-linejoin="round"/>
<path d="M50.501 6L49.501 7" stroke="#4C241D" stroke-linecap="round" stroke-linejoin="round"/>
<path d="M46.499 10.002L45.499 11.002" stroke="#4C241D" stroke-linecap="round" stroke-linejoin="round"/>
<path d="M45.499 6L46.499 7" stroke="#4C241D" stroke-linecap="round" stroke-linejoin="round"/>
<path d="M49.501 10.002L50.501 11.002" stroke="#4C241D" stroke-linecap="round" stroke-linejoin="round"/>
<path d="M62.5 14.07C63.0904 14.07 63.569 13.5914 63.569 13.001C63.569 12.4106 63.0904 11.932 62.5 11.932C61.9096 11.932 61.431 12.4106 61.431 13.001C61.431 13.5914 61.9096 14.07 62.5 14.07Z" fill="#4C241D"/>
<path d="M25.069 64.138C25.6594 64.138 26.138 63.6594 26.138 63.069C26.138 62.4786 25.6594 62 25.069 62C24.4786 62 24 62.4786 24 63.069C24 63.6594 24.4786 64.138 25.069 64.138Z" fill="#4C241D"/>
<path d="M4.5 54C5.88071 54 7 52.8807 7 51.5C7 50.1193 5.88071 49 4.5 49C3.11929 49 2 50.1193 2 51.5C2 52.8807 3.11929 54 4.5 54Z" stroke="#4C241D" stroke-linecap="round" stroke-linejoin="round"/>
</g>
<defs>
<clipPath id="clip0_683_963">
<rect width="64" height="64" fill="white"/>
</clipPath>
</defs>
</svg>
