<svg width="170" height="170" viewBox="0 0 170 170" fill="none" xmlns="http://www.w3.org/2000/svg">
<path d="M79.6875 143.438H126.172C127.933 143.438 129.622 142.738 130.868 141.493C132.113 140.247 132.812 138.558 132.812 136.797C132.812 135.036 132.113 133.347 130.868 132.101C129.622 130.856 127.933 130.156 126.172 130.156H122.188" stroke="#4C241D" stroke-linecap="round" stroke-linejoin="round"/>
<path d="M73.0469 143.438C104.588 143.438 130.156 117.869 130.156 86.3281C130.156 54.7875 104.588 29.2188 73.0469 29.2188C41.5062 29.2188 15.9375 54.7875 15.9375 86.3281C15.9375 117.869 41.5062 143.438 73.0469 143.438Z" fill="#BFE7F4"/>
<path d="M85 18.5938C85 17.1848 84.4403 15.8335 83.444 14.8372C82.4477 13.841 81.0965 13.2813 79.6875 13.2812C78.2785 13.2813 76.9273 13.841 75.931 14.8372C74.9347 15.8335 74.375 17.1848 74.375 18.5938V92.9688H85V18.5938Z" fill="#BF7E68" stroke="#4C241D" stroke-linecap="round" stroke-linejoin="round"/>
<path d="M85 92.9688H74.375V114.219H85V92.9688Z" fill="#EFEFD2" stroke="#4C241D" stroke-linecap="round" stroke-linejoin="round"/>
<path d="M61.0938 123.516C61.0927 121.203 61.5562 118.913 62.4569 116.783C63.3576 114.653 64.6771 112.726 66.3371 111.115C67.997 109.505 69.9636 108.244 72.1201 107.409C74.2766 106.573 76.579 106.179 78.8906 106.25C83.4608 106.511 87.7536 108.527 90.872 111.878C93.9905 115.229 95.6934 119.656 95.625 124.233V134.305C95.6264 137.248 95.0479 140.163 93.9225 142.882C92.7971 145.602 91.1469 148.073 89.0662 150.154C86.9855 152.236 84.515 153.887 81.796 155.013C79.077 156.14 76.1626 156.719 73.2195 156.719H42.5C42.5 156.719 61.0938 151.406 61.0938 123.516Z" fill="#FFCE56" stroke="#4C241D" stroke-linecap="round" stroke-linejoin="round"/>
<path d="M123.518 30.5442L120.862 33.2005" stroke="#4C241D" stroke-linecap="round" stroke-linejoin="round"/>
<path d="M112.888 41.1745L110.232 43.8308" stroke="#4C241D" stroke-linecap="round" stroke-linejoin="round"/>
<path d="M110.232 30.5442L112.888 33.2005" stroke="#4C241D" stroke-linecap="round" stroke-linejoin="round"/>
<path d="M120.862 41.1745L123.518 43.8308" stroke="#4C241D" stroke-linecap="round" stroke-linejoin="round"/>
<path d="M155.391 51.9802C156.959 51.9802 158.23 50.7088 158.23 49.1406C158.23 47.5724 156.959 46.3011 155.391 46.3011C153.822 46.3011 152.551 47.5724 152.551 49.1406C152.551 50.7088 153.822 51.9802 155.391 51.9802Z" fill="#4C241D"/>
<path d="M41.1719 83.8552C42.7401 83.8552 44.0114 82.5838 44.0114 81.0156C44.0114 79.4474 42.7401 78.1761 41.1719 78.1761C39.6036 78.1761 38.3323 79.4474 38.3323 81.0156C38.3323 82.5838 39.6036 83.8552 41.1719 83.8552Z" fill="#4C241D"/>
<path d="M127.378 94.9981C132.709 88.0467 145.841 89.1544 145.841 89.1544C145.841 89.1544 150.33 101.546 144.999 108.497C139.668 115.449 126.536 114.341 126.536 114.341C126.536 114.341 122.047 101.95 127.378 94.9981Z" fill="#A9BA5A" stroke="#4C241D" stroke-linecap="round" stroke-linejoin="round"/>
<path d="M38.1491 33.7025C45.7327 38.0853 46.3303 51.2497 46.3303 51.2497C46.3303 51.2497 34.6269 57.3139 27.0406 52.9337C19.4544 48.5536 18.8594 35.3839 18.8594 35.3839C18.8594 35.3839 30.5628 29.3223 38.1491 33.7025Z" fill="#FC8C29" stroke="#4C241D" stroke-linecap="round" stroke-linejoin="round"/>
<path d="M27.8906 119.531C31.5581 119.531 34.5312 116.558 34.5312 112.891C34.5312 109.223 31.5581 106.25 27.8906 106.25C24.2231 106.25 21.25 109.223 21.25 112.891C21.25 116.558 24.2231 119.531 27.8906 119.531Z" stroke="#4C241D" stroke-linecap="round" stroke-linejoin="round"/>
<path d="M103.594 156.719H150.078C151.839 156.719 153.528 156.019 154.774 154.774C156.019 153.528 156.719 151.839 156.719 150.078C156.719 148.317 156.019 146.628 154.774 145.382C153.528 144.137 151.839 143.438 150.078 143.438H146.094" stroke="#4C241D" stroke-linecap="round" stroke-linejoin="round"/>
</svg>
