<svg width="37" height="37" viewBox="0 0 37 37" fill="none" xmlns="http://www.w3.org/2000/svg">
<g clip-path="url(#clip0_265_1731)">
<path d="M8.35275 35.7119C7.46012 36.1698 6.44725 35.3674 6.62762 34.3429L8.547 23.4048L0.400061 15.6441C-0.360751 14.9179 0.0346863 13.5906 1.0545 13.4472L12.3811 11.8377L17.4316 1.83151C17.8872 0.929633 19.1197 0.929633 19.5753 1.83151L24.6258 11.8377L35.9524 13.4472C36.9722 13.5906 37.3677 14.9179 36.6046 15.6441L28.4599 23.4048L30.3793 34.3429C30.5597 35.3674 29.5468 36.1698 28.6542 35.7119L18.5 30.4949L8.35044 35.7119H8.35275Z" fill="white"/>
</g>
<g clip-path="url(#clip1_265_1731)">
<path d="M9.99834 32.9208C9.25047 33.3044 8.40184 32.6321 8.55297 31.7738L10.1611 22.6094L3.33528 16.1072C2.69784 15.4988 3.02915 14.3867 3.88359 14.2666L13.3735 12.9181L17.605 4.53451C17.9867 3.77888 19.0193 3.77888 19.401 4.53451L23.6325 12.9181L33.1224 14.2666C33.9768 14.3867 34.3082 15.4988 33.6688 16.1072L26.8449 22.6094L28.453 31.7738C28.6042 32.6321 27.7555 33.3044 27.0077 32.9208L18.5001 28.5498L9.99641 32.9208H9.99834Z" fill="#FFA800"/>
</g>
<defs>
<clipPath id="clip0_265_1731">
<rect width="37" height="37" fill="white"/>
</clipPath>
<clipPath id="clip1_265_1731">
<rect width="31" height="31" fill="white" transform="translate(3 3)"/>
</clipPath>
</defs>
</svg>
