<svg width="170" height="170" viewBox="0 0 170 170" fill="none" xmlns="http://www.w3.org/2000/svg">
<path d="M62.1094 121.219C93.65 121.219 119.219 95.65 119.219 64.1094C119.219 32.5687 93.65 7 62.1094 7C30.5687 7 5 32.5687 5 64.1094C5 95.65 30.5687 121.219 62.1094 121.219Z" fill="#BFE7F4"/>
<path d="M5.3125 159.375V123.227C5.31187 120.534 6.13768 117.907 7.67693 115.704C9.21618 113.502 11.3937 111.833 13.9114 110.924C18.3532 109.463 22.6908 107.699 26.8939 105.643L35.8594 100.938L44.8249 105.646C49.028 107.702 53.3655 109.466 57.8073 110.927C60.3251 111.836 62.5026 113.505 64.0418 115.707C65.5811 117.91 66.4069 120.537 66.4062 123.23V159.375" fill="#00CCCA"/>
<path d="M5.3125 159.375V123.227C5.31187 120.534 6.13768 117.907 7.67693 115.704C9.21618 113.502 11.3937 111.833 13.9114 110.924C18.3532 109.463 22.6908 107.699 26.8939 105.643L35.8594 100.938L44.8249 105.646C49.028 107.702 53.3655 109.466 57.8073 110.927C60.3251 111.836 62.5026 113.505 64.0418 115.707C65.5811 117.91 66.4069 120.537 66.4062 123.23V159.375" stroke="#4C241D" stroke-linecap="round" stroke-linejoin="round"/>
<path d="M32.207 95.9715H44.8242V105.326C44.8242 106.98 44.1596 108.566 42.9765 109.736C41.7934 110.905 40.1888 111.562 38.5156 111.562C36.8425 111.562 35.2379 110.905 34.0548 109.736C32.8717 108.566 32.207 106.98 32.207 105.326V95.9715ZM24.6998 39.8438H49.5557C53.3202 39.8437 56.9306 41.3221 59.5926 43.9536C62.2545 46.5851 63.75 50.1542 63.75 53.8757V81.9395C63.75 85.661 62.2545 89.2301 59.5926 91.8616C56.9306 94.4931 53.3202 95.9715 49.5557 95.9715H27.4756C23.711 95.9715 20.1006 94.4931 17.4387 91.8616C14.7767 89.2301 13.2813 85.661 13.2812 81.9395V51.1317C13.2812 48.1379 14.4843 45.2668 16.6257 43.1499C18.7671 41.033 21.6714 39.8438 24.6998 39.8438V39.8438Z" fill="#FFDED5" stroke="#4C241D" stroke-linecap="round" stroke-linejoin="round"/>
<path d="M32.7675 53.125H43.304C57.5375 53.125 69.0625 43.6111 69.0625 31.875H27.7503C19.7581 31.875 13.2812 37.2209 13.2812 43.8175V53.125" fill="#FFCE56"/>
<path d="M32.7675 53.125H43.304C57.5375 53.125 69.0625 43.6111 69.0625 31.875H27.7503C19.7581 31.875 13.2812 37.2209 13.2812 43.8175V53.125" stroke="#4C241D" stroke-linecap="round" stroke-linejoin="round"/>
<path d="M66.4062 159.375V124.312C66.4062 118.368 71.0839 113.308 77.6209 111.414C83.3706 109.897 89.0273 108.048 94.5625 105.875L106.25 100.938L117.938 105.875C123.47 108.048 129.124 109.897 134.871 111.414C141.416 113.308 146.094 118.368 146.094 124.312V159.375" fill="#A9BA5A"/>
<path d="M66.4062 159.375V124.312C66.4062 118.368 71.0839 113.308 77.6209 111.414C83.3706 109.897 89.0273 108.048 94.5625 105.875L106.25 100.938L117.938 105.875C123.47 108.048 129.124 109.897 134.871 111.414C141.416 113.308 146.094 118.368 146.094 124.312V159.375" stroke="#4C241D" stroke-linecap="round" stroke-linejoin="round"/>
<path d="M95.625 95.625H111.562V106.25C111.562 107.659 111.003 109.01 110.007 110.007C109.01 111.003 107.659 111.562 106.25 111.562H100.938C99.5285 111.562 98.1773 111.003 97.181 110.007C96.1847 109.01 95.625 107.659 95.625 106.25V95.625Z" fill="#E7D1C4" stroke="#4C241D" stroke-linecap="round" stroke-linejoin="round"/>
<path d="M150.806 21.0162L158.637 28.8469" stroke="#4C241D" stroke-linecap="round" stroke-linejoin="round"/>
<path d="M150.806 28.8469L158.637 21.0162" stroke="#4C241D" stroke-linecap="round" stroke-linejoin="round"/>
<path d="M135.469 66.4062C135.466 64.7631 134.953 63.1613 134.002 61.8216C133.05 60.4819 131.707 59.4703 130.156 58.9263V46.4844C130.156 43.3142 128.897 40.2739 126.655 38.0322C124.414 35.7906 121.373 34.5312 118.203 34.5312H77.0313V58.9263C75.4786 59.4672 74.1327 60.4779 73.1803 61.8182C72.2279 63.1585 71.7162 64.762 71.7162 66.4062C71.7162 68.0505 72.2279 69.654 73.1803 70.9943C74.1327 72.3346 75.4786 73.3453 77.0313 73.8862V83.6719C77.0313 86.842 78.2906 89.8824 80.5322 92.124C82.7739 94.3657 85.8142 95.625 88.9844 95.625H118.203C121.373 95.625 124.414 94.3657 126.655 92.124C128.897 89.8824 130.156 86.842 130.156 83.6719V73.8862C131.707 73.3422 133.05 72.3306 134.002 70.9909C134.953 69.6512 135.466 68.0494 135.469 66.4062V66.4062Z" fill="#E7D1C4" stroke="#4C241D" stroke-linecap="round" stroke-linejoin="round"/>
<path d="M108.816 47.1484H97.2586C81.6877 47.1484 69.0625 36.7412 69.0625 23.9062H114.309C123.061 23.9062 130.156 29.75 130.156 36.9697V47.1484" fill="#6B4F5B"/>
<path d="M108.816 47.1484H97.2586C81.6877 47.1484 69.0625 36.7412 69.0625 23.9062H114.309C123.061 23.9062 130.156 29.75 130.156 36.9697V47.1484" stroke="#4C241D" stroke-linecap="round" stroke-linejoin="round"/>
<path d="M90.3125 69.0625C91.7795 69.0625 92.9688 67.8733 92.9688 66.4062C92.9688 64.9392 91.7795 63.75 90.3125 63.75C88.8455 63.75 87.6562 64.9392 87.6562 66.4062C87.6562 67.8733 88.8455 69.0625 90.3125 69.0625Z" fill="#4C241D"/>
<path d="M116.875 69.0625C118.342 69.0625 119.531 67.8733 119.531 66.4062C119.531 64.9392 118.342 63.75 116.875 63.75C115.408 63.75 114.219 64.9392 114.219 66.4062C114.219 67.8733 115.408 69.0625 116.875 69.0625Z" fill="#4C241D"/>
<path d="M26.5625 74.375C28.0295 74.375 29.2188 73.1858 29.2188 71.7188C29.2188 70.2517 28.0295 69.0625 26.5625 69.0625C25.0955 69.0625 23.9062 70.2517 23.9062 71.7188C23.9062 73.1858 25.0955 74.375 26.5625 74.375Z" fill="#4C241D"/>
<path d="M50.4688 74.375C51.9358 74.375 53.125 73.1858 53.125 71.7188C53.125 70.2517 51.9358 69.0625 50.4688 69.0625C49.0017 69.0625 47.8125 70.2517 47.8125 71.7188C47.8125 73.1858 49.0017 74.375 50.4688 74.375Z" fill="#4C241D"/>
<path d="M130.156 127.5V151.406H111.563V148.88C111.563 148.141 111.269 147.432 110.746 146.91C110.224 146.387 109.515 146.094 108.776 146.094H101.073C100.707 146.093 100.344 146.165 100.005 146.304C99.6664 146.444 99.3586 146.649 99.0993 146.908C98.84 147.167 98.6342 147.474 98.4939 147.813C98.3535 148.151 98.2813 148.514 98.2813 148.88V159.24C98.2806 159.606 98.3521 159.969 98.4918 160.307C98.6316 160.646 98.8367 160.954 99.0955 161.213C99.3543 161.473 99.6617 161.678 100 161.819C100.339 161.959 100.701 162.031 101.068 162.031H142.734C143.175 162.031 143.612 161.944 144.019 161.775C144.427 161.607 144.798 161.359 145.11 161.047C145.422 160.735 145.669 160.365 145.838 159.957C146.007 159.549 146.094 159.112 146.094 158.671V127.5" fill="#E7D1C4"/>
<path d="M130.156 127.5V151.406H111.563V148.88C111.563 148.141 111.269 147.432 110.746 146.91C110.224 146.387 109.515 146.094 108.776 146.094H101.073C100.707 146.093 100.344 146.165 100.005 146.304C99.6664 146.444 99.3586 146.649 99.0993 146.908C98.84 147.167 98.6342 147.474 98.4939 147.813C98.3535 148.151 98.2813 148.514 98.2813 148.88V159.24C98.2806 159.606 98.3521 159.969 98.4918 160.307C98.6316 160.646 98.8367 160.954 99.0955 161.213C99.3543 161.473 99.6617 161.678 100 161.819C100.339 161.959 100.701 162.031 101.068 162.031H142.734C143.175 162.031 143.612 161.944 144.019 161.775C144.427 161.607 144.798 161.359 145.11 161.047C145.422 160.735 145.669 160.365 145.838 159.957C146.007 159.549 146.094 159.112 146.094 158.671V127.5" stroke="#4C241D" stroke-linecap="round" stroke-linejoin="round"/>
<path d="M5.3125 127.5V158.06C5.3125 158.582 5.41183 159.098 5.60482 159.58C5.7978 160.062 6.08067 160.499 6.43726 160.868C6.79386 161.237 7.21719 161.529 7.68311 161.729C8.14902 161.929 8.64838 162.031 9.15268 162.031H45.4416C46.0704 162.031 46.6735 161.773 47.1181 161.313C47.5627 160.853 47.8125 160.23 47.8125 159.58V145.648C47.8125 144.997 47.5627 144.374 47.1181 143.914C46.6735 143.454 46.0704 143.196 45.4416 143.196H38.0405C37.7292 143.196 37.4209 143.259 37.1332 143.383C36.8456 143.506 36.5842 143.686 36.3641 143.914C36.1439 144.142 35.9693 144.412 35.8501 144.71C35.731 145.007 35.6696 145.326 35.6696 145.648V149.474H17.4554V127.5" fill="#FFDED5"/>
<path d="M5.3125 127.5V158.06C5.3125 158.582 5.41183 159.098 5.60482 159.58C5.7978 160.062 6.08067 160.499 6.43726 160.868C6.79386 161.237 7.21719 161.529 7.68311 161.729C8.14902 161.929 8.64838 162.031 9.15268 162.031H45.4416C46.0704 162.031 46.6735 161.773 47.1181 161.313C47.5627 160.853 47.8125 160.23 47.8125 159.58V145.648C47.8125 144.997 47.5627 144.374 47.1181 143.914C46.6735 143.454 46.0704 143.196 45.4416 143.196H38.0405C37.7292 143.196 37.4209 143.259 37.1332 143.383C36.8456 143.506 36.5842 143.686 36.3641 143.914C36.1439 144.142 35.9693 144.412 35.8501 144.71C35.731 145.007 35.6696 145.326 35.6696 145.648V149.474H17.4554V127.5" stroke="#4C241D" stroke-linecap="round" stroke-linejoin="round"/>
</svg>
