<svg width="64" height="64" viewBox="0 0 64 64" fill="none" xmlns="http://www.w3.org/2000/svg">
<path d="M23.8225 55.0001H2V47.4414C2.0003 46.7033 2.29362 45.9956 2.81549 45.4737C3.33736 44.9519 4.04508 44.6586 4.78311 44.6583H33.6897C34.4278 44.6586 35.1355 44.9519 35.6574 45.4737C36.1792 45.9956 36.4725 46.7033 36.4728 47.4414V55.0001H29.5783M7.55932 34.3164H30.9135C31.7784 34.3164 32.6079 34.66 33.2195 35.2716C33.8311 35.8831 34.1747 36.7126 34.1747 37.5775V44.6583H4.29819V37.5775C4.29819 36.7126 4.64177 35.8831 5.25335 35.2716C5.86493 34.66 6.69442 34.3164 7.55932 34.3164Z" fill="white"/>
<path d="M23.8225 55.0001H2V47.4414C2.0003 46.7033 2.29362 45.9956 2.81549 45.4737C3.33736 44.9519 4.04508 44.6586 4.78311 44.6583H33.6897C34.4278 44.6586 35.1355 44.9519 35.6574 45.4737C36.1792 45.9956 36.4725 46.7033 36.4728 47.4414V55.0001H29.5783M7.55932 34.3164H30.9135C31.7784 34.3164 32.6079 34.66 33.2195 35.2716C33.8311 35.8831 34.1747 36.7126 34.1747 37.5775V44.6583H4.29819V37.5775C4.29819 36.7126 4.64177 35.8831 5.25335 35.2716C5.86493 34.66 6.69442 34.3164 7.55932 34.3164Z" stroke="#4C241D" stroke-linecap="round" stroke-linejoin="round"/>
<path d="M29.5783 23.9744H8.89457V34.3162H29.5783V23.9744Z" fill="white" stroke="#4C241D" stroke-linecap="round" stroke-linejoin="round"/>
<path d="M19.1296 23.6296C19.1296 23.6296 25.9173 16.4466 25.9173 14.5104C25.881 13.5455 25.4637 12.6344 24.7567 11.9768C24.0498 11.3191 23.1109 10.9687 22.1459 11.0022C21.5687 10.9981 20.9979 11.1239 20.4758 11.3701C19.9537 11.6163 19.4936 11.9768 19.1296 12.4248C18.7655 11.9768 18.3054 11.6163 17.7833 11.3701C17.2612 11.1239 16.6904 10.9981 16.1132 11.0022C15.1486 10.9687 14.2101 11.3188 13.5032 11.976C12.7963 12.6331 12.3787 13.5436 12.3419 14.5081C12.3419 16.4443 19.1296 23.6296 19.1296 23.6296Z" fill="#F53E28" stroke="#4C241D" stroke-linecap="round" stroke-linejoin="round"/>
<path d="M35.3237 48.1055H3.14909V51.5528H35.3237V48.1055Z" fill="#6B4F5B"/>
<path d="M33.0256 37.7637H5.44728V41.211H33.0256V37.7637Z" fill="#6B4F5B"/>
<path d="M28.4292 27.4216H10.0437V30.8689H28.4292V27.4216Z" fill="#6B4F5B"/>
<path d="M42.2183 55H36.4728" stroke="#4C241D" stroke-linecap="round" stroke-linejoin="round"/>
<path d="M55.5 28C56.8807 28 58 26.8807 58 25.5C58 24.1193 56.8807 23 55.5 23C54.1193 23 53 24.1193 53 25.5C53 26.8807 54.1193 28 55.5 28Z" stroke="#4C241D" stroke-linecap="round" stroke-linejoin="round"/>
<path d="M59.251 45.3011C59.8414 45.3011 60.32 44.8225 60.32 44.2321C60.32 43.6417 59.8414 43.1631 59.251 43.1631C58.6606 43.1631 58.182 43.6417 58.182 44.2321C58.182 44.8225 58.6606 45.3011 59.251 45.3011Z" fill="#4C241D"/>
<path d="M39 35H53V43C53 44.8565 52.2625 46.637 50.9497 47.9497C49.637 49.2625 47.8565 50 46 50V50C44.1435 50 42.363 49.2625 41.0503 47.9497C39.7375 46.637 39 44.8565 39 43V35Z" fill="#FFCE56" stroke="#4C241D" stroke-linecap="round" stroke-linejoin="round"/>
<path d="M53 22H39V35H53V22Z" fill="white" stroke="#4C241D" stroke-linecap="round" stroke-linejoin="round"/>
<path d="M34 51V62" stroke="#4C241D" stroke-linecap="round" stroke-linejoin="round"/>
<path d="M20 63H54" stroke="#4C241D" stroke-linecap="round" stroke-linejoin="round"/>
<path d="M49 41C49.5523 41 50 40.5523 50 40C50 39.4477 49.5523 39 49 39C48.4477 39 48 39.4477 48 40C48 40.5523 48.4477 41 49 41Z" fill="#4C241D"/>
<path d="M27 32H41V43C41 44.8565 40.2625 46.637 38.9497 47.9497C37.637 49.2625 35.8565 50 34 50C32.1435 50 30.363 49.2625 29.0503 47.9497C27.7375 46.637 27 44.8565 27 43V32Z" fill="#FFCE56" stroke="#4C241D" stroke-linecap="round" stroke-linejoin="round"/>
<path d="M41 22H27V32H41V22Z" fill="white" stroke="#4C241D" stroke-linecap="round" stroke-linejoin="round"/>
<path d="M46 51V62" stroke="#4C241D" stroke-linecap="round" stroke-linejoin="round"/>
<path d="M58 63H61" stroke="#4C241D" stroke-linecap="round" stroke-linejoin="round"/>
<path d="M46 45C46.5523 45 47 44.5523 47 44C47 43.4477 46.5523 43 46 43C45.4477 43 45 43.4477 45 44C45 44.5523 45.4477 45 46 45Z" fill="#4C241D"/>
<path d="M32 45C32.5523 45 33 44.5523 33 44C33 43.4477 32.5523 43 32 43C31.4477 43 31 43.4477 31 44C31 44.5523 31.4477 45 32 45Z" fill="#4C241D"/>
<path d="M34 38C34.5523 38 35 37.5523 35 37C35 36.4477 34.5523 36 34 36C33.4477 36 33 36.4477 33 37C33 37.5523 33.4477 38 34 38Z" fill="#4C241D"/>
<path d="M47 7V9" stroke="#4C241D" stroke-linecap="round" stroke-linejoin="round"/>
<path d="M47 13V15" stroke="#4C241D" stroke-linecap="round" stroke-linejoin="round"/>
<path d="M43 11H45" stroke="#4C241D" stroke-linecap="round" stroke-linejoin="round"/>
<path d="M49 11H51" stroke="#4C241D" stroke-linecap="round" stroke-linejoin="round"/>
</svg>
