<svg width="170" height="170" viewBox="0 0 170 170" fill="none" xmlns="http://www.w3.org/2000/svg">
<path d="M57.1094 130.219C88.65 130.219 114.219 104.65 114.219 73.1094C114.219 41.5687 88.65 16 57.1094 16C25.5687 16 0 41.5687 0 73.1094C0 104.65 25.5687 130.219 57.1094 130.219Z" fill="#BFE7F4"/>
<path d="M144.766 23.9062C148.433 23.9062 151.406 20.9331 151.406 17.2656C151.406 13.5981 148.433 10.625 144.766 10.625C141.098 10.625 138.125 13.5981 138.125 17.2656C138.125 20.9331 141.098 23.9062 144.766 23.9062Z" stroke="#4C241D" stroke-linecap="round" stroke-linejoin="round"/>
<path d="M155.391 52.1475C157.051 52.1475 158.397 50.8013 158.397 49.1407C158.397 47.48 157.051 46.1338 155.391 46.1338C153.73 46.1338 152.384 47.48 152.384 49.1407C152.384 50.8013 153.73 52.1475 155.391 52.1475Z" fill="#4C241D"/>
<path d="M20.817 15.0422L11.058 24.8013" stroke="#4C241D" stroke-linecap="round" stroke-linejoin="round"/>
<path d="M11.058 15.0422L20.817 24.8013" stroke="#4C241D" stroke-linecap="round" stroke-linejoin="round"/>
<path d="M111.562 43.8282H45.1562V25.2345C66.4912 14.3704 88.7187 15.6401 111.562 25.2345V43.8282Z" fill="#FFCE56" stroke="#4C241D" stroke-linecap="round" stroke-linejoin="round"/>
<path d="M127.5 164.688H29.2188V142.84C29.2256 138.013 30.6353 133.292 33.2762 129.251C35.917 125.211 39.6753 122.025 44.0938 120.081L78.3594 104.922L112.638 120.081C117.054 122.027 120.81 125.214 123.448 129.254C126.087 133.294 127.494 138.014 127.5 142.84V164.688Z" fill="#C1DBDC" stroke="#4C241D" stroke-linecap="round" stroke-linejoin="round"/>
<path d="M77.0312 65.0781C108.572 65.0781 134.141 59.1319 134.141 51.7969C134.141 44.4618 108.572 38.5156 77.0312 38.5156C45.4906 38.5156 19.9219 44.4618 19.9219 51.7969C19.9219 59.1319 45.4906 65.0781 77.0312 65.0781Z" fill="#FFCE56" stroke="#4C241D" stroke-linecap="round" stroke-linejoin="round"/>
<path d="M66.4062 98.2812H90.3125V120.859C90.3125 124.03 89.0532 127.07 86.8115 129.312C84.5699 131.553 81.5295 132.812 78.3594 132.812C75.1892 132.812 72.1489 131.553 69.9072 129.312C67.6656 127.07 66.4062 124.03 66.4062 120.859V98.2812Z" fill="#E7D1C4" stroke="#4C241D" stroke-linecap="round" stroke-linejoin="round"/>
<path d="M111.563 65.0782C111.305 63.6993 111.241 62.2912 111.371 60.8946C111.406 59.0143 110.804 57.1775 109.663 55.6826C108.522 54.1877 106.909 53.1225 105.087 52.6602C86.608 48.2399 67.2813 48.8655 49.1273 54.4718C47.9869 54.836 46.997 55.5633 46.3083 56.5425C45.6196 57.5218 45.2701 58.6994 45.313 59.8958C45.4837 61.6228 45.431 63.3646 45.1563 65.0782C44.2635 65.0776 43.3797 65.257 42.5579 65.6057C41.736 65.9545 40.993 66.4654 40.3731 67.1078C39.7531 67.7503 39.2692 68.5112 38.95 69.345C38.6309 70.1787 38.4831 71.0683 38.5156 71.9605C38.5954 73.0173 38.9211 74.0408 39.4667 74.9493C40.0123 75.8578 40.7627 76.6263 41.658 77.1933C42.4503 77.7836 43.378 78.1658 44.3561 78.305C45.3343 78.4442 46.3318 78.336 47.2573 77.9902C48.5688 84.4043 51.5621 90.3544 55.9305 95.2307C60.2989 100.107 65.8853 103.734 72.1172 105.74C75.8301 106.894 79.8119 106.851 83.4992 105.618L84.6786 105.235C90.8185 103.243 96.3288 99.6762 100.66 94.8901C104.991 90.104 107.992 84.266 109.363 77.9583C110.272 78.3074 111.252 78.4321 112.22 78.3221C113.188 78.212 114.115 77.8704 114.923 77.3261C115.779 76.8197 116.512 76.13 117.07 75.3065C117.628 74.4831 117.997 73.5463 118.15 72.5635C118.27 71.6277 118.189 70.6771 117.913 69.7749C117.637 68.8728 117.172 68.0399 116.548 67.3316C115.925 66.6234 115.158 66.0561 114.298 65.6675C113.439 65.279 112.506 65.078 111.563 65.0782V65.0782Z" fill="#E7D1C4" stroke="#4C241D" stroke-linecap="round" stroke-linejoin="round"/>
<path d="M91.6406 78.3594C93.1076 78.3594 94.2969 77.1701 94.2969 75.7031C94.2969 74.2361 93.1076 73.0469 91.6406 73.0469C90.1736 73.0469 88.9844 74.2361 88.9844 75.7031C88.9844 77.1701 90.1736 78.3594 91.6406 78.3594Z" fill="#4C241D"/>
<path d="M65.0781 78.3594C66.5451 78.3594 67.7344 77.1701 67.7344 75.7031C67.7344 74.2361 66.5451 73.0469 65.0781 73.0469C63.6111 73.0469 62.4219 74.2361 62.4219 75.7031C62.4219 77.1701 63.6111 78.3594 65.0781 78.3594Z" fill="#4C241D"/>
<path d="M148.75 111.562V164.688" stroke="#4C241D" stroke-linecap="round" stroke-linejoin="round"/>
<path d="M159.927 95.1469C156.964 97.5857 153.203 98.8397 149.369 98.6664C149.197 94.8329 150.451 91.0717 152.888 88.1078C155.852 85.6705 159.614 84.4168 163.447 84.5883C163.62 88.422 162.366 92.1839 159.927 95.1469V95.1469ZM153.919 81.6744C153.547 85.4933 151.774 89.0391 148.941 91.6273C146.111 89.038 144.34 85.4925 143.969 81.6744C144.339 77.8553 146.11 74.3087 148.941 71.7188C151.774 74.3077 153.548 77.8545 153.919 81.6744V81.6744ZM159.927 107.591C156.964 110.029 153.202 111.283 149.369 111.111C149.197 107.277 150.451 103.516 152.888 100.552C155.852 98.1137 159.613 96.8598 163.447 97.0328C163.62 100.866 162.366 104.628 159.927 107.591V107.591ZM159.927 120.033C156.964 122.472 153.203 123.726 149.369 123.553C149.197 119.719 150.451 115.958 152.888 112.994C155.852 110.557 159.614 109.303 163.447 109.475C163.62 113.308 162.366 117.07 159.927 120.033ZM159.927 132.478C156.964 134.916 153.203 136.171 149.369 136C149.197 132.166 150.451 128.405 152.888 125.441C155.852 123.003 159.613 121.749 163.447 121.922C163.619 125.755 162.365 129.515 159.927 132.478V132.478Z" fill="#FFCE56" stroke="#4C241D" stroke-linecap="round" stroke-linejoin="round"/>
<path d="M137.748 94.0313C140.771 96.5185 144.608 97.797 148.519 97.6199C148.692 93.7126 147.413 89.8795 144.928 86.8594C141.906 84.3719 138.069 83.0925 134.159 83.2682C133.986 87.1759 135.264 91.0097 137.748 94.0313V94.0313ZM137.748 106.723C140.771 109.21 144.608 110.489 148.519 110.311C148.694 106.401 147.415 102.565 144.928 99.543C141.906 97.0558 138.069 95.7772 134.159 95.9544C133.984 99.864 135.262 103.7 137.748 106.723V106.723ZM137.748 119.414C140.771 121.902 144.608 123.181 148.519 123.006C148.694 119.095 147.415 115.258 144.928 112.235C141.907 109.745 138.07 108.465 134.159 108.641C133.982 112.552 135.261 116.39 137.748 119.414V119.414ZM137.748 132.106C140.771 134.593 144.608 135.873 148.519 135.697C148.695 131.787 147.415 127.951 144.928 124.929C141.906 122.441 138.069 121.162 134.159 121.338C133.984 125.247 135.262 129.083 137.748 132.106V132.106Z" fill="#FFCE56" stroke="#4C241D" stroke-linecap="round" stroke-linejoin="round"/>
<path d="M108.906 119.531V164.688" stroke="#4C241D" stroke-linecap="round" stroke-linejoin="round"/>
<path d="M47.8125 119.531V164.688" stroke="#4C241D" stroke-linecap="round" stroke-linejoin="round"/>
<path d="M108.906 146.094H47.8125V164.688H108.906V146.094Z" fill="#A9BA5A" stroke="#4C241D" stroke-linecap="round" stroke-linejoin="round"/>
<path d="M29.2188 87.6562V98.2812C29.2187 101.099 28.0993 103.802 26.1068 105.794C24.1142 107.787 21.4117 108.906 18.5938 108.906V108.906C15.7758 108.906 13.0733 107.787 11.0807 105.794C9.08817 103.802 7.96875 101.099 7.96875 98.2812V87.6562" stroke="#4C241D" stroke-linecap="round" stroke-linejoin="round"/>
<path d="M18.8169 164.688V88.9844" stroke="#4C241D" stroke-linecap="round" stroke-linejoin="round"/>
<path d="M61.0938 53.125C67.0623 59.9409 90.3125 77.0313 111.563 63.75C111.563 61.0938 111.544 62.2386 111.563 61.0938C111.56 59.19 110.937 57.339 109.786 55.8224C108.635 54.3058 107.02 53.2066 105.187 52.692C94.103 49.9508 69.0625 47.8125 61.0938 53.125ZM45.3448 63.6889C51.4064 62.0952 57.4334 56.2328 61.4816 51.5233C57.1794 52.2939 52.9271 53.321 48.7475 54.5992C47.7133 54.9289 46.8156 55.5885 46.1919 56.477C45.5682 57.3655 45.253 58.4339 45.2944 59.5186C45.3448 60.9875 45.3767 62.5866 45.3448 63.6889Z" fill="#BF7E68" stroke="#4C241D" stroke-linecap="round" stroke-linejoin="round"/>
</svg>
