<svg width="24" height="19" viewBox="0 0 24 19" fill="none" xmlns="http://www.w3.org/2000/svg">
<path d="M14.7162 8.07693C15.8308 8.07693 16.7354 8.98155 16.7354 10.0962V17.8462H16.7308V18.1346C16.7308 18.3641 16.6396 18.5843 16.4773 18.7465C16.315 18.9088 16.0949 19 15.8654 19C15.6359 19 15.4158 18.9088 15.2535 18.7465C15.0912 18.5843 15 18.3641 15 18.1346V11.5385H15.0046V10.0962C15.0046 10.0197 14.9742 9.94629 14.9201 9.89219C14.866 9.8381 14.7927 9.8077 14.7162 9.8077H8.36769C8.29119 9.8077 8.21782 9.8381 8.16372 9.89219C8.10962 9.94629 8.07923 10.0197 8.07923 10.0962V17.8462H8.07692V18.1346C8.07692 18.3641 7.98575 18.5843 7.82346 18.7465C7.66117 18.9088 7.44105 19 7.21154 19C6.98202 19 6.76191 18.9088 6.59962 18.7465C6.43733 18.5843 6.34615 18.3641 6.34615 18.1346V11.5385H6.34846V10.0962C6.34846 8.98155 7.25192 8.07693 8.36769 8.07693H14.7162Z" fill="white"/>
<path d="M11.5385 0C12.4565 0 13.337 0.364697 13.9861 1.01386C14.6353 1.66303 15 2.54348 15 3.46154C15 4.3796 14.6353 5.26005 13.9861 5.90922C13.337 6.55838 12.4565 6.92308 11.5385 6.92308C10.6204 6.92308 9.73995 6.55838 9.09078 5.90922C8.44162 5.26005 8.07692 4.3796 8.07692 3.46154C8.07692 2.54348 8.44162 1.66303 9.09078 1.01386C9.73995 0.364697 10.6204 0 11.5385 0ZM11.5385 1.73077C11.0794 1.73077 10.6392 1.91312 10.3146 2.2377C9.99004 2.56228 9.80769 3.00251 9.80769 3.46154C9.80769 3.92057 9.99004 4.3608 10.3146 4.68538C10.6392 5.00996 11.0794 5.19231 11.5385 5.19231C11.9975 5.19231 12.4377 5.00996 12.7623 4.68538C13.0869 4.3608 13.2692 3.92057 13.2692 3.46154C13.2692 3.00251 13.0869 2.56228 12.7623 2.2377C12.4377 1.91312 11.9975 1.73077 11.5385 1.73077Z" fill="white"/>
<path d="M23.0769 10.0962C23.0769 9.56063 22.8642 9.04703 22.4855 8.66835C22.1068 8.28967 21.5932 8.07693 21.0577 8.07693H17.1635C17.6169 8.62501 17.8892 9.32886 17.8892 10.0962V11.5385H17.8846V19H22.2115C22.4411 19 22.6612 18.9088 22.8235 18.7465C22.9857 18.5843 23.0769 18.3641 23.0769 18.1346V10.0962Z" fill="white"/>
<path d="M5.19231 17.8462H5.19462V10.0962L5.205 9.84232C5.25692 9.17309 5.51654 8.56386 5.92038 8.07693H2.01923L1.85308 8.08386C1.34804 8.12556 0.877141 8.35563 0.533861 8.72841C0.190582 9.10118 1.89284e-05 9.58941 0 10.0962V18.1346C0 18.6123 0.387692 19 0.865385 19H5.19231V17.8462Z" fill="white"/>
<path d="M19.0385 1.15384C19.8035 1.15384 20.5372 1.45775 21.0782 1.99872C21.6192 2.53969 21.9231 3.27341 21.9231 4.03845C21.9231 4.8035 21.6192 5.53722 21.0782 6.07819C20.5372 6.61916 19.8035 6.92307 19.0385 6.92307C18.2734 6.92307 17.5397 6.61916 16.9987 6.07819C16.4578 5.53722 16.1538 4.8035 16.1538 4.03845C16.1538 3.27341 16.4578 2.53969 16.9987 1.99872C17.5397 1.45775 18.2734 1.15384 19.0385 1.15384Z" fill="white"/>
<path d="M4.03846 1.15384C4.80351 1.15384 5.53722 1.45775 6.07819 1.99872C6.61916 2.53969 6.92308 3.27341 6.92308 4.03845C6.92308 4.8035 6.61916 5.53722 6.07819 6.07819C5.53722 6.61916 4.80351 6.92307 4.03846 6.92307C3.27341 6.92307 2.5397 6.61916 1.99873 6.07819C1.45776 5.53722 1.15385 4.8035 1.15385 4.03845C1.15385 3.27341 1.45776 2.53969 1.99873 1.99872C2.5397 1.45775 3.27341 1.15384 4.03846 1.15384Z" fill="white"/>
</svg>
