<svg width="64" height="64" viewBox="0 0 64 64" fill="none" xmlns="http://www.w3.org/2000/svg">
<path d="M54.5 9C55.8807 9 57 7.88071 57 6.5C57 5.11929 55.8807 4 54.5 4C53.1193 4 52 5.11929 52 6.5C52 7.88071 53.1193 9 54.5 9Z" stroke="#4C241D" stroke-linecap="round" stroke-linejoin="round"/>
<path d="M58.5 19.6319C59.1252 19.6319 59.632 19.1251 59.632 18.4999C59.632 17.8747 59.1252 17.3679 58.5 17.3679C57.8748 17.3679 57.368 17.8747 57.368 18.4999C57.368 19.1251 57.8748 19.6319 58.5 19.6319Z" fill="#4C241D"/>
<path d="M7.837 5.66309L4.163 9.33709" stroke="#4C241D" stroke-linecap="round" stroke-linejoin="round"/>
<path d="M4.163 5.66309L7.837 9.33709" stroke="#4C241D" stroke-linecap="round" stroke-linejoin="round"/>
<path d="M42 16.4999H17V9.49991C25.032 5.40991 33.4 5.88791 42 9.49991V16.4999Z" fill="#FFCE56" stroke="#4C241D" stroke-linecap="round" stroke-linejoin="round"/>
<path d="M48 62H11V53.775C11.0026 51.9578 11.5333 50.1804 12.5275 48.6593C13.5217 47.1381 14.9366 45.9387 16.6 45.207L29.5 39.5L42.405 45.207C44.0675 45.9395 45.4813 47.1392 46.4746 48.6603C47.4679 50.1814 47.9978 51.9583 48 53.775V62Z" fill="#C1DBDC" stroke="#4C241D" stroke-linecap="round" stroke-linejoin="round"/>
<path d="M29 24.5C40.8741 24.5 50.5 22.2614 50.5 19.5C50.5 16.7386 40.8741 14.5 29 14.5C17.1259 14.5 7.5 16.7386 7.5 19.5C7.5 22.2614 17.1259 24.5 29 24.5Z" fill="#FFCE56" stroke="#4C241D" stroke-linecap="round" stroke-linejoin="round"/>
<path d="M25 37H34V45.5C34 46.6935 33.5259 47.8381 32.682 48.682C31.8381 49.5259 30.6935 50 29.5 50C28.3065 50 27.1619 49.5259 26.318 48.682C25.4741 47.8381 25 46.6935 25 45.5V37Z" fill="#E7D1C4" stroke="#4C241D" stroke-linecap="round" stroke-linejoin="round"/>
<path d="M42 24.4999C41.9031 23.9808 41.8788 23.4507 41.928 22.9249C41.9412 22.2171 41.7146 21.5255 41.285 20.9628C40.8555 20.4 40.2483 19.999 39.562 19.8249C32.6054 18.1608 25.3294 18.3963 18.495 20.5069C18.0657 20.6441 17.693 20.9178 17.4337 21.2865C17.1745 21.6552 17.0429 22.0985 17.059 22.5489C17.1233 23.1991 17.1034 23.8548 17 24.4999C16.6639 24.4997 16.3312 24.5672 16.0218 24.6985C15.7124 24.8298 15.4326 25.0221 15.1993 25.264C14.9659 25.5059 14.7837 25.7923 14.6635 26.1062C14.5434 26.4201 14.4878 26.755 14.5 27.0909C14.53 27.4887 14.6526 27.8741 14.858 28.2161C15.0634 28.5581 15.3459 28.8474 15.683 29.0609C15.9813 29.2831 16.3305 29.427 16.6988 29.4794C17.067 29.5318 17.4426 29.4911 17.791 29.3609C18.2847 31.7756 19.4116 34.0157 21.0562 35.8514C22.7008 37.6872 24.8039 39.0527 27.15 39.8079C28.5478 40.2424 30.0468 40.2263 31.435 39.7619L31.879 39.6179C34.1905 38.8679 36.265 37.5251 37.8955 35.7232C39.5261 33.9214 40.6558 31.7236 41.172 29.3489C41.5143 29.4803 41.8833 29.5273 42.2476 29.4859C42.6119 29.4444 42.9609 29.3158 43.265 29.1109C43.5873 28.9202 43.8634 28.6606 44.0735 28.3506C44.2835 28.0406 44.4224 27.6879 44.48 27.3179C44.5252 26.9656 44.4948 26.6077 44.3908 26.2681C44.2868 25.9285 44.1117 25.6149 43.877 25.3483C43.6424 25.0816 43.3536 24.8681 43.03 24.7218C42.7063 24.5755 42.3552 24.4999 42 24.4999V24.4999Z" fill="#E7D1C4" stroke="#4C241D" stroke-linecap="round" stroke-linejoin="round"/>
<path d="M34.5 29.5C35.0523 29.5 35.5 29.0523 35.5 28.5C35.5 27.9477 35.0523 27.5 34.5 27.5C33.9477 27.5 33.5 27.9477 33.5 28.5C33.5 29.0523 33.9477 29.5 34.5 29.5Z" fill="#4C241D"/>
<path d="M24.5 29.5C25.0523 29.5 25.5 29.0523 25.5 28.5C25.5 27.9477 25.0523 27.5 24.5 27.5C23.9477 27.5 23.5 27.9477 23.5 28.5C23.5 29.0523 23.9477 29.5 24.5 29.5Z" fill="#4C241D"/>
<path d="M56 42V62" stroke="#4C241D" stroke-linecap="round" stroke-linejoin="round"/>
<path d="M60.208 35.82C59.0925 36.7381 57.6763 37.2102 56.233 37.145C56.1684 35.7018 56.6404 34.2858 57.558 33.17C58.6738 32.2524 60.0898 31.7804 61.533 31.845C61.5982 33.2883 61.1261 34.7045 60.208 35.82V35.82ZM57.946 30.748C57.806 32.1857 57.1384 33.5206 56.072 34.495C55.0065 33.5202 54.3396 32.1854 54.2 30.748C54.3394 29.3102 55.0062 27.975 56.072 27C57.1386 27.9747 57.8062 29.3099 57.946 30.748V30.748ZM60.208 40.505C59.0922 41.4226 57.6762 41.8947 56.233 41.83C56.1684 40.3868 56.6404 38.9708 57.558 37.855C58.6735 36.9369 60.0897 36.4649 61.533 36.53C61.5981 37.9733 61.1261 39.3895 60.208 40.505V40.505ZM60.208 45.189C59.0925 46.1071 57.6763 46.5792 56.233 46.514C56.1684 45.0708 56.6404 43.6548 57.558 42.539C58.6738 41.6214 60.0898 41.1494 61.533 41.214C61.5982 42.6573 61.1261 44.0735 60.208 45.189ZM60.208 49.874C59.0924 50.792 57.6763 51.2644 56.233 51.2C56.1684 49.7568 56.6404 48.3408 57.558 47.225C58.6735 46.3069 60.0897 45.8349 61.533 45.9C61.5979 47.3429 61.1258 48.7587 60.208 49.874V49.874Z" fill="#FFCE56" stroke="#4C241D" stroke-linecap="round" stroke-linejoin="round"/>
<path d="M51.858 35.4001C52.9961 36.3364 54.4408 36.8177 55.913 36.7511C55.9782 35.2801 55.4966 33.837 54.561 32.7001C53.4233 31.7636 51.979 31.2819 50.507 31.3481C50.4416 32.8192 50.9229 34.2625 51.858 35.4001V35.4001ZM51.858 40.1781C52.9961 41.1144 54.4408 41.5957 55.913 41.5291C55.979 40.0571 55.4973 38.6128 54.561 37.4751C53.4233 36.5387 51.9789 36.0573 50.507 36.1241C50.441 37.5959 50.9222 39.0401 51.858 40.1781V40.1781ZM51.858 44.9561C52.9961 45.8924 54.4407 46.3741 55.913 46.3081C55.979 44.8357 55.4974 43.3912 54.561 42.2531C53.4236 41.316 51.9792 40.8339 50.507 40.9001C50.4405 42.3726 50.9218 43.8175 51.858 44.9561V44.9561ZM51.858 49.7341C52.9961 50.6704 54.4407 51.1521 55.913 51.0861C55.9791 49.614 55.4975 48.1697 54.561 47.0321C53.4233 46.0956 51.979 45.6139 50.507 45.6801C50.4409 47.1519 50.9221 48.5961 51.858 49.7341V49.7341Z" fill="#FFCE56" stroke="#4C241D" stroke-linecap="round" stroke-linejoin="round"/>
<path d="M41 45V62" stroke="#4C241D" stroke-linecap="round" stroke-linejoin="round"/>
<path d="M18 45V62" stroke="#4C241D" stroke-linecap="round" stroke-linejoin="round"/>
<path d="M41 55H18V62H41V55Z" fill="#A9BA5A" stroke="#4C241D" stroke-linecap="round" stroke-linejoin="round"/>
<path d="M11 33V37C11 38.0609 10.5786 39.0783 9.82843 39.8284C9.07828 40.5786 8.06087 41 7 41V41C5.93913 41 4.92172 40.5786 4.17157 39.8284C3.42143 39.0783 3 38.0609 3 37V33" stroke="#4C241D" stroke-linecap="round" stroke-linejoin="round"/>
<path d="M7.084 62V33.5" stroke="#4C241D" stroke-linecap="round" stroke-linejoin="round"/>
<path d="M23 19.9999C25.247 22.5659 34 28.9999 42 23.9999C42 22.9999 41.993 23.4309 42 22.9999C41.9992 22.2832 41.7644 21.5864 41.3311 21.0154C40.8979 20.4445 40.29 20.0307 39.6 19.8369C35.427 18.8049 26 17.9999 23 19.9999ZM17.071 23.9769C19.353 23.3769 21.622 21.1699 23.146 19.3969C21.5263 19.687 19.9255 20.0737 18.352 20.5549C17.9626 20.679 17.6247 20.9274 17.3899 21.2618C17.1551 21.5963 17.0364 21.9986 17.052 22.4069C17.071 22.9599 17.083 23.5619 17.071 23.9769Z" fill="#BF7E68" stroke="#4C241D" stroke-linecap="round" stroke-linejoin="round"/>
</svg>
