<svg width="170" height="170" viewBox="0 0 170 170" fill="none" xmlns="http://www.w3.org/2000/svg">
<path d="M62.1094 121.219C93.65 121.219 119.219 95.65 119.219 64.1094C119.219 32.5687 93.65 7 62.1094 7C30.5687 7 5 32.5687 5 64.1094C5 95.65 30.5687 121.219 62.1094 121.219Z" fill="#BFE7F4"/>
<path d="M21.25 10.625V18.5938" stroke="#4C241D" stroke-linecap="round" stroke-linejoin="round"/>
<path d="M21.25 29.2188V37.1875" stroke="#4C241D" stroke-linecap="round" stroke-linejoin="round"/>
<path d="M15.9375 23.9062H7.96875" stroke="#4C241D" stroke-linecap="round" stroke-linejoin="round"/>
<path d="M34.5312 23.9062H26.5625" stroke="#4C241D" stroke-linecap="round" stroke-linejoin="round"/>
<path d="M126.172 18.5938C129.839 18.5938 132.812 15.6206 132.812 11.9531C132.812 8.28561 129.839 5.3125 126.172 5.3125C122.504 5.3125 119.531 8.28561 119.531 11.9531C119.531 15.6206 122.504 18.5938 126.172 18.5938Z" stroke="#4C241D" stroke-linecap="round" stroke-linejoin="round"/>
<path d="M150.078 121.21C151.739 121.21 153.085 119.864 153.085 118.203C153.085 116.543 151.739 115.196 150.078 115.196C148.417 115.196 147.071 116.543 147.071 118.203C147.071 119.864 148.417 121.21 150.078 121.21Z" fill="#4C241D"/>
<path d="M158.047 147.773C159.708 147.773 161.054 146.426 161.054 144.766C161.054 143.105 159.708 141.759 158.047 141.759C156.386 141.759 155.04 143.105 155.04 144.766C155.04 146.426 156.386 147.773 158.047 147.773Z" fill="#4C241D"/>
<path d="M131.484 150.429C133.145 150.429 134.491 149.083 134.491 147.422C134.491 145.761 133.145 144.415 131.484 144.415C129.824 144.415 128.477 145.761 128.477 147.422C128.477 149.083 129.824 150.429 131.484 150.429Z" fill="#4C241D"/>
<path d="M156.286 33.6361L146.527 43.3952" stroke="#4C241D" stroke-linecap="round" stroke-linejoin="round"/>
<path d="M146.527 33.6361L156.286 43.3952" stroke="#4C241D" stroke-linecap="round" stroke-linejoin="round"/>
<path d="M85 148.75C118.741 148.75 146.094 121.397 146.094 87.6562C146.094 53.9151 118.741 26.5625 85 26.5625C51.2589 26.5625 23.9062 53.9151 23.9062 87.6562C23.9062 121.397 51.2589 148.75 85 148.75Z" fill="#FFCE56" stroke="#4C241D" stroke-linecap="round" stroke-linejoin="round"/>
<path d="M51.9323 53.125C45.0392 59.7265 40.2796 68.2401 38.2661 77.5697C36.2527 86.8993 37.0776 96.618 40.6346 105.475C44.1916 114.332 50.318 121.921 58.2251 127.267C66.1323 132.612 75.4582 135.468 85.0027 135.468C94.5471 135.468 103.873 132.612 111.78 127.267C119.687 121.921 125.814 114.332 129.371 105.475C132.928 96.618 133.753 86.8993 131.739 77.5697C129.726 68.2401 124.966 59.7265 118.073 53.125" stroke="#FC8C29" stroke-linecap="round" stroke-linejoin="round"/>
<path d="M70.6908 69.2643L83.9242 73.9924C84.6201 74.2394 85.3798 74.2394 86.0758 73.9924L99.3092 69.2643C99.8789 69.0579 100.496 69.0182 101.087 69.1498C101.679 69.2813 102.22 69.5788 102.649 70.0073C103.077 70.4358 103.375 70.9775 103.506 71.569C103.638 72.1605 103.598 72.7773 103.392 73.347L98.6637 86.5937C98.4168 87.2896 98.4168 88.0493 98.6637 88.7453L103.392 101.979C103.598 102.548 103.638 103.165 103.506 103.757C103.375 104.348 103.077 104.89 102.649 105.318C102.22 105.747 101.679 106.044 101.087 106.176C100.496 106.308 99.8789 106.268 99.3092 106.061L86.0758 101.333C85.3798 101.086 84.6201 101.086 83.9242 101.333L70.6908 106.061C70.1211 106.268 69.5043 106.308 68.9128 106.176C68.3213 106.044 67.7796 105.747 67.3511 105.318C66.9226 104.89 66.6251 104.348 66.4936 103.757C66.362 103.165 66.4017 102.548 66.6081 101.979L71.3362 88.7453C71.5832 88.0493 71.5832 87.2896 71.3362 86.5937L66.6081 73.3603C66.3981 72.7898 66.3556 72.1712 66.4856 71.5775C66.6156 70.9837 66.9127 70.4394 67.3418 70.0089C67.771 69.5784 68.3142 69.2796 68.9076 69.1476C69.5009 69.0157 70.1197 69.0562 70.6908 69.2643V69.2643Z" fill="white" stroke="#4C241D" stroke-linecap="round" stroke-linejoin="round"/>
<path d="M37.1875 164.688C54.7916 164.688 69.0625 150.417 69.0625 132.812C69.0625 115.208 54.7916 100.938 37.1875 100.938C19.5834 100.938 5.3125 115.208 5.3125 132.812C5.3125 150.417 19.5834 164.688 37.1875 164.688Z" fill="#E5E5E5" stroke="#4C241D" stroke-linecap="round" stroke-linejoin="round"/>
<path d="M37.1875 156.719C50.3906 156.719 61.0938 146.016 61.0938 132.812C61.0938 119.609 50.3906 108.906 37.1875 108.906C23.9844 108.906 13.2812 119.609 13.2812 132.812C13.2812 146.016 23.9844 156.719 37.1875 156.719Z" stroke="#B5A19C" stroke-linecap="round" stroke-linejoin="round"/>
<path d="M70.3906 164.688C84.3272 164.688 95.625 153.39 95.625 139.453C95.625 125.517 84.3272 114.219 70.3906 114.219C56.4541 114.219 45.1562 125.517 45.1562 139.453C45.1562 153.39 56.4541 164.688 70.3906 164.688Z" fill="#FFCE56" stroke="#4C241D" stroke-linecap="round" stroke-linejoin="round"/>
<path d="M70.3906 156.719C79.9262 156.719 87.6562 148.989 87.6562 139.453C87.6562 129.918 79.9262 122.188 70.3906 122.188C60.8551 122.188 53.125 129.918 53.125 139.453C53.125 148.989 60.8551 156.719 70.3906 156.719Z" stroke="#FC8C29" stroke-linecap="round" stroke-linejoin="round"/>
</svg>
