<svg width="64" height="64" viewBox="0 0 64 64" fill="none" xmlns="http://www.w3.org/2000/svg">
<path d="M4 14L6.644 12.605C7.58437 12.1088 8.62995 11.8451 9.69318 11.8361C10.7564 11.827 11.8063 12.0729 12.755 12.553V12.553C13.6475 13.0043 14.6302 13.2488 15.6301 13.2684C16.63 13.2879 17.6215 13.0821 18.531 12.666L19.294 12.317C20.1926 11.9056 21.1716 11.6995 22.1597 11.7137C23.1479 11.7279 24.1206 11.962 25.007 12.399L25.384 12.585C26.28 13.0264 27.2638 13.2606 28.2626 13.2703C29.2614 13.28 30.2496 13.0649 31.154 12.641L31.717 12.377C32.6318 11.9481 33.6323 11.7331 34.6425 11.7481C35.6528 11.7632 36.6464 12.008 37.548 12.464L37.689 12.536C38.5906 12.992 39.5842 13.2368 40.5945 13.2519C41.6047 13.2669 42.6052 13.0519 43.52 12.623L44.188 12.309C45.0636 11.8982 46.0181 11.6832 46.9852 11.6789C47.9524 11.6746 48.9088 11.8811 49.788 12.284L50.496 12.608C51.4398 13.0399 52.4715 13.2452 53.5087 13.2075C54.546 13.1699 55.56 12.8902 56.47 12.391L59 11" stroke="#4C241D" stroke-linecap="round" stroke-linejoin="round"/>
<path d="M39.744 46.916C38.5474 48.5104 37.1744 49.9643 35.651 51.25C35.651 51.25 27.869 45.027 27.869 37.35C27.869 29.673 35.651 23.45 35.651 23.45C35.651 23.45 43.434 29.672 43.434 37.35C43.3878 39.5894 42.8081 41.7856 41.743 43.756" fill="#FFCE56"/>
<path d="M39.744 46.916C38.5474 48.5104 37.1744 49.9643 35.651 51.25C35.651 51.25 27.869 45.027 27.869 37.35C27.869 29.673 35.651 23.45 35.651 23.45C35.651 23.45 43.434 29.672 43.434 37.35C43.3878 39.5894 42.8081 41.7856 41.743 43.756" stroke="#4C241D" stroke-linecap="round" stroke-linejoin="round"/>
<path d="M41.508 53.176C43.462 55.13 43.081 58.676 43.081 58.676C43.081 58.676 39.531 59.057 37.581 57.104C35.631 55.151 36.009 51.604 36.009 51.604C36.009 51.604 39.554 51.222 41.508 53.176ZM29.8 53.176C27.846 55.13 28.227 58.676 28.227 58.676C28.227 58.676 31.777 59.057 33.727 57.104C35.677 55.151 35.3 51.6 35.3 51.6C35.3 51.6 31.748 51.222 29.8 53.176Z" fill="#FC8C29" stroke="#4C241D" stroke-linecap="round" stroke-linejoin="round"/>
<path d="M35.651 31.237C36.2651 31.237 36.763 30.7391 36.763 30.125C36.763 29.5109 36.2651 29.013 35.651 29.013C35.0369 29.013 34.539 29.5109 34.539 30.125C34.539 30.7391 35.0369 31.237 35.651 31.237Z" fill="#4C241D"/>
<path d="M13.631 1.01898L16.478 3.82798" stroke="#4C241D" stroke-linecap="round" stroke-linejoin="round"/>
<path d="M16.459 1L13.649 3.847" stroke="#4C241D" stroke-linecap="round" stroke-linejoin="round"/>
<path d="M21.186 18.279C22.2906 18.279 23.186 17.3836 23.186 16.279C23.186 15.1744 22.2906 14.279 21.186 14.279C20.0814 14.279 19.186 15.1744 19.186 16.279C19.186 17.3836 20.0814 18.279 21.186 18.279Z" stroke="#4C241D" stroke-linecap="round" stroke-linejoin="round"/>
<path d="M49 7C50.1046 7 51 6.10457 51 5C51 3.89543 50.1046 3 49 3C47.8954 3 47 3.89543 47 5C47 6.10457 47.8954 7 49 7Z" stroke="#4C241D" stroke-linecap="round" stroke-linejoin="round"/>
<path d="M7.073 17.252C7.6656 17.252 8.146 16.7716 8.146 16.179C8.146 15.5864 7.6656 15.106 7.073 15.106C6.4804 15.106 6 15.5864 6 16.179C6 16.7716 6.4804 17.252 7.073 17.252Z" fill="#4C241D"/>
<path d="M20.979 34.091C20.979 40.768 15.888 46.182 15.888 46.182C15.888 46.182 10.797 40.768 10.797 34.091C10.797 27.414 15.888 22 15.888 22C15.888 22 20.979 27.413 20.979 34.091ZM20.42 47.377C21.3552 48.5137 21.8361 49.9565 21.77 51.427C20.2995 51.4931 18.8567 51.0121 17.72 50.077C16.7849 48.9403 16.3039 47.4975 16.37 46.027C17.8405 45.9609 19.2833 46.4418 20.42 47.377V47.377ZM11.356 47.377C10.4209 48.5137 9.93992 49.9565 10.006 51.427C11.4765 51.4931 12.9193 51.0121 14.056 50.077C14.9912 48.9403 15.4721 47.4975 15.406 46.027C13.9355 45.9609 12.4927 46.4418 11.356 47.377V47.377Z" fill="#9DC1E4" stroke="#4C241D" stroke-linecap="round" stroke-linejoin="round"/>
<path d="M15.888 29.343C16.4292 29.343 16.868 28.9042 16.868 28.363C16.868 27.8218 16.4292 27.383 15.888 27.383C15.3468 27.383 14.908 27.8218 14.908 28.363C14.908 28.9042 15.3468 29.343 15.888 29.343Z" fill="#4C241D"/>
<path d="M55.6257 25.5C55.6257 30.747 51.6257 35 51.6257 35C51.6257 35 47.6257 30.747 47.6257 25.5C47.6257 20.253 51.6257 16 51.6257 16C51.6257 16 55.6257 20.253 55.6257 25.5ZM55.1867 35.939C55.9211 36.8322 56.2987 37.9658 56.2467 39.121C55.0915 39.173 53.958 38.7954 53.0647 38.061C52.3303 37.1678 51.9527 36.0342 52.0047 34.879C53.1599 34.827 54.2935 35.2046 55.1867 35.939ZM48.0647 35.939C47.3303 36.8322 46.9527 37.9658 47.0047 39.121C48.1599 39.173 49.2935 38.7954 50.1867 38.061C50.9211 37.1678 51.2987 36.0342 51.2467 34.879C50.0915 34.827 48.958 35.2046 48.0647 35.939Z" fill="#C1DBDC" stroke="#4C241D" stroke-linecap="round" stroke-linejoin="round"/>
<path d="M51.6257 21.77C52.051 21.77 52.3957 21.4252 52.3957 21C52.3957 20.5747 52.051 20.23 51.6257 20.23C51.2005 20.23 50.8557 20.5747 50.8557 21C50.8557 21.4252 51.2005 21.77 51.6257 21.77Z" fill="#4C241D"/>
</svg>
