<svg width="170" height="170" viewBox="0 0 170 170" fill="none" xmlns="http://www.w3.org/2000/svg">
<path d="M86.3281 151.406C119.336 151.406 146.094 124.648 146.094 91.6406C146.094 58.633 119.336 31.875 86.3281 31.875C53.3205 31.875 26.5625 58.633 26.5625 91.6406C26.5625 124.648 53.3205 151.406 86.3281 151.406Z" fill="#BFE7F4"/>
<path d="M147.881 47.4088C146.343 51.2691 143.742 54.614 140.379 57.055C137.016 59.496 133.029 60.9328 128.882 61.1988C124.735 61.4647 120.598 60.5488 116.951 58.5574C113.304 56.566 110.296 53.5808 108.278 49.9485C106.259 46.3162 105.312 42.1858 105.547 38.037C105.782 33.8881 107.189 29.8911 109.605 26.51C112.021 23.1289 115.347 20.5025 119.195 18.9357C123.044 17.369 127.259 16.9262 131.349 17.6588C125.422 14.5397 118.647 13.4176 112.032 14.4592C105.416 15.5008 99.3134 18.6505 94.632 23.4398C89.9506 28.229 86.9406 34.4016 86.0499 41.0393C85.1592 47.6769 86.4353 54.4248 89.6884 60.2788C92.9416 66.1327 97.9978 70.7799 104.105 73.5288C110.212 76.2778 117.043 76.9815 123.582 75.5353C130.121 74.0891 136.019 70.5703 140.397 65.5024C144.775 60.4346 147.4 54.0886 147.881 47.4088V47.4088Z" fill="#FFCE56" stroke="#4C241D" stroke-linecap="round" stroke-linejoin="round"/>
<path d="M70.3906 19.728C71.7505 19.728 72.853 18.6255 72.853 17.2656C72.853 15.9057 71.7505 14.8033 70.3906 14.8033C69.0307 14.8033 67.9283 15.9057 67.9283 17.2656C67.9283 18.6255 69.0307 19.728 70.3906 19.728Z" fill="#4C241D"/>
<path d="M30.5469 46.2905C31.9068 46.2905 33.0092 45.188 33.0092 43.8281C33.0092 42.4682 31.9068 41.3658 30.5469 41.3658C29.187 41.3658 28.0845 42.4682 28.0845 43.8281C28.0845 45.188 29.187 46.2905 30.5469 46.2905Z" fill="#4C241D"/>
<path d="M66.4062 106.25H39.8438V167.344H66.4062V106.25Z" fill="#9DC1E4" stroke="#4C241D" stroke-linecap="round" stroke-linejoin="round"/>
<path d="M53.125 135.469V167.344" stroke="#4C241D" stroke-linecap="round" stroke-linejoin="round"/>
<path d="M29.2188 167.344L132.812 167.344" stroke="#4C241D" stroke-linecap="round" stroke-linejoin="round"/>
<path d="M74.375 87.6562C73.6705 87.6562 72.9949 87.3764 72.4967 86.8783C71.9986 86.3801 71.7188 85.7045 71.7188 85V81.2016C71.7188 79.391 70.9995 77.6547 69.7193 76.3745C68.4391 75.0942 66.7027 74.375 64.8922 74.375H41.3578C39.5473 74.375 37.8109 75.0942 36.5307 76.3745C35.2505 77.6547 34.5313 79.391 34.5312 81.2016V85C34.5312 85.7045 34.2514 86.3801 33.7533 86.8783C33.2551 87.3764 32.5795 87.6562 31.875 87.6562C29.0571 87.6562 26.3546 88.7757 24.362 90.7682C22.3694 92.7608 21.25 95.4633 21.25 98.2812V116.875H31.875V122.764C31.875 124.02 32.374 125.225 33.2622 126.113C34.1504 127.001 35.355 127.5 36.6111 127.5H69.6389C70.895 127.5 72.0996 127.001 72.9878 126.113C73.876 125.225 74.375 124.02 74.375 122.764V116.875H85V98.2812C85 95.4633 83.8806 92.7608 81.888 90.7682C79.8954 88.7757 77.1929 87.6562 74.375 87.6562Z" fill="#BF7E68" stroke="#4C241D" stroke-linecap="round" stroke-linejoin="round"/>
<path d="M74.375 116.875V100.938" stroke="#4C241D" stroke-linecap="round" stroke-linejoin="round"/>
<path d="M31.875 116.875V100.938" stroke="#4C241D" stroke-linecap="round" stroke-linejoin="round"/>
<path d="M31.875 116.875H21.25V124.844H31.875V116.875Z" fill="#FFE8DC" stroke="#4C241D" stroke-linecap="round" stroke-linejoin="round"/>
<path d="M85 116.875H74.375V124.844H85V116.875Z" fill="#FFE8DC" stroke="#4C241D" stroke-linecap="round" stroke-linejoin="round"/>
<path d="M53.125 47.8125C55.9429 47.8125 58.6454 48.9319 60.638 50.9245C62.6306 52.9171 63.75 55.6196 63.75 58.4375V77.0312H54.5009C51.3181 77.0312 48.2656 75.7669 46.015 73.5163C43.7644 71.2656 42.5 68.2132 42.5 65.0303V58.4375C42.5 55.6196 43.6194 52.9171 45.612 50.9245C47.6046 48.9319 50.3071 47.8125 53.125 47.8125V47.8125Z" fill="#FFE8DC" stroke="#4C241D" stroke-linecap="round" stroke-linejoin="round"/>
<path d="M43.8839 10.0486L36.0533 17.8792" stroke="#4C241D" stroke-linecap="round" stroke-linejoin="round"/>
<path d="M36.0533 10.0486L43.8839 17.8792" stroke="#4C241D" stroke-linecap="round" stroke-linejoin="round"/>
<path d="M147.478 28.6423L139.647 36.473" stroke="#4C241D" stroke-linecap="round" stroke-linejoin="round"/>
<path d="M139.647 28.6423L147.478 36.473" stroke="#4C241D" stroke-linecap="round" stroke-linejoin="round"/>
</svg>
