<svg width="170" height="170" viewBox="0 0 170 170" fill="none" xmlns="http://www.w3.org/2000/svg">
<path d="M81.8519 144.815C121.841 144.815 154.259 112.397 154.259 72.4074C154.259 32.4179 121.841 0 81.8519 0C41.8623 0 9.44444 32.4179 9.44444 72.4074C9.44444 112.397 41.8623 144.815 81.8519 144.815Z" fill="#BFE7F4"/>
<path d="M17.2656 21.25C20.9331 21.25 23.9062 18.2769 23.9062 14.6094C23.9062 10.9419 20.9331 7.96875 17.2656 7.96875C13.5981 7.96875 10.625 10.9419 10.625 14.6094C10.625 18.2769 13.5981 21.25 17.2656 21.25Z" stroke="#4C241D" stroke-linecap="round" stroke-linejoin="round"/>
<path d="M144.766 92.9688C148.433 92.9688 151.406 89.9956 151.406 86.3281C151.406 82.6606 148.433 79.6875 144.766 79.6875C141.098 79.6875 138.125 82.6606 138.125 86.3281C138.125 89.9956 141.098 92.9688 144.766 92.9688Z" stroke="#4C241D" stroke-linecap="round" stroke-linejoin="round"/>
<path d="M25.2344 60.1163C26.895 60.1163 28.2412 58.77 28.2412 57.1094C28.2412 55.4487 26.895 54.1025 25.2344 54.1025C23.5737 54.1025 22.2275 55.4487 22.2275 57.1094C22.2275 58.77 23.5737 60.1163 25.2344 60.1163Z" fill="#4C241D"/>
<path d="M155.391 54.8038C157.051 54.8038 158.398 53.4575 158.398 51.7969C158.398 50.1362 157.051 48.79 155.391 48.79C153.73 48.79 152.384 50.1362 152.384 51.7969C152.384 53.4575 153.73 54.8038 155.391 54.8038Z" fill="#4C241D"/>
<path d="M150.973 15.0424L141.214 24.8014" stroke="#4C241D" stroke-linecap="round" stroke-linejoin="round"/>
<path d="M141.214 15.0424L150.973 24.8014" stroke="#4C241D" stroke-linecap="round" stroke-linejoin="round"/>
<path d="M23.4733 100.042L13.7142 109.801" stroke="#4C241D" stroke-linecap="round" stroke-linejoin="round"/>
<path d="M13.7142 100.042L23.4733 109.801" stroke="#4C241D" stroke-linecap="round" stroke-linejoin="round"/>
<path d="M141.1 122.087C139.73 120.855 138.276 119.718 136.749 118.687L133.362 116.413C126.078 111.519 117.501 108.906 108.726 108.906H64.0156C55.1957 108.907 46.5775 111.546 39.27 116.485L36.0267 118.679C34.4738 119.729 32.9977 120.888 31.6094 122.148C40.3175 131.93 45.1372 144.565 45.1562 157.662V162.031H127.5V157.662C127.519 144.537 132.359 131.877 141.1 122.087V122.087Z" fill="#6B4F5B" stroke="#4C241D" stroke-linecap="round" stroke-linejoin="round"/>
<path d="M100.728 82.3438H71.7188V119.531H100.728V82.3438Z" fill="#E7D1C4" stroke="#4C241D" stroke-linecap="round" stroke-linejoin="round"/>
<path d="M116.96 108.906H103.594L101.822 116.875H70.8342L69.0625 108.906H55.6963C55.314 108.906 54.9397 109.015 54.6172 109.221C54.2948 109.426 54.0375 109.719 53.8755 110.065C53.7135 110.411 53.6536 110.796 53.7028 111.176C53.7519 111.555 53.9081 111.912 54.153 112.205L69.2936 127.638C69.7504 134.074 71.3449 140.377 74.0031 146.256L78.5719 155.922C82.357 163.938 89.4944 164.098 93.4017 156.251L98.2813 146.46C101.088 140.563 102.793 134.202 103.312 127.691L118.509 112.205C118.754 111.911 118.91 111.554 118.959 111.174C119.008 110.795 118.948 110.409 118.785 110.063C118.622 109.716 118.364 109.423 118.041 109.219C117.718 109.014 117.343 108.905 116.96 108.906ZM154.341 151.701C154.34 146.111 153.16 140.585 150.878 135.482C148.596 130.379 145.265 125.815 141.1 122.087C132.359 131.877 127.519 144.537 127.5 157.662V162.031H154.328L154.341 151.701ZM31.6094 122.148C27.4876 125.874 24.1928 130.424 21.9372 135.502C19.6817 140.581 18.5156 146.075 18.5141 151.632V162.031H45.1563V157.662C45.1372 144.565 40.3175 131.93 31.6094 122.148V122.148Z" fill="white" stroke="#4C241D" stroke-linecap="round" stroke-linejoin="round"/>
<path d="M116.96 108.906H103.594L101.822 116.875H70.8342L69.0625 108.906H55.6962C55.314 108.906 54.9397 109.015 54.6172 109.221C54.2948 109.426 54.0375 109.719 53.8755 110.065C53.7135 110.411 53.6536 110.796 53.7028 111.176C53.7519 111.555 53.9081 111.912 54.153 112.205L69.2936 127.638C69.7504 134.074 71.3449 140.377 74.0031 146.256L78.5719 155.922C82.357 163.938 89.4944 164.098 93.4017 156.251L98.2813 146.46C101.088 140.563 102.793 134.202 103.312 127.691L118.509 112.205C118.754 111.911 118.91 111.554 118.959 111.174C119.008 110.795 118.948 110.409 118.785 110.063C118.622 109.716 118.364 109.423 118.041 109.219C117.718 109.014 117.343 108.905 116.96 108.906Z" fill="white" stroke="#4C241D" stroke-linecap="round" stroke-linejoin="round"/>
<path d="M85 124.844V159.375" stroke="#4C241D" stroke-linecap="round" stroke-linejoin="round"/>
<path d="M90.0044 116.721C90.0044 113.872 87.6949 111.562 84.8459 111.562C81.997 111.562 79.6875 113.872 79.6875 116.721V119.685C79.6875 122.534 81.997 124.844 84.8459 124.844C87.6949 124.844 90.0044 122.534 90.0044 119.685V116.721Z" fill="#F53E28" stroke="#4C241D" stroke-linecap="round" stroke-linejoin="round"/>
<path d="M90.0044 112.006V124.4L103.594 127.5V108.906L90.0044 112.006Z" fill="#F53E28" stroke="#4C241D" stroke-linecap="round" stroke-linejoin="round"/>
<path d="M59.9011 55.9459H64.0661V69.0625H59.9011C58.1617 69.0625 56.4936 68.3715 55.2637 67.1416C54.0338 65.9117 53.3428 64.2436 53.3428 62.5042V62.5042C53.3428 60.7648 54.0338 59.0967 55.2637 57.8668C56.4936 56.6369 58.1617 55.9459 59.9011 55.9459V55.9459Z" fill="#E7D1C4" stroke="#4C241D" stroke-linecap="round" stroke-linejoin="round"/>
<path d="M112.973 69.0625H108.906V55.9459H112.973C114.712 55.9459 116.38 56.6369 117.61 57.8668C118.84 59.0967 119.531 60.7649 119.531 62.5042V62.5042C119.531 64.2436 118.84 65.9117 117.61 67.1416C116.38 68.3715 114.712 69.0625 112.973 69.0625V69.0625Z" fill="#E7D1C4" stroke="#4C241D" stroke-linecap="round" stroke-linejoin="round"/>
<path d="M79.9956 112.006V124.4L66.4062 127.5V108.906L79.9956 112.006Z" fill="#F53E28" stroke="#4C241D" stroke-linecap="round" stroke-linejoin="round"/>
<path d="M98.9559 90.1983L97.2533 91.4547C93.9062 93.9295 89.8532 95.2647 85.6906 95.2637V95.2637C81.1609 95.2637 76.7731 93.6837 73.2833 90.7959L72.5661 90.2009C69.0756 87.3123 66.2658 83.6888 64.3373 79.5889C62.4088 75.4891 61.4092 71.014 61.4098 66.4833V30.9241H111.451V65.4341C111.45 70.2515 110.32 75.0017 108.15 79.3027C105.98 83.6037 102.831 87.3356 98.9559 90.1983Z" fill="#E7D1C4" stroke="#4C241D" stroke-linecap="round" stroke-linejoin="round"/>
<path d="M90.5781 16.66C73.6817 14.7475 57.6406 27.3567 53.2977 46.4525C53.2419 46.6942 53.1888 46.9413 53.1356 47.1883C53.1356 47.1883 71.3442 54.7135 97.5322 40.5105C99.5811 42.9483 102.127 44.9203 105 46.2946C107.873 47.6689 111.006 48.4137 114.19 48.4792C114.219 48.4739 114.219 45.483 114.219 41.4375C114.29 35.6389 112.287 30.0056 108.571 25.5539C104.855 21.1021 99.6697 18.1249 93.9516 17.1594L90.5781 16.66Z" fill="#BF7E68" stroke="#4C241D" stroke-linecap="round" stroke-linejoin="round"/>
<path d="M75.7031 65.9148C77.6322 65.9148 79.1961 64.351 79.1961 62.4219C79.1961 60.4928 77.6322 58.9289 75.7031 58.9289C73.774 58.9289 72.2102 60.4928 72.2102 62.4219C72.2102 64.351 73.774 65.9148 75.7031 65.9148Z" fill="#4C241D"/>
<path d="M96.9531 65.9148C98.8822 65.9148 100.446 64.351 100.446 62.4219C100.446 60.4928 98.8822 58.9289 96.9531 58.9289C95.024 58.9289 93.4602 60.4928 93.4602 62.4219C93.4602 64.351 95.024 65.9148 96.9531 65.9148Z" fill="#4C241D"/>
</svg>
